{"glyphs":{"0":{"ha":903,"x_min":96,"x_max":806,"o":"m 451 -17 q 257 45 336 -17 q 137 219 178 107 q 96 485 96 332 q 137 751 96 639 q 257 925 178 864 q 451 986 336 986 q 645 925 567 986 q 765 752 724 864 q 806 485 806 640 q 765 218 806 331 q 645 44 724 106 q 451 -17 567 -17 m 451 46 q 663 165 592 46 q 735 485 735 283 q 663 806 735 689 q 451 924 592 924 q 239 806 311 924 q 167 485 167 689 q 239 165 167 283 q 451 46 311 46 z "},"1":{"ha":903,"x_min":164,"x_max":768,"o":"m 499 0 l 499 693 l 499 883 l 349 761 l 164 613 l 164 700 l 515 969 l 564 969 l 564 0 l 499 0 m 164 0 l 164 63 l 768 63 l 768 0 l 164 0 z "},"2":{"ha":903,"x_min":128,"x_max":765,"o":"m 128 0 l 128 53 q 456 333 332 214 q 637 543 581 451 q 693 711 693 635 q 635 865 693 806 q 467 924 578 924 q 286 861 357 924 q 204 679 215 799 l 135 679 q 190 848 146 779 q 306 951 235 917 q 467 986 378 986 q 629 952 564 986 q 728 858 694 918 q 763 718 763 797 q 708 532 763 628 q 535 322 654 436 q 219 63 415 208 l 765 63 l 765 0 l 128 0 z "},"3":{"ha":903,"x_min":133,"x_max":789,"o":"m 464 -17 q 304 18 378 -17 q 185 120 231 53 q 133 288 139 188 l 203 288 q 242 160 207 214 q 335 76 278 106 q 464 46 393 46 q 649 106 579 46 q 719 263 719 167 q 679 383 719 335 q 572 457 639 432 q 426 482 506 482 l 372 482 l 372 539 l 431 539 q 560 567 507 539 q 641 642 613 596 q 669 742 669 689 q 612 872 669 821 q 464 924 554 924 q 289 863 358 924 q 210 679 219 803 l 140 679 q 197 856 150 788 q 315 955 244 924 q 464 986 386 986 q 606 956 543 986 q 705 871 668 925 q 742 744 742 817 q 716 642 742 692 q 647 559 690 593 q 546 515 603 525 q 669 475 614 507 q 756 390 724 443 q 789 264 789 336 q 749 118 789 182 q 635 19 708 54 q 464 -17 563 -17 z "},"4":{"ha":903,"x_min":75,"x_max":829,"o":"m 589 0 l 589 251 l 75 251 l 75 304 l 565 969 l 654 969 l 654 314 l 829 314 l 829 251 l 654 251 l 654 0 l 589 0 m 157 314 l 589 314 l 589 711 l 589 901 l 475 747 l 157 314 z "},"5":{"ha":903,"x_min":143,"x_max":781,"o":"m 453 -17 q 294 17 363 -17 q 187 110 226 50 q 143 249 147 171 l 213 249 q 283 103 224 160 q 453 46 342 46 q 588 81 531 46 q 678 181 646 117 q 710 329 710 244 q 641 508 710 440 q 460 575 572 575 q 326 540 390 575 q 218 443 263 504 l 154 443 l 233 969 l 740 969 l 740 907 l 285 907 l 225 514 q 337 603 269 569 q 469 638 404 638 q 633 599 563 638 q 742 491 703 560 q 781 329 781 422 q 740 148 781 226 q 625 26 699 69 q 453 -17 551 -17 z "},"6":{"ha":903,"x_min":117,"x_max":793,"o":"m 478 639 q 640 599 569 639 q 752 488 711 560 q 793 321 793 417 q 752 144 793 219 q 636 26 711 68 q 460 -17 561 -17 q 283 39 361 -17 q 161 198 206 94 q 117 447 117 301 q 163 726 117 604 q 294 917 210 847 q 492 986 379 986 q 593 971 547 986 q 674 926 639 956 q 731 855 708 897 q 763 757 754 813 l 693 757 q 626 881 679 838 q 489 924 574 924 q 328 865 394 924 q 225 702 261 807 q 186 457 189 597 q 303 591 225 543 q 478 639 382 639 m 463 46 q 599 80 540 46 q 690 174 657 114 q 722 313 722 235 q 691 450 722 390 q 604 543 660 510 q 475 576 549 576 q 288 511 361 576 q 192 347 215 446 q 284 128 211 211 q 463 46 357 46 z "},"7":{"ha":903,"x_min":128,"x_max":806,"o":"m 329 0 q 384 274 350 144 q 466 519 418 404 q 578 731 514 633 q 725 908 643 829 l 128 908 l 128 969 l 806 969 l 806 918 q 638 703 706 808 q 525 488 569 597 q 452 260 481 379 q 403 0 424 140 l 329 0 m 128 969 l 193 969 l 193 703 l 128 703 l 128 969 z "},"8":{"ha":903,"x_min":125,"x_max":778,"o":"m 451 -17 q 282 19 356 -17 q 167 117 208 54 q 125 263 125 181 q 153 369 125 319 q 233 455 182 419 q 349 503 283 490 l 553 503 q 667 456 617 492 q 748 371 718 421 q 778 263 778 321 q 736 117 778 181 q 622 19 694 54 q 451 -17 549 -17 m 451 46 q 583 73 525 46 q 673 149 640 100 q 706 263 706 197 q 672 367 706 322 q 581 440 639 413 q 451 474 524 467 q 323 440 381 467 q 231 368 265 413 q 197 263 197 324 q 230 149 197 197 q 320 73 263 100 q 451 46 378 46 m 451 528 q 572 560 518 535 q 658 626 626 585 q 690 726 690 668 q 624 870 690 817 q 451 924 557 924 q 279 870 346 924 q 213 726 213 817 q 244 627 213 669 q 331 560 276 585 q 451 528 385 535 m 356 497 q 249 542 297 508 q 174 623 201 575 q 146 725 146 671 q 185 860 146 801 q 293 953 224 919 q 451 986 363 986 q 610 953 542 986 q 718 860 679 919 q 757 725 757 801 q 729 623 757 671 q 653 542 701 575 q 546 497 606 508 l 356 497 z "},"9":{"ha":903,"x_min":110,"x_max":786,"o":"m 425 331 q 263 370 333 331 q 151 481 192 410 q 110 649 110 553 q 151 826 110 750 q 267 944 192 901 q 443 986 342 986 q 619 931 542 986 q 742 772 697 875 q 786 522 786 668 q 740 244 786 365 q 608 53 693 122 q 411 -17 524 -17 q 310 -1 356 -17 q 229 43 264 14 q 172 115 194 72 q 140 213 149 157 l 210 213 q 276 89 224 132 q 414 46 329 46 q 575 104 508 46 q 678 267 642 163 q 717 513 714 372 q 599 378 678 426 q 425 331 521 331 m 440 924 q 304 890 363 924 q 213 795 246 856 q 181 657 181 735 q 212 519 181 579 q 299 426 243 460 q 428 393 354 393 q 615 458 542 393 q 711 622 688 524 q 619 841 692 758 q 440 924 546 924 z "},"A":{"ha":903,"x_min":57,"x_max":846,"o":"m 199 301 l 199 364 l 704 364 l 704 301 l 199 301 m 411 969 l 492 969 l 846 0 l 776 0 l 510 733 l 453 899 l 394 731 l 128 0 l 57 0 l 411 969 z "},"Á":{"ha":903,"x_min":57,"x_max":846,"o":"m 199 301 l 199 364 l 704 364 l 704 301 l 199 301 m 411 969 l 492 969 l 846 0 l 776 0 l 510 733 l 453 899 l 394 731 l 128 0 l 57 0 l 411 969 m 394 1067 l 515 1293 l 594 1293 l 454 1067 l 394 1067 z "},"Ă":{"ha":903,"x_min":57,"x_max":846,"o":"m 199 301 l 199 364 l 704 364 l 704 301 l 199 301 m 411 969 l 492 969 l 846 0 l 776 0 l 510 733 l 453 899 l 394 731 l 128 0 l 57 0 l 411 969 m 451 1067 q 335 1094 385 1067 q 259 1173 286 1122 q 232 1293 232 1224 l 289 1293 q 334 1168 289 1214 q 451 1122 379 1122 q 570 1168 525 1122 q 615 1293 615 1214 l 672 1293 q 645 1173 672 1224 q 569 1094 618 1122 q 451 1067 519 1067 z "},"Â":{"ha":903,"x_min":57,"x_max":846,"o":"m 199 301 l 199 364 l 704 364 l 704 301 l 199 301 m 411 969 l 492 969 l 846 0 l 776 0 l 510 733 l 453 899 l 394 731 l 128 0 l 57 0 l 411 969 m 243 1067 l 415 1293 l 489 1293 l 661 1067 l 592 1067 l 453 1249 l 314 1067 l 243 1067 z "},"Ä":{"ha":903,"x_min":57,"x_max":846,"o":"m 199 301 l 199 364 l 704 364 l 704 301 l 199 301 m 411 969 l 492 969 l 846 0 l 776 0 l 510 733 l 453 899 l 394 731 l 128 0 l 57 0 l 411 969 m 518 1129 l 518 1229 l 596 1229 l 596 1129 l 518 1129 m 310 1129 l 310 1229 l 388 1229 l 388 1129 l 310 1129 z "},"À":{"ha":903,"x_min":57,"x_max":846,"o":"m 199 301 l 199 364 l 704 364 l 704 301 l 199 301 m 411 969 l 492 969 l 846 0 l 776 0 l 510 733 l 453 899 l 394 731 l 128 0 l 57 0 l 411 969 m 514 1068 l 454 1068 l 314 1294 l 393 1294 l 514 1068 z "},"Ā":{"ha":903,"x_min":57,"x_max":846,"o":"m 199 301 l 199 364 l 704 364 l 704 301 l 199 301 m 411 969 l 492 969 l 846 0 l 776 0 l 510 733 l 453 899 l 394 731 l 128 0 l 57 0 l 411 969 m 267 1139 l 267 1197 l 639 1197 l 639 1139 l 267 1139 z "},"Ą":{"ha":903,"x_min":57,"x_max":846,"o":"m 199 301 l 199 364 l 704 364 l 704 301 l 199 301 m 411 969 l 492 969 l 846 0 l 776 0 l 510 733 l 453 899 l 394 731 l 128 0 l 57 0 l 411 969 m 839 -281 q 818 -285 828 -283 q 793 -287 808 -287 q 708 -258 739 -287 q 676 -179 676 -229 q 692 -109 676 -146 q 737 -37 707 -72 q 808 25 767 -1 l 842 0 q 758 -83 786 -36 q 729 -171 729 -131 q 749 -220 729 -201 q 801 -239 768 -239 q 822 -237 814 -239 q 839 -233 831 -235 l 839 -281 z "},"Å":{"ha":903,"x_min":57,"x_max":846,"o":"m 199 301 l 199 364 l 704 364 l 704 301 l 199 301 m 411 969 l 492 969 l 846 0 l 776 0 l 510 733 l 453 899 l 394 731 l 128 0 l 57 0 l 411 969 m 451 1049 q 347 1088 388 1049 q 307 1188 307 1126 q 347 1288 307 1249 q 451 1326 388 1326 q 557 1288 517 1326 q 597 1188 597 1249 q 557 1088 597 1126 q 451 1049 517 1049 m 451 1097 q 516 1123 492 1097 q 540 1188 540 1149 q 516 1251 540 1226 q 451 1276 492 1276 q 388 1251 413 1276 q 364 1188 364 1226 q 388 1123 364 1149 q 451 1097 413 1097 z "},"Ǻ":{"ha":903,"x_min":57,"x_max":846,"o":"m 199 301 l 199 364 l 704 364 l 704 301 l 199 301 m 411 969 l 492 969 l 846 0 l 776 0 l 510 733 l 453 899 l 394 731 l 128 0 l 57 0 l 411 969 m 451 1049 q 347 1088 388 1049 q 307 1188 307 1126 q 347 1288 307 1249 q 451 1326 388 1326 q 557 1288 517 1326 q 597 1188 597 1249 q 557 1088 597 1126 q 451 1049 517 1049 m 451 1097 q 516 1123 492 1097 q 540 1188 540 1149 q 516 1251 540 1226 q 451 1276 492 1276 q 388 1251 413 1276 q 364 1188 364 1226 q 388 1123 364 1149 q 451 1097 413 1097 m 388 1300 l 508 1526 l 588 1526 l 447 1300 l 388 1300 z "},"Ã":{"ha":903,"x_min":57,"x_max":846,"o":"m 199 301 l 199 364 l 704 364 l 704 301 l 199 301 m 411 969 l 492 969 l 846 0 l 776 0 l 510 733 l 453 899 l 394 731 l 128 0 l 57 0 l 411 969 m 271 1111 l 213 1119 q 265 1219 228 1185 q 349 1254 301 1254 q 402 1242 374 1254 q 460 1213 431 1229 q 514 1185 489 1197 q 556 1172 539 1172 q 603 1196 582 1172 q 633 1257 625 1219 l 692 1249 q 638 1149 674 1183 q 556 1114 601 1114 q 483 1135 521 1114 q 409 1176 444 1156 q 349 1196 374 1196 q 300 1172 322 1196 q 271 1111 278 1149 z "},"Æ":{"ha":903,"x_min":31,"x_max":892,"o":"m 31 0 l 453 969 l 519 969 l 97 0 l 31 0 m 185 249 l 185 311 l 518 311 l 518 249 l 185 249 m 463 0 l 463 969 l 886 969 l 886 907 l 528 907 l 528 535 l 788 535 l 788 472 l 528 472 l 528 63 l 892 63 l 892 0 l 463 0 z "},"Ǽ":{"ha":903,"x_min":31,"x_max":892,"o":"m 31 0 l 453 969 l 519 969 l 97 0 l 31 0 m 185 249 l 185 311 l 518 311 l 518 249 l 185 249 m 463 0 l 463 969 l 886 969 l 886 907 l 528 907 l 528 535 l 788 535 l 788 472 l 528 472 l 528 63 l 892 63 l 892 0 l 463 0 m 461 1067 l 582 1293 l 661 1293 l 521 1067 l 461 1067 z "},"B":{"ha":903,"x_min":143,"x_max":803,"o":"m 600 508 q 697 468 651 499 q 773 386 743 438 q 803 263 803 335 q 765 126 803 185 q 658 33 728 67 q 492 0 588 0 l 143 0 l 143 969 l 476 969 q 697 906 615 969 q 778 736 778 843 q 758 636 778 685 q 698 553 738 588 q 600 508 658 519 m 478 907 l 208 907 l 208 535 l 478 535 q 645 587 585 535 q 706 726 706 639 q 644 860 706 814 q 478 907 583 907 m 208 63 l 492 63 q 667 118 603 63 q 731 267 731 174 q 660 419 731 365 q 467 472 590 472 l 208 472 l 208 63 z "},"C":{"ha":903,"x_min":65,"x_max":843,"o":"m 475 -17 q 256 50 349 -17 q 115 231 164 117 q 65 486 65 344 q 118 751 65 639 q 264 925 171 864 q 476 986 357 986 q 653 947 576 986 q 779 835 731 907 q 839 668 828 764 l 765 668 q 672 853 751 783 q 474 924 593 924 q 297 868 372 924 q 179 713 221 813 q 138 485 138 614 q 181 253 138 351 q 301 100 225 154 q 475 46 378 46 q 622 81 558 46 q 724 176 685 115 q 769 317 763 238 l 843 317 q 787 142 835 218 q 659 25 739 67 q 475 -17 579 -17 z "},"Ć":{"ha":903,"x_min":65,"x_max":843,"o":"m 475 -17 q 256 50 349 -17 q 115 231 164 117 q 65 486 65 344 q 118 751 65 639 q 264 925 171 864 q 476 986 357 986 q 653 947 576 986 q 779 835 731 907 q 839 668 828 764 l 765 668 q 672 853 751 783 q 474 924 593 924 q 297 868 372 924 q 179 713 221 813 q 138 485 138 614 q 181 253 138 351 q 301 100 225 154 q 475 46 378 46 q 622 81 558 46 q 724 176 685 115 q 769 317 763 238 l 843 317 q 787 142 835 218 q 659 25 739 67 q 475 -17 579 -17 m 410 1069 l 531 1296 l 610 1296 l 469 1069 l 410 1069 z "},"Č":{"ha":903,"x_min":65,"x_max":843,"o":"m 475 -17 q 256 50 349 -17 q 115 231 164 117 q 65 486 65 344 q 118 751 65 639 q 264 925 171 864 q 476 986 357 986 q 653 947 576 986 q 779 835 731 907 q 839 668 828 764 l 765 668 q 672 853 751 783 q 474 924 593 924 q 297 868 372 924 q 179 713 221 813 q 138 485 138 614 q 181 253 138 351 q 301 100 225 154 q 475 46 378 46 q 622 81 558 46 q 724 176 685 115 q 769 317 763 238 l 843 317 q 787 142 835 218 q 659 25 739 67 q 475 -17 579 -17 m 260 1296 l 331 1296 l 469 1114 l 608 1296 l 678 1296 l 506 1069 l 432 1069 l 260 1296 z "},"Ç":{"ha":903,"x_min":65,"x_max":843,"o":"m 475 -17 q 256 50 349 -17 q 115 231 164 117 q 65 486 65 344 q 118 751 65 639 q 264 925 171 864 q 476 986 357 986 q 653 947 576 986 q 779 835 731 907 q 839 668 828 764 l 765 668 q 672 853 751 783 q 474 924 593 924 q 297 868 372 924 q 179 713 221 813 q 138 485 138 614 q 181 253 138 351 q 301 100 225 154 q 475 46 378 46 q 622 81 558 46 q 724 176 685 115 q 769 317 763 238 l 843 317 q 787 142 835 218 q 659 25 739 67 q 475 -17 579 -17 m 458 -306 q 387 -299 421 -306 q 329 -282 353 -292 l 329 -235 q 392 -252 364 -246 q 447 -258 419 -258 q 526 -240 496 -258 q 556 -194 556 -222 q 536 -149 556 -164 q 481 -133 517 -133 q 442 -136 463 -133 q 403 -144 422 -139 l 375 -119 l 463 26 l 504 1 l 442 -99 q 470 -92 460 -93 q 490 -92 481 -92 q 556 -103 529 -92 q 597 -138 582 -115 q 611 -194 611 -161 q 592 -253 611 -228 q 538 -292 572 -278 q 458 -306 504 -306 z "},"Ĉ":{"ha":903,"x_min":65,"x_max":843,"o":"m 475 -17 q 256 50 349 -17 q 115 231 164 117 q 65 486 65 344 q 118 751 65 639 q 264 925 171 864 q 476 986 357 986 q 653 947 576 986 q 779 835 731 907 q 839 668 828 764 l 765 668 q 672 853 751 783 q 474 924 593 924 q 297 868 372 924 q 179 713 221 813 q 138 485 138 614 q 181 253 138 351 q 301 100 225 154 q 475 46 378 46 q 622 81 558 46 q 724 176 685 115 q 769 317 763 238 l 843 317 q 787 142 835 218 q 659 25 739 67 q 475 -17 579 -17 m 258 1069 l 431 1296 l 504 1296 l 676 1069 l 607 1069 l 468 1251 l 329 1069 l 258 1069 z "},"Ċ":{"ha":903,"x_min":65,"x_max":843,"o":"m 475 -17 q 256 50 349 -17 q 115 231 164 117 q 65 486 65 344 q 118 751 65 639 q 264 925 171 864 q 476 986 357 986 q 653 947 576 986 q 779 835 731 907 q 839 668 828 764 l 765 668 q 672 853 751 783 q 474 924 593 924 q 297 868 372 924 q 179 713 221 813 q 138 485 138 614 q 181 253 138 351 q 301 100 225 154 q 475 46 378 46 q 622 81 558 46 q 724 176 685 115 q 769 317 763 238 l 843 317 q 787 142 835 218 q 659 25 739 67 q 475 -17 579 -17 m 426 1129 l 426 1229 l 510 1229 l 510 1129 l 426 1129 z "},"D":{"ha":903,"x_min":115,"x_max":835,"o":"m 115 0 l 115 969 l 386 969 q 572 935 489 969 q 713 838 654 901 q 803 686 771 775 q 835 488 835 597 q 803 287 835 376 q 713 133 771 197 q 572 34 654 68 q 386 0 489 0 l 115 0 m 181 63 l 386 63 q 585 115 500 63 q 716 264 669 168 q 763 488 763 360 q 716 710 763 615 q 585 856 669 804 q 386 907 500 907 l 181 907 l 181 63 z "},"Ð":{"ha":903,"x_min":4,"x_max":835,"o":"m 4 460 l 4 513 l 506 513 l 506 460 l 4 460 m 115 0 l 115 969 l 386 969 q 572 935 489 969 q 713 838 654 901 q 803 686 771 775 q 835 488 835 597 q 803 287 835 376 q 713 133 771 197 q 572 34 654 68 q 386 0 489 0 l 115 0 m 181 63 l 386 63 q 585 115 500 63 q 716 264 669 168 q 763 488 763 360 q 716 710 763 615 q 585 856 669 804 q 386 907 500 907 l 181 907 l 181 63 z "},"Ď":{"ha":903,"x_min":115,"x_max":835,"o":"m 115 0 l 115 969 l 386 969 q 572 935 489 969 q 713 838 654 901 q 803 686 771 775 q 835 488 835 597 q 803 287 835 376 q 713 133 771 197 q 572 34 654 68 q 386 0 489 0 l 115 0 m 181 63 l 386 63 q 585 115 500 63 q 716 264 669 168 q 763 488 763 360 q 716 710 763 615 q 585 856 669 804 q 386 907 500 907 l 181 907 l 181 63 m 218 1294 l 289 1294 l 428 1113 l 567 1294 l 636 1294 l 464 1068 l 390 1068 l 218 1294 z "},"Đ":{"ha":903,"x_min":4,"x_max":835,"o":"m 4 460 l 4 513 l 506 513 l 506 460 l 4 460 m 115 0 l 115 969 l 386 969 q 572 935 489 969 q 713 838 654 901 q 803 686 771 775 q 835 488 835 597 q 803 287 835 376 q 713 133 771 197 q 572 34 654 68 q 386 0 489 0 l 115 0 m 181 63 l 386 63 q 585 115 500 63 q 716 264 669 168 q 763 488 763 360 q 716 710 763 615 q 585 856 669 804 q 386 907 500 907 l 181 907 l 181 63 z "},"E":{"ha":903,"x_min":129,"x_max":808,"o":"m 129 0 l 129 969 l 803 969 l 803 907 l 194 907 l 194 535 l 635 535 l 635 472 l 194 472 l 194 63 l 808 63 l 808 0 l 129 0 z "},"É":{"ha":903,"x_min":129,"x_max":808,"o":"m 129 0 l 129 969 l 803 969 l 803 907 l 194 907 l 194 535 l 635 535 l 635 472 l 194 472 l 194 63 l 808 63 l 808 0 l 129 0 m 425 1068 l 546 1294 l 625 1294 l 485 1068 l 425 1068 z "},"Ĕ":{"ha":903,"x_min":129,"x_max":808,"o":"m 129 0 l 129 969 l 803 969 l 803 907 l 194 907 l 194 535 l 635 535 l 635 472 l 194 472 l 194 63 l 808 63 l 808 0 l 129 0 m 482 1068 q 366 1096 415 1068 q 290 1174 317 1124 q 263 1294 263 1225 l 319 1294 q 365 1169 319 1215 q 482 1124 410 1124 q 601 1169 556 1124 q 646 1294 646 1215 l 703 1294 q 676 1174 703 1225 q 599 1096 649 1124 q 482 1068 550 1068 z "},"Ě":{"ha":903,"x_min":129,"x_max":808,"o":"m 129 0 l 129 969 l 803 969 l 803 907 l 194 907 l 194 535 l 635 535 l 635 472 l 194 472 l 194 63 l 808 63 l 808 0 l 129 0 m 275 1294 l 346 1294 l 485 1113 l 624 1294 l 693 1294 l 521 1068 l 447 1068 l 275 1294 z "},"Ê":{"ha":903,"x_min":129,"x_max":808,"o":"m 129 0 l 129 969 l 803 969 l 803 907 l 194 907 l 194 535 l 635 535 l 635 472 l 194 472 l 194 63 l 808 63 l 808 0 l 129 0 m 274 1068 l 446 1294 l 519 1294 l 692 1068 l 622 1068 l 483 1250 l 344 1068 l 274 1068 z "},"Ë":{"ha":903,"x_min":129,"x_max":808,"o":"m 129 0 l 129 969 l 803 969 l 803 907 l 194 907 l 194 535 l 635 535 l 635 472 l 194 472 l 194 63 l 808 63 l 808 0 l 129 0 m 549 1131 l 549 1231 l 626 1231 l 626 1131 l 549 1131 m 340 1131 l 340 1231 l 418 1231 l 418 1131 l 340 1131 z "},"Ė":{"ha":903,"x_min":129,"x_max":808,"o":"m 129 0 l 129 969 l 803 969 l 803 907 l 194 907 l 194 535 l 635 535 l 635 472 l 194 472 l 194 63 l 808 63 l 808 0 l 129 0 m 442 1128 l 442 1228 l 525 1228 l 525 1128 l 442 1128 z "},"È":{"ha":903,"x_min":129,"x_max":808,"o":"m 129 0 l 129 969 l 803 969 l 803 907 l 194 907 l 194 535 l 635 535 l 635 472 l 194 472 l 194 63 l 808 63 l 808 0 l 129 0 m 544 1069 l 485 1069 l 344 1296 l 424 1296 l 544 1069 z "},"Ē":{"ha":903,"x_min":129,"x_max":808,"o":"m 129 0 l 129 969 l 803 969 l 803 907 l 194 907 l 194 535 l 635 535 l 635 472 l 194 472 l 194 63 l 808 63 l 808 0 l 129 0 m 297 1140 l 297 1199 l 669 1199 l 669 1140 l 297 1140 z "},"Ę":{"ha":903,"x_min":129,"x_max":808,"o":"m 129 0 l 129 969 l 803 969 l 803 907 l 194 907 l 194 535 l 635 535 l 635 472 l 194 472 l 194 63 l 808 63 l 808 0 l 129 0 m 806 -281 q 785 -285 794 -283 q 760 -287 775 -287 q 674 -258 706 -287 q 643 -179 643 -229 q 658 -109 643 -146 q 703 -37 674 -72 q 775 25 733 -1 l 808 0 q 724 -83 753 -36 q 696 -171 696 -131 q 715 -220 696 -201 q 768 -239 735 -239 q 789 -237 781 -239 q 806 -233 797 -235 l 806 -281 z "},"F":{"ha":903,"x_min":125,"x_max":799,"o":"m 125 0 l 125 969 l 799 969 l 799 907 l 190 907 l 190 535 l 631 535 l 631 472 l 190 472 l 190 0 l 125 0 z "},"G":{"ha":903,"x_min":58,"x_max":829,"o":"m 488 -17 q 263 45 360 -17 q 112 219 165 107 q 58 485 58 332 q 113 746 58 633 q 263 922 168 858 q 481 986 358 986 q 653 947 579 986 q 773 838 728 908 q 829 669 818 767 l 754 669 q 665 856 739 789 q 479 924 592 924 q 304 869 383 924 q 178 717 225 815 q 132 485 132 619 q 180 244 132 342 q 308 96 228 146 q 488 46 389 46 q 651 83 578 46 q 763 169 724 119 l 763 444 l 553 440 l 556 503 l 829 503 l 829 147 q 683 26 776 69 q 488 -17 590 -17 z "},"Ğ":{"ha":903,"x_min":58,"x_max":829,"o":"m 488 -17 q 263 45 360 -17 q 112 219 165 107 q 58 485 58 332 q 113 746 58 633 q 263 922 168 858 q 481 986 358 986 q 653 947 579 986 q 773 838 728 908 q 829 669 818 767 l 754 669 q 665 856 739 789 q 479 924 592 924 q 304 869 383 924 q 178 717 225 815 q 132 485 132 619 q 180 244 132 342 q 308 96 228 146 q 488 46 389 46 q 651 83 578 46 q 763 169 724 119 l 763 444 l 553 440 l 556 503 l 829 503 l 829 147 q 683 26 776 69 q 488 -17 590 -17 m 474 1067 q 358 1094 407 1067 q 281 1173 308 1122 q 254 1293 254 1224 l 311 1293 q 356 1168 311 1214 q 474 1122 401 1122 q 592 1168 547 1122 q 638 1293 638 1214 l 694 1293 q 667 1173 694 1224 q 591 1094 640 1122 q 474 1067 542 1067 z "},"Ĝ":{"ha":903,"x_min":58,"x_max":829,"o":"m 488 -17 q 263 45 360 -17 q 112 219 165 107 q 58 485 58 332 q 113 746 58 633 q 263 922 168 858 q 481 986 358 986 q 653 947 579 986 q 773 838 728 908 q 829 669 818 767 l 754 669 q 665 856 739 789 q 479 924 592 924 q 304 869 383 924 q 178 717 225 815 q 132 485 132 619 q 180 244 132 342 q 308 96 228 146 q 488 46 389 46 q 651 83 578 46 q 763 169 724 119 l 763 444 l 553 440 l 556 503 l 829 503 l 829 147 q 683 26 776 69 q 488 -17 590 -17 m 265 1067 l 438 1293 l 511 1293 l 683 1067 l 614 1067 l 475 1249 l 336 1067 l 265 1067 z "},"Ģ":{"ha":903,"x_min":58,"x_max":829,"o":"m 488 -17 q 263 45 360 -17 q 112 219 165 107 q 58 485 58 332 q 113 746 58 633 q 263 922 168 858 q 481 986 358 986 q 653 947 579 986 q 773 838 728 908 q 829 669 818 767 l 754 669 q 665 856 739 789 q 479 924 592 924 q 304 869 383 924 q 178 717 225 815 q 132 485 132 619 q 180 244 132 342 q 308 96 228 146 q 488 46 389 46 q 651 83 578 46 q 763 169 724 119 l 763 444 l 553 440 l 556 503 l 829 503 l 829 147 q 683 26 776 69 q 488 -17 590 -17 m 453 -281 l 453 -67 l 525 -67 l 496 -281 l 453 -281 z "},"Ġ":{"ha":903,"x_min":58,"x_max":829,"o":"m 488 -17 q 263 45 360 -17 q 112 219 165 107 q 58 485 58 332 q 113 746 58 633 q 263 922 168 858 q 481 986 358 986 q 653 947 579 986 q 773 838 728 908 q 829 669 818 767 l 754 669 q 665 856 739 789 q 479 924 592 924 q 304 869 383 924 q 178 717 225 815 q 132 485 132 619 q 180 244 132 342 q 308 96 228 146 q 488 46 389 46 q 651 83 578 46 q 763 169 724 119 l 763 444 l 553 440 l 556 503 l 829 503 l 829 147 q 683 26 776 69 q 488 -17 590 -17 m 433 1126 l 433 1226 l 517 1226 l 517 1126 l 433 1126 z "},"H":{"ha":903,"x_min":122,"x_max":781,"o":"m 715 0 l 715 969 l 781 969 l 781 0 l 715 0 m 122 0 l 122 969 l 188 969 l 188 0 l 122 0 m 171 472 l 171 535 l 732 535 l 732 472 l 171 472 z "},"Ħ":{"ha":903,"x_min":-65,"x_max":967,"o":"m 715 0 l 715 969 l 781 969 l 781 0 l 715 0 m 122 0 l 122 969 l 188 969 l 188 0 l 122 0 m 171 472 l 171 535 l 732 535 l 732 472 l 171 472 m -65 721 l -65 774 l 967 774 l 967 721 l -65 721 z "},"Ĥ":{"ha":903,"x_min":122,"x_max":781,"o":"m 715 0 l 715 969 l 781 969 l 781 0 l 715 0 m 122 0 l 122 969 l 188 969 l 188 0 l 122 0 m 171 472 l 171 535 l 732 535 l 732 472 l 171 472 m 242 1068 l 414 1294 l 488 1294 l 660 1068 l 590 1068 l 451 1250 l 313 1068 l 242 1068 z "},"I":{"ha":903,"x_min":156,"x_max":746,"o":"m 418 0 l 418 969 l 483 969 l 483 0 l 418 0 m 156 969 l 746 969 l 746 907 l 156 907 l 156 969 m 156 63 l 746 63 l 746 0 l 156 0 l 156 63 z "},"Ĳ":{"ha":1806,"x_min":156,"x_max":1633,"o":"m 418 0 l 418 969 l 483 969 l 483 0 l 418 0 m 156 969 l 746 969 l 746 907 l 156 907 l 156 969 m 156 63 l 746 63 l 746 0 l 156 0 l 156 63 m 1057 0 l 1057 63 l 1411 63 q 1527 107 1486 63 q 1568 226 1568 151 l 1568 969 l 1633 969 l 1633 226 q 1618 133 1633 175 q 1574 62 1603 92 q 1504 16 1546 32 q 1408 0 1463 0 l 1057 0 m 1156 969 l 1632 969 l 1632 907 l 1156 907 l 1156 969 z "},"Í":{"ha":903,"x_min":156,"x_max":746,"o":"m 418 0 l 418 969 l 483 969 l 483 0 l 418 0 m 156 969 l 746 969 l 746 907 l 156 907 l 156 969 m 156 63 l 746 63 l 746 0 l 156 0 l 156 63 m 392 1068 l 513 1294 l 592 1294 l 451 1068 l 392 1068 z "},"Ĭ":{"ha":903,"x_min":156,"x_max":746,"o":"m 418 0 l 418 969 l 483 969 l 483 0 l 418 0 m 156 969 l 746 969 l 746 907 l 156 907 l 156 969 m 156 63 l 746 63 l 746 0 l 156 0 l 156 63 m 449 1068 q 333 1096 382 1068 q 256 1174 283 1124 q 229 1294 229 1225 l 286 1294 q 331 1169 286 1215 q 449 1124 376 1124 q 567 1169 522 1124 q 613 1294 613 1215 l 669 1294 q 642 1174 669 1225 q 566 1096 615 1124 q 449 1068 517 1068 z "},"Î":{"ha":903,"x_min":156,"x_max":746,"o":"m 418 0 l 418 969 l 483 969 l 483 0 l 418 0 m 156 969 l 746 969 l 746 907 l 156 907 l 156 969 m 156 63 l 746 63 l 746 0 l 156 0 l 156 63 m 240 1068 l 413 1294 l 486 1294 l 658 1068 l 589 1068 l 450 1250 l 311 1068 l 240 1068 z "},"Ï":{"ha":903,"x_min":156,"x_max":746,"o":"m 418 0 l 418 969 l 483 969 l 483 0 l 418 0 m 156 969 l 746 969 l 746 907 l 156 907 l 156 969 m 156 63 l 746 63 l 746 0 l 156 0 l 156 63 m 515 1131 l 515 1231 l 593 1231 l 593 1131 l 515 1131 m 307 1131 l 307 1231 l 385 1231 l 385 1131 l 307 1131 z "},"İ":{"ha":903,"x_min":156,"x_max":746,"o":"m 418 0 l 418 969 l 483 969 l 483 0 l 418 0 m 156 969 l 746 969 l 746 907 l 156 907 l 156 969 m 156 63 l 746 63 l 746 0 l 156 0 l 156 63 m 408 1128 l 408 1228 l 492 1228 l 492 1128 l 408 1128 z "},"Ì":{"ha":903,"x_min":156,"x_max":746,"o":"m 418 0 l 418 969 l 483 969 l 483 0 l 418 0 m 156 969 l 746 969 l 746 907 l 156 907 l 156 969 m 156 63 l 746 63 l 746 0 l 156 0 l 156 63 m 511 1069 l 451 1069 l 311 1296 l 390 1296 l 511 1069 z "},"Ī":{"ha":903,"x_min":156,"x_max":746,"o":"m 418 0 l 418 969 l 483 969 l 483 0 l 418 0 m 156 969 l 746 969 l 746 907 l 156 907 l 156 969 m 156 63 l 746 63 l 746 0 l 156 0 l 156 63 m 264 1140 l 264 1199 l 636 1199 l 636 1140 l 264 1140 z "},"Į":{"ha":903,"x_min":156,"x_max":746,"o":"m 418 0 l 418 969 l 483 969 l 483 0 l 418 0 m 156 969 l 746 969 l 746 907 l 156 907 l 156 969 m 156 63 l 746 63 l 746 0 l 156 0 l 156 63 m 475 -281 q 454 -285 464 -283 q 429 -287 444 -287 q 344 -258 375 -287 q 313 -179 313 -229 q 328 -109 313 -146 q 373 -37 343 -72 q 444 25 403 -1 l 478 0 q 394 -83 422 -36 q 365 -171 365 -131 q 385 -220 365 -201 q 438 -239 404 -239 q 458 -237 450 -239 q 475 -233 467 -235 l 475 -281 z "},"Ĩ":{"ha":903,"x_min":156,"x_max":746,"o":"m 418 0 l 418 969 l 483 969 l 483 0 l 418 0 m 156 969 l 746 969 l 746 907 l 156 907 l 156 969 m 156 63 l 746 63 l 746 0 l 156 0 l 156 63 m 268 1113 l 210 1121 q 262 1221 225 1186 q 346 1256 299 1256 q 399 1243 371 1256 q 457 1215 428 1231 q 511 1186 486 1199 q 553 1174 536 1174 q 601 1197 579 1174 q 631 1258 622 1221 l 689 1250 q 635 1150 671 1185 q 553 1115 599 1115 q 480 1136 518 1115 q 406 1177 442 1157 q 346 1197 371 1197 q 297 1174 319 1197 q 268 1113 275 1150 z "},"J":{"ha":903,"x_min":154,"x_max":731,"o":"m 154 0 l 154 63 l 508 63 q 624 107 583 63 q 665 226 665 151 l 665 969 l 731 969 l 731 226 q 715 133 731 175 q 672 62 700 92 q 601 16 643 32 q 506 0 560 0 l 154 0 m 253 969 l 729 969 l 729 907 l 253 907 l 253 969 z "},"Ĵ":{"ha":903,"x_min":154,"x_max":731,"o":"m 154 0 l 154 63 l 508 63 q 624 107 583 63 q 665 226 665 151 l 665 969 l 731 969 l 731 226 q 715 133 731 175 q 672 62 700 92 q 601 16 643 32 q 506 0 560 0 l 154 0 m 253 969 l 729 969 l 729 907 l 253 907 l 253 969 m 294 1068 l 467 1294 l 540 1294 l 713 1068 l 643 1068 l 504 1250 l 365 1068 l 294 1068 z "},"K":{"ha":903,"x_min":153,"x_max":849,"o":"m 153 0 l 153 969 l 218 969 l 218 672 l 218 482 l 354 617 l 713 969 l 807 969 l 218 392 l 218 0 l 153 0 m 763 0 l 328 563 l 379 606 l 849 0 l 763 0 z "},"Ķ":{"ha":903,"x_min":153,"x_max":849,"o":"m 153 0 l 153 969 l 218 969 l 218 672 l 218 482 l 354 617 l 713 969 l 807 969 l 218 392 l 218 0 l 153 0 m 763 0 l 328 563 l 379 606 l 849 0 l 763 0 m 435 -281 l 435 -67 l 507 -67 l 478 -281 l 435 -281 z "},"L":{"ha":903,"x_min":190,"x_max":801,"o":"m 190 0 l 190 969 l 256 969 l 256 63 l 801 63 l 801 0 l 190 0 z "},"Ĺ":{"ha":903,"x_min":171,"x_max":801,"o":"m 190 0 l 190 969 l 256 969 l 256 63 l 801 63 l 801 0 l 190 0 m 171 1068 l 292 1294 l 371 1294 l 231 1068 l 171 1068 z "},"Ľ":{"ha":903,"x_min":190,"x_max":801,"o":"m 190 0 l 190 969 l 256 969 l 256 63 l 801 63 l 801 0 l 190 0 m 371 688 l 389 969 l 460 969 l 421 688 l 371 688 z "},"Ļ":{"ha":903,"x_min":190,"x_max":801,"o":"m 190 0 l 190 969 l 256 969 l 256 63 l 801 63 l 801 0 l 190 0 m 436 -281 l 436 -67 l 508 -67 l 479 -281 l 436 -281 z "},"Ŀ":{"ha":903,"x_min":190,"x_max":801,"o":"m 190 0 l 190 969 l 256 969 l 256 63 l 801 63 l 801 0 l 190 0 m 628 451 l 628 554 l 722 554 l 722 451 l 628 451 z "},"Ł":{"ha":903,"x_min":39,"x_max":801,"o":"m 39 403 l 39 461 l 478 615 l 478 557 l 39 403 m 190 0 l 190 969 l 256 969 l 256 63 l 801 63 l 801 0 l 190 0 z "},"M":{"ha":903,"x_min":50,"x_max":856,"o":"m 50 0 l 129 969 l 225 969 l 418 226 l 450 100 l 482 226 l 683 969 l 775 969 l 856 0 l 790 0 l 729 733 l 719 892 l 681 733 l 486 0 l 411 0 l 221 733 l 186 896 l 174 733 l 114 0 l 50 0 z "},"N":{"ha":903,"x_min":115,"x_max":789,"o":"m 115 0 l 115 969 l 190 969 l 728 100 l 721 346 l 721 969 l 789 969 l 789 0 l 715 0 l 176 865 l 183 625 l 183 0 l 115 0 z "},"Ń":{"ha":903,"x_min":115,"x_max":789,"o":"m 115 0 l 115 969 l 190 969 l 728 100 l 721 346 l 721 969 l 789 969 l 789 0 l 715 0 l 176 865 l 183 625 l 183 0 l 115 0 m 394 1068 l 515 1294 l 594 1294 l 454 1068 l 394 1068 z "},"Ň":{"ha":903,"x_min":115,"x_max":789,"o":"m 115 0 l 115 969 l 190 969 l 728 100 l 721 346 l 721 969 l 789 969 l 789 0 l 715 0 l 176 865 l 183 625 l 183 0 l 115 0 m 244 1294 l 315 1294 l 454 1113 l 593 1294 l 663 1294 l 490 1068 l 417 1068 l 244 1294 z "},"Ņ":{"ha":903,"x_min":115,"x_max":789,"o":"m 115 0 l 115 969 l 190 969 l 728 100 l 721 346 l 721 969 l 789 969 l 789 0 l 715 0 l 176 865 l 183 625 l 183 0 l 115 0 m 417 -281 l 417 -67 l 489 -67 l 460 -281 l 417 -281 z "},"Ñ":{"ha":903,"x_min":115,"x_max":789,"o":"m 115 0 l 115 969 l 190 969 l 728 100 l 721 346 l 721 969 l 789 969 l 789 0 l 715 0 l 176 865 l 183 625 l 183 0 l 115 0 m 271 1113 l 213 1121 q 265 1221 228 1186 q 349 1256 301 1256 q 402 1243 374 1256 q 460 1215 431 1231 q 514 1186 489 1199 q 556 1174 539 1174 q 603 1197 582 1174 q 633 1258 625 1221 l 692 1250 q 638 1150 674 1185 q 556 1115 601 1115 q 483 1136 521 1115 q 409 1177 444 1157 q 349 1197 374 1197 q 300 1174 322 1197 q 271 1113 278 1150 z "},"Ŋ":{"ha":903,"x_min":115,"x_max":789,"o":"m 732 -28 l 176 871 l 183 625 l 183 0 l 115 0 l 115 969 l 190 969 l 728 96 l 721 346 l 721 969 l 789 969 l 789 0 l 732 -28 m 519 -247 l 519 -194 l 600 -194 q 692 -165 658 -194 q 725 -58 725 -135 l 725 53 l 789 53 l 789 -50 q 771 -156 789 -111 q 711 -224 753 -200 q 599 -247 669 -247 l 519 -247 z "},"O":{"ha":903,"x_min":64,"x_max":842,"o":"m 453 -17 q 246 46 333 -17 q 111 222 158 108 q 64 485 64 335 q 111 748 64 635 q 246 924 158 861 q 453 986 333 986 q 660 924 572 986 q 794 748 747 861 q 842 485 842 635 q 794 222 842 335 q 660 46 747 108 q 453 -17 572 -17 m 453 46 q 622 101 550 46 q 732 255 693 156 q 771 485 771 354 q 732 714 771 615 q 622 868 693 813 q 453 924 550 924 q 284 868 356 924 q 174 714 213 813 q 135 485 135 615 q 174 255 135 354 q 284 101 213 156 q 453 46 356 46 z "},"Ó":{"ha":903,"x_min":64,"x_max":842,"o":"m 453 -17 q 246 46 333 -17 q 111 222 158 108 q 64 485 64 335 q 111 748 64 635 q 246 924 158 861 q 453 986 333 986 q 660 924 572 986 q 794 748 747 861 q 842 485 842 635 q 794 222 842 335 q 660 46 747 108 q 453 -17 572 -17 m 453 46 q 622 101 550 46 q 732 255 693 156 q 771 485 771 354 q 732 714 771 615 q 622 868 693 813 q 453 924 550 924 q 284 868 356 924 q 174 714 213 813 q 135 485 135 615 q 174 255 135 354 q 284 101 213 156 q 453 46 356 46 m 394 1069 l 515 1296 l 594 1296 l 454 1069 l 394 1069 z "},"Ŏ":{"ha":903,"x_min":64,"x_max":842,"o":"m 453 -17 q 246 46 333 -17 q 111 222 158 108 q 64 485 64 335 q 111 748 64 635 q 246 924 158 861 q 453 986 333 986 q 660 924 572 986 q 794 748 747 861 q 842 485 842 635 q 794 222 842 335 q 660 46 747 108 q 453 -17 572 -17 m 453 46 q 622 101 550 46 q 732 255 693 156 q 771 485 771 354 q 732 714 771 615 q 622 868 693 813 q 453 924 550 924 q 284 868 356 924 q 174 714 213 813 q 135 485 135 615 q 174 255 135 354 q 284 101 213 156 q 453 46 356 46 m 451 1069 q 335 1097 385 1069 q 259 1176 286 1125 q 232 1296 232 1226 l 289 1296 q 334 1171 289 1217 q 451 1125 379 1125 q 570 1171 525 1125 q 615 1296 615 1217 l 672 1296 q 645 1176 672 1226 q 569 1097 618 1125 q 451 1069 519 1069 z "},"Ô":{"ha":903,"x_min":64,"x_max":842,"o":"m 453 -17 q 246 46 333 -17 q 111 222 158 108 q 64 485 64 335 q 111 748 64 635 q 246 924 158 861 q 453 986 333 986 q 660 924 572 986 q 794 748 747 861 q 842 485 842 635 q 794 222 842 335 q 660 46 747 108 q 453 -17 572 -17 m 453 46 q 622 101 550 46 q 732 255 693 156 q 771 485 771 354 q 732 714 771 615 q 622 868 693 813 q 453 924 550 924 q 284 868 356 924 q 174 714 213 813 q 135 485 135 615 q 174 255 135 354 q 284 101 213 156 q 453 46 356 46 m 243 1069 l 415 1296 l 489 1296 l 661 1069 l 592 1069 l 453 1251 l 314 1069 l 243 1069 z "},"Ö":{"ha":903,"x_min":64,"x_max":842,"o":"m 453 -17 q 246 46 333 -17 q 111 222 158 108 q 64 485 64 335 q 111 748 64 635 q 246 924 158 861 q 453 986 333 986 q 660 924 572 986 q 794 748 747 861 q 842 485 842 635 q 794 222 842 335 q 660 46 747 108 q 453 -17 572 -17 m 453 46 q 622 101 550 46 q 732 255 693 156 q 771 485 771 354 q 732 714 771 615 q 622 868 693 813 q 453 924 550 924 q 284 868 356 924 q 174 714 213 813 q 135 485 135 615 q 174 255 135 354 q 284 101 213 156 q 453 46 356 46 m 518 1132 l 518 1232 l 596 1232 l 596 1132 l 518 1132 m 310 1132 l 310 1232 l 388 1232 l 388 1132 l 310 1132 z "},"Ò":{"ha":903,"x_min":64,"x_max":842,"o":"m 453 -17 q 246 46 333 -17 q 111 222 158 108 q 64 485 64 335 q 111 748 64 635 q 246 924 158 861 q 453 986 333 986 q 660 924 572 986 q 794 748 747 861 q 842 485 842 635 q 794 222 842 335 q 660 46 747 108 q 453 -17 572 -17 m 453 46 q 622 101 550 46 q 732 255 693 156 q 771 485 771 354 q 732 714 771 615 q 622 868 693 813 q 453 924 550 924 q 284 868 356 924 q 174 714 213 813 q 135 485 135 615 q 174 255 135 354 q 284 101 213 156 q 453 46 356 46 m 514 1071 l 454 1071 l 314 1297 l 393 1297 l 514 1071 z "},"Ő":{"ha":903,"x_min":64,"x_max":842,"o":"m 453 -17 q 246 46 333 -17 q 111 222 158 108 q 64 485 64 335 q 111 748 64 635 q 246 924 158 861 q 453 986 333 986 q 660 924 572 986 q 794 748 747 861 q 842 485 842 635 q 794 222 842 335 q 660 46 747 108 q 453 -17 572 -17 m 453 46 q 622 101 550 46 q 732 255 693 156 q 771 485 771 354 q 732 714 771 615 q 622 868 693 813 q 453 924 550 924 q 284 868 356 924 q 174 714 213 813 q 135 485 135 615 q 174 255 135 354 q 284 101 213 156 q 453 46 356 46 m 326 1069 l 447 1296 l 526 1296 l 386 1069 l 326 1069 m 499 1069 l 619 1296 l 699 1296 l 558 1069 l 499 1069 z "},"Ō":{"ha":903,"x_min":64,"x_max":842,"o":"m 453 -17 q 246 46 333 -17 q 111 222 158 108 q 64 485 64 335 q 111 748 64 635 q 246 924 158 861 q 453 986 333 986 q 660 924 572 986 q 794 748 747 861 q 842 485 842 635 q 794 222 842 335 q 660 46 747 108 q 453 -17 572 -17 m 453 46 q 622 101 550 46 q 732 255 693 156 q 771 485 771 354 q 732 714 771 615 q 622 868 693 813 q 453 924 550 924 q 284 868 356 924 q 174 714 213 813 q 135 485 135 615 q 174 255 135 354 q 284 101 213 156 q 453 46 356 46 m 267 1142 l 267 1200 l 639 1200 l 639 1142 l 267 1142 z "},"Ø":{"ha":903,"x_min":50,"x_max":856,"o":"m 453 -17 q 245 48 336 -17 q 102 226 154 113 q 50 485 50 339 q 102 744 50 632 q 245 922 154 857 q 453 986 336 986 q 660 922 569 986 q 803 744 751 857 q 856 485 856 631 q 803 227 856 340 q 660 49 751 114 q 453 -17 569 -17 m 453 46 q 623 103 549 46 q 740 260 697 161 q 783 485 783 360 q 740 711 783 613 q 623 867 697 810 q 453 924 549 924 q 283 867 358 924 q 165 713 208 811 q 122 485 122 614 q 165 259 122 358 q 283 103 208 160 q 453 46 358 46 m 225 -65 l 165 -39 l 681 1035 l 740 1008 l 225 -65 z "},"Ǿ":{"ha":903,"x_min":50,"x_max":856,"o":"m 453 -17 q 245 48 336 -17 q 102 226 154 113 q 50 485 50 339 q 102 744 50 632 q 245 922 154 857 q 453 986 336 986 q 660 922 569 986 q 803 744 751 857 q 856 485 856 631 q 803 227 856 340 q 660 49 751 114 q 453 -17 569 -17 m 453 46 q 623 103 549 46 q 740 260 697 161 q 783 485 783 360 q 740 711 783 613 q 623 867 697 810 q 453 924 549 924 q 283 867 358 924 q 165 713 208 811 q 122 485 122 614 q 165 259 122 358 q 283 103 208 160 q 453 46 358 46 m 225 -65 l 165 -39 l 681 1035 l 740 1008 l 225 -65 m 394 1067 l 515 1293 l 594 1293 l 454 1067 l 394 1067 z "},"Õ":{"ha":903,"x_min":64,"x_max":842,"o":"m 453 -17 q 246 46 333 -17 q 111 222 158 108 q 64 485 64 335 q 111 748 64 635 q 246 924 158 861 q 453 986 333 986 q 660 924 572 986 q 794 748 747 861 q 842 485 842 635 q 794 222 842 335 q 660 46 747 108 q 453 -17 572 -17 m 453 46 q 622 101 550 46 q 732 255 693 156 q 771 485 771 354 q 732 714 771 615 q 622 868 693 813 q 453 924 550 924 q 284 868 356 924 q 174 714 213 813 q 135 485 135 615 q 174 255 135 354 q 284 101 213 156 q 453 46 356 46 m 271 1114 l 213 1122 q 265 1222 228 1188 q 349 1257 301 1257 q 402 1244 374 1257 q 460 1216 431 1232 q 514 1188 489 1200 q 556 1175 539 1175 q 603 1199 582 1175 q 633 1260 625 1222 l 692 1251 q 638 1151 674 1186 q 556 1117 601 1117 q 483 1138 521 1117 q 409 1178 444 1158 q 349 1199 374 1199 q 300 1175 322 1199 q 271 1114 278 1151 z "},"Œ":{"ha":903,"x_min":31,"x_max":878,"o":"m 514 472 l 514 63 l 878 63 l 878 0 l 438 0 q 281 34 354 0 q 151 133 207 68 q 63 287 94 197 q 31 488 31 376 q 63 686 31 597 q 151 838 94 775 q 281 935 207 901 q 438 969 354 969 l 872 969 l 872 907 l 514 907 l 514 535 l 774 535 l 774 472 l 514 472 m 438 63 l 449 63 l 449 907 l 438 907 q 272 855 349 907 q 149 709 196 803 q 103 488 103 615 q 149 264 103 360 q 272 115 196 168 q 438 63 349 63 z "},"P":{"ha":903,"x_min":142,"x_max":813,"o":"m 189 404 l 189 467 l 474 467 q 667 528 593 467 q 740 689 740 589 q 674 847 740 788 q 500 907 608 907 l 189 907 l 189 969 l 500 969 q 665 935 594 969 q 774 838 735 900 q 813 689 813 775 q 770 540 813 604 q 651 440 728 475 q 474 404 575 404 l 189 404 m 142 0 l 142 969 l 207 969 l 207 0 l 142 0 z "},"Þ":{"ha":903,"x_min":151,"x_max":824,"o":"m 200 208 l 200 271 l 485 271 q 678 332 604 271 q 751 492 751 393 q 685 652 751 592 q 511 713 619 713 l 200 713 l 200 775 l 511 775 q 676 740 606 775 q 785 642 746 706 q 824 492 824 578 q 781 343 824 407 q 663 244 739 279 q 485 208 586 208 l 200 208 m 151 0 l 151 971 l 218 971 l 218 0 l 151 0 z "},"Q":{"ha":903,"x_min":50,"x_max":888,"o":"m 456 -17 q 244 49 336 -17 q 101 229 153 115 q 50 485 50 343 q 103 744 50 631 q 247 922 156 857 q 456 986 339 986 q 665 922 574 986 q 808 744 756 857 q 861 485 861 632 q 829 276 861 369 q 741 117 797 182 q 610 21 685 51 l 729 33 l 888 43 l 844 -17 l 456 -17 m 456 46 q 626 103 551 46 q 745 259 701 160 q 789 485 789 358 q 745 712 789 613 q 626 867 701 811 q 456 924 551 924 q 285 867 361 924 q 166 713 210 811 q 122 485 122 614 q 166 259 122 358 q 285 103 210 160 q 456 46 361 46 z "},"R":{"ha":903,"x_min":149,"x_max":818,"o":"m 194 449 l 194 510 l 468 510 q 611 535 549 510 q 710 607 674 560 q 746 718 746 654 q 715 819 746 778 q 631 884 683 861 q 514 907 578 907 l 194 907 l 194 969 l 514 969 q 669 940 600 969 q 778 853 738 910 q 818 718 818 797 q 794 615 818 664 q 726 529 771 567 q 616 470 681 492 q 468 449 551 449 l 194 449 m 149 0 l 149 969 l 214 969 l 214 0 l 149 0 m 735 0 q 687 133 718 69 q 606 256 656 197 q 485 369 557 315 q 315 472 413 422 l 389 493 q 565 385 493 442 q 685 268 638 329 q 760 140 733 207 q 799 0 786 74 l 735 0 z "},"Ŕ":{"ha":903,"x_min":149,"x_max":818,"o":"m 194 449 l 194 510 l 468 510 q 611 535 549 510 q 710 607 674 560 q 746 718 746 654 q 715 819 746 778 q 631 884 683 861 q 514 907 578 907 l 194 907 l 194 969 l 514 969 q 669 940 600 969 q 778 853 738 910 q 818 718 818 797 q 794 615 818 664 q 726 529 771 567 q 616 470 681 492 q 468 449 551 449 l 194 449 m 149 0 l 149 969 l 214 969 l 214 0 l 149 0 m 735 0 q 687 133 718 69 q 606 256 656 197 q 485 369 557 315 q 315 472 413 422 l 389 493 q 565 385 493 442 q 685 268 638 329 q 760 140 733 207 q 799 0 786 74 l 735 0 m 372 1067 l 493 1293 l 572 1293 l 432 1067 l 372 1067 z "},"Ř":{"ha":903,"x_min":149,"x_max":818,"o":"m 194 449 l 194 510 l 468 510 q 611 535 549 510 q 710 607 674 560 q 746 718 746 654 q 715 819 746 778 q 631 884 683 861 q 514 907 578 907 l 194 907 l 194 969 l 514 969 q 669 940 600 969 q 778 853 738 910 q 818 718 818 797 q 794 615 818 664 q 726 529 771 567 q 616 470 681 492 q 468 449 551 449 l 194 449 m 149 0 l 149 969 l 214 969 l 214 0 l 149 0 m 735 0 q 687 133 718 69 q 606 256 656 197 q 485 369 557 315 q 315 472 413 422 l 389 493 q 565 385 493 442 q 685 268 638 329 q 760 140 733 207 q 799 0 786 74 l 735 0 m 222 1293 l 293 1293 l 432 1111 l 571 1293 l 640 1293 l 468 1067 l 394 1067 l 222 1293 z "},"Ŗ":{"ha":903,"x_min":149,"x_max":818,"o":"m 194 449 l 194 510 l 468 510 q 611 535 549 510 q 710 607 674 560 q 746 718 746 654 q 715 819 746 778 q 631 884 683 861 q 514 907 578 907 l 194 907 l 194 969 l 514 969 q 669 940 600 969 q 778 853 738 910 q 818 718 818 797 q 794 615 818 664 q 726 529 771 567 q 616 470 681 492 q 468 449 551 449 l 194 449 m 149 0 l 149 969 l 214 969 l 214 0 l 149 0 m 735 0 q 687 133 718 69 q 606 256 656 197 q 485 369 557 315 q 315 472 413 422 l 389 493 q 565 385 493 442 q 685 268 638 329 q 760 140 733 207 q 799 0 786 74 l 735 0 m 439 -281 l 439 -67 l 511 -67 l 482 -281 l 439 -281 z "},"S":{"ha":903,"x_min":113,"x_max":800,"o":"m 472 -17 q 285 24 367 -17 q 158 143 204 64 q 113 339 113 222 l 179 339 q 260 122 179 199 q 471 46 340 46 q 656 100 585 46 q 728 251 728 154 q 695 355 728 315 q 609 418 663 394 q 492 459 556 442 q 365 494 429 476 q 248 540 301 513 q 162 612 194 567 q 129 728 129 657 q 168 864 129 806 q 278 954 207 922 q 447 986 350 986 q 622 951 547 986 q 738 853 696 915 q 782 706 781 790 l 715 706 q 681 819 715 769 q 585 896 646 868 q 447 924 525 924 q 268 870 335 924 q 201 729 201 817 q 234 638 201 672 q 320 581 267 603 q 438 543 374 560 q 565 508 501 526 q 681 459 628 489 q 767 380 735 429 q 800 254 800 331 q 756 106 800 167 q 638 15 713 46 q 472 -17 564 -17 z "},"Ś":{"ha":903,"x_min":113,"x_max":800,"o":"m 472 -17 q 285 24 367 -17 q 158 143 204 64 q 113 339 113 222 l 179 339 q 260 122 179 199 q 471 46 340 46 q 656 100 585 46 q 728 251 728 154 q 695 355 728 315 q 609 418 663 394 q 492 459 556 442 q 365 494 429 476 q 248 540 301 513 q 162 612 194 567 q 129 728 129 657 q 168 864 129 806 q 278 954 207 922 q 447 986 350 986 q 622 951 547 986 q 738 853 696 915 q 782 706 781 790 l 715 706 q 681 819 715 769 q 585 896 646 868 q 447 924 525 924 q 268 870 335 924 q 201 729 201 817 q 234 638 201 672 q 320 581 267 603 q 438 543 374 560 q 565 508 501 526 q 681 459 628 489 q 767 380 735 429 q 800 254 800 331 q 756 106 800 167 q 638 15 713 46 q 472 -17 564 -17 m 411 1068 l 532 1294 l 611 1294 l 471 1068 l 411 1068 z "},"Š":{"ha":903,"x_min":113,"x_max":800,"o":"m 472 -17 q 285 24 367 -17 q 158 143 204 64 q 113 339 113 222 l 179 339 q 260 122 179 199 q 471 46 340 46 q 656 100 585 46 q 728 251 728 154 q 695 355 728 315 q 609 418 663 394 q 492 459 556 442 q 365 494 429 476 q 248 540 301 513 q 162 612 194 567 q 129 728 129 657 q 168 864 129 806 q 278 954 207 922 q 447 986 350 986 q 622 951 547 986 q 738 853 696 915 q 782 706 781 790 l 715 706 q 681 819 715 769 q 585 896 646 868 q 447 924 525 924 q 268 870 335 924 q 201 729 201 817 q 234 638 201 672 q 320 581 267 603 q 438 543 374 560 q 565 508 501 526 q 681 459 628 489 q 767 380 735 429 q 800 254 800 331 q 756 106 800 167 q 638 15 713 46 q 472 -17 564 -17 m 261 1294 l 332 1294 l 471 1113 l 610 1294 l 679 1294 l 507 1068 l 433 1068 l 261 1294 z "},"Ş":{"ha":903,"x_min":113,"x_max":800,"o":"m 472 -17 q 285 24 367 -17 q 158 143 204 64 q 113 339 113 222 l 179 339 q 260 122 179 199 q 471 46 340 46 q 656 100 585 46 q 728 251 728 154 q 695 355 728 315 q 609 418 663 394 q 492 459 556 442 q 365 494 429 476 q 248 540 301 513 q 162 612 194 567 q 129 728 129 657 q 168 864 129 806 q 278 954 207 922 q 447 986 350 986 q 622 951 547 986 q 738 853 696 915 q 782 706 781 790 l 715 706 q 681 819 715 769 q 585 896 646 868 q 447 924 525 924 q 268 870 335 924 q 201 729 201 817 q 234 638 201 672 q 320 581 267 603 q 438 543 374 560 q 565 508 501 526 q 681 459 628 489 q 767 380 735 429 q 800 254 800 331 q 756 106 800 167 q 638 15 713 46 q 472 -17 564 -17 m 432 -306 q 360 -299 394 -306 q 303 -282 326 -292 l 303 -235 q 365 -252 338 -246 q 421 -258 393 -258 q 499 -240 469 -258 q 529 -194 529 -222 q 510 -149 529 -164 q 454 -133 490 -133 q 416 -136 436 -133 q 376 -144 396 -139 l 349 -119 l 436 26 l 478 1 l 415 -99 q 444 -92 433 -93 q 464 -92 454 -92 q 529 -103 503 -92 q 570 -138 556 -115 q 585 -194 585 -161 q 565 -253 585 -228 q 512 -292 546 -278 q 432 -306 478 -306 z "},"Ŝ":{"ha":903,"x_min":113,"x_max":800,"o":"m 472 -17 q 285 24 367 -17 q 158 143 204 64 q 113 339 113 222 l 179 339 q 260 122 179 199 q 471 46 340 46 q 656 100 585 46 q 728 251 728 154 q 695 355 728 315 q 609 418 663 394 q 492 459 556 442 q 365 494 429 476 q 248 540 301 513 q 162 612 194 567 q 129 728 129 657 q 168 864 129 806 q 278 954 207 922 q 447 986 350 986 q 622 951 547 986 q 738 853 696 915 q 782 706 781 790 l 715 706 q 681 819 715 769 q 585 896 646 868 q 447 924 525 924 q 268 870 335 924 q 201 729 201 817 q 234 638 201 672 q 320 581 267 603 q 438 543 374 560 q 565 508 501 526 q 681 459 628 489 q 767 380 735 429 q 800 254 800 331 q 756 106 800 167 q 638 15 713 46 q 472 -17 564 -17 m 260 1068 l 432 1294 l 506 1294 l 678 1068 l 608 1068 l 469 1250 l 331 1068 l 260 1068 z "},"Ș":{"ha":903,"x_min":113,"x_max":800,"o":"m 472 -17 q 285 24 367 -17 q 158 143 204 64 q 113 339 113 222 l 179 339 q 260 122 179 199 q 471 46 340 46 q 656 100 585 46 q 728 251 728 154 q 695 355 728 315 q 609 418 663 394 q 492 459 556 442 q 365 494 429 476 q 248 540 301 513 q 162 612 194 567 q 129 728 129 657 q 168 864 129 806 q 278 954 207 922 q 447 986 350 986 q 622 951 547 986 q 738 853 696 915 q 782 706 781 790 l 715 706 q 681 819 715 769 q 585 896 646 868 q 447 924 525 924 q 268 870 335 924 q 201 729 201 817 q 234 638 201 672 q 320 581 267 603 q 438 543 374 560 q 565 508 501 526 q 681 459 628 489 q 767 380 735 429 q 800 254 800 331 q 756 106 800 167 q 638 15 713 46 q 472 -17 564 -17 m 406 -281 l 406 -67 l 478 -67 l 449 -281 l 406 -281 z "},"ẞ":{"ha":903,"x_min":143,"x_max":818,"o":"m 475 -17 q 401 -10 442 -17 q 324 7 361 -4 l 324 65 q 401 48 361 54 q 472 42 440 42 q 611 65 549 42 q 710 139 674 89 q 746 267 747 189 q 674 419 744 367 q 481 472 604 472 l 324 472 l 324 535 l 465 535 q 638 587 576 535 q 700 726 700 639 q 638 860 700 814 q 465 907 576 907 l 208 907 l 208 0 l 143 0 l 143 969 l 464 969 q 628 941 560 969 q 734 860 697 913 q 771 736 771 808 q 750 631 771 682 q 684 546 729 581 q 568 506 639 511 l 586 511 q 700 473 647 504 q 785 390 753 442 q 817 267 818 338 q 723 60 815 136 q 475 -17 631 -17 z "},"T":{"ha":903,"x_min":76,"x_max":825,"o":"m 418 0 l 418 907 l 76 907 l 76 969 l 825 969 l 825 907 l 483 907 l 483 0 l 418 0 z "},"Ŧ":{"ha":903,"x_min":76,"x_max":825,"o":"m 418 0 l 418 907 l 76 907 l 76 969 l 825 969 l 825 907 l 483 907 l 483 0 l 418 0 m 244 460 l 244 513 l 658 513 l 658 460 l 244 460 z "},"Ť":{"ha":903,"x_min":76,"x_max":825,"o":"m 418 0 l 418 907 l 76 907 l 76 969 l 825 969 l 825 907 l 483 907 l 483 0 l 418 0 m 243 1294 l 314 1294 l 453 1113 l 592 1294 l 661 1294 l 489 1068 l 415 1068 l 243 1294 z "},"Ţ":{"ha":903,"x_min":76,"x_max":825,"o":"m 418 0 l 418 907 l 76 907 l 76 969 l 825 969 l 825 907 l 483 907 l 483 0 l 418 0 m 426 -307 q 355 -300 389 -307 q 297 -283 321 -293 l 297 -236 q 360 -253 332 -247 q 415 -260 388 -260 q 494 -242 464 -260 q 524 -196 524 -224 q 504 -150 524 -165 q 449 -135 485 -135 q 410 -137 431 -135 q 371 -146 390 -140 l 343 -121 l 431 25 l 472 0 l 410 -100 q 438 -94 428 -94 q 458 -93 449 -93 q 524 -105 497 -93 q 565 -140 550 -117 q 579 -196 579 -162 q 560 -254 579 -229 q 506 -293 540 -279 q 426 -307 472 -307 z "},"Ț":{"ha":903,"x_min":76,"x_max":825,"o":"m 418 0 l 418 907 l 76 907 l 76 969 l 825 969 l 825 907 l 483 907 l 483 0 l 418 0 m 415 -281 l 415 -67 l 488 -67 l 458 -281 l 415 -281 z "},"U":{"ha":903,"x_min":97,"x_max":807,"o":"m 453 -17 q 271 28 351 -17 q 144 154 190 74 q 97 340 97 235 l 97 969 l 165 969 l 165 340 q 201 187 165 253 q 302 83 238 121 q 453 46 367 46 q 603 83 539 46 q 703 187 667 121 q 739 340 739 253 l 739 969 l 807 969 l 807 340 q 760 154 807 235 q 634 28 714 74 q 453 -17 554 -17 z "},"Ú":{"ha":903,"x_min":97,"x_max":807,"o":"m 453 -17 q 271 28 351 -17 q 144 154 190 74 q 97 340 97 235 l 97 969 l 165 969 l 165 340 q 201 187 165 253 q 302 83 238 121 q 453 46 367 46 q 603 83 539 46 q 703 187 667 121 q 739 340 739 253 l 739 969 l 807 969 l 807 340 q 760 154 807 235 q 634 28 714 74 q 453 -17 554 -17 m 393 1068 l 514 1294 l 593 1294 l 453 1068 l 393 1068 z "},"Ŭ":{"ha":903,"x_min":97,"x_max":807,"o":"m 453 -17 q 271 28 351 -17 q 144 154 190 74 q 97 340 97 235 l 97 969 l 165 969 l 165 340 q 201 187 165 253 q 302 83 238 121 q 453 46 367 46 q 603 83 539 46 q 703 187 667 121 q 739 340 739 253 l 739 969 l 807 969 l 807 340 q 760 154 807 235 q 634 28 714 74 q 453 -17 554 -17 m 450 1068 q 334 1096 383 1068 q 258 1174 285 1124 q 231 1294 231 1225 l 288 1294 q 333 1169 288 1215 q 450 1124 378 1124 q 569 1169 524 1124 q 614 1294 614 1215 l 671 1294 q 644 1174 671 1225 q 567 1096 617 1124 q 450 1068 518 1068 z "},"Û":{"ha":903,"x_min":97,"x_max":807,"o":"m 453 -17 q 271 28 351 -17 q 144 154 190 74 q 97 340 97 235 l 97 969 l 165 969 l 165 340 q 201 187 165 253 q 302 83 238 121 q 453 46 367 46 q 603 83 539 46 q 703 187 667 121 q 739 340 739 253 l 739 969 l 807 969 l 807 340 q 760 154 807 235 q 634 28 714 74 q 453 -17 554 -17 m 242 1068 l 414 1294 l 488 1294 l 660 1068 l 590 1068 l 451 1250 l 313 1068 l 242 1068 z "},"Ü":{"ha":903,"x_min":97,"x_max":807,"o":"m 453 -17 q 271 28 351 -17 q 144 154 190 74 q 97 340 97 235 l 97 969 l 165 969 l 165 340 q 201 187 165 253 q 302 83 238 121 q 453 46 367 46 q 603 83 539 46 q 703 187 667 121 q 739 340 739 253 l 739 969 l 807 969 l 807 340 q 760 154 807 235 q 634 28 714 74 q 453 -17 554 -17 m 517 1131 l 517 1231 l 594 1231 l 594 1131 l 517 1131 m 308 1131 l 308 1231 l 386 1231 l 386 1131 l 308 1131 z "},"Ù":{"ha":903,"x_min":97,"x_max":807,"o":"m 453 -17 q 271 28 351 -17 q 144 154 190 74 q 97 340 97 235 l 97 969 l 165 969 l 165 340 q 201 187 165 253 q 302 83 238 121 q 453 46 367 46 q 603 83 539 46 q 703 187 667 121 q 739 340 739 253 l 739 969 l 807 969 l 807 340 q 760 154 807 235 q 634 28 714 74 q 453 -17 554 -17 m 513 1069 l 453 1069 l 313 1296 l 392 1296 l 513 1069 z "},"Ű":{"ha":903,"x_min":97,"x_max":807,"o":"m 453 -17 q 271 28 351 -17 q 144 154 190 74 q 97 340 97 235 l 97 969 l 165 969 l 165 340 q 201 187 165 253 q 302 83 238 121 q 453 46 367 46 q 603 83 539 46 q 703 187 667 121 q 739 340 739 253 l 739 969 l 807 969 l 807 340 q 760 154 807 235 q 634 28 714 74 q 453 -17 554 -17 m 325 1068 l 446 1294 l 525 1294 l 385 1068 l 325 1068 m 497 1068 l 618 1294 l 697 1294 l 557 1068 l 497 1068 z "},"Ū":{"ha":903,"x_min":97,"x_max":807,"o":"m 453 -17 q 271 28 351 -17 q 144 154 190 74 q 97 340 97 235 l 97 969 l 165 969 l 165 340 q 201 187 165 253 q 302 83 238 121 q 453 46 367 46 q 603 83 539 46 q 703 187 667 121 q 739 340 739 253 l 739 969 l 807 969 l 807 340 q 760 154 807 235 q 634 28 714 74 q 453 -17 554 -17 m 265 1140 l 265 1199 l 638 1199 l 638 1140 l 265 1140 z "},"Ų":{"ha":903,"x_min":97,"x_max":807,"o":"m 453 -17 q 271 28 351 -17 q 144 154 190 74 q 97 340 97 235 l 97 969 l 165 969 l 165 340 q 201 187 165 253 q 302 83 238 121 q 453 46 367 46 q 603 83 539 46 q 703 187 667 121 q 739 340 739 253 l 739 969 l 807 969 l 807 340 q 760 154 807 235 q 634 28 714 74 q 453 -17 554 -17 m 503 -281 q 482 -285 492 -283 q 457 -287 472 -287 q 372 -258 403 -287 q 340 -179 340 -229 q 356 -109 340 -146 q 401 -37 371 -72 q 472 25 431 -1 l 506 0 q 422 -83 450 -36 q 393 -171 393 -131 q 413 -220 393 -201 q 465 -239 432 -239 q 486 -237 478 -239 q 503 -233 494 -235 l 503 -281 z "},"Ů":{"ha":903,"x_min":97,"x_max":807,"o":"m 453 -17 q 271 28 351 -17 q 144 154 190 74 q 97 340 97 235 l 97 969 l 165 969 l 165 340 q 201 187 165 253 q 302 83 238 121 q 453 46 367 46 q 603 83 539 46 q 703 187 667 121 q 739 340 739 253 l 739 969 l 807 969 l 807 340 q 760 154 807 235 q 634 28 714 74 q 453 -17 554 -17 m 450 1050 q 346 1089 386 1050 q 306 1189 306 1128 q 346 1289 306 1250 q 450 1328 386 1328 q 556 1289 515 1328 q 596 1189 596 1250 q 556 1089 596 1128 q 450 1050 515 1050 m 450 1099 q 515 1124 490 1099 q 539 1189 539 1150 q 515 1253 539 1228 q 450 1278 490 1278 q 387 1253 411 1278 q 363 1189 363 1228 q 387 1124 363 1150 q 450 1099 411 1099 z "},"Ũ":{"ha":903,"x_min":97,"x_max":807,"o":"m 453 -17 q 271 28 351 -17 q 144 154 190 74 q 97 340 97 235 l 97 969 l 165 969 l 165 340 q 201 187 165 253 q 302 83 238 121 q 453 46 367 46 q 603 83 539 46 q 703 187 667 121 q 739 340 739 253 l 739 969 l 807 969 l 807 340 q 760 154 807 235 q 634 28 714 74 q 453 -17 554 -17 m 269 1113 l 211 1121 q 263 1221 226 1186 q 347 1256 300 1256 q 401 1243 372 1256 q 458 1215 429 1231 q 513 1186 488 1199 q 554 1174 538 1174 q 602 1197 581 1174 q 632 1258 624 1221 l 690 1250 q 636 1150 672 1185 q 554 1115 600 1115 q 481 1136 519 1115 q 408 1177 443 1157 q 347 1197 372 1197 q 299 1174 321 1197 q 269 1113 276 1150 z "},"V":{"ha":903,"x_min":50,"x_max":853,"o":"m 411 0 l 50 969 l 121 969 l 393 239 l 453 71 l 511 236 l 785 969 l 853 969 l 492 0 l 411 0 z "},"W":{"ha":903,"x_min":25,"x_max":878,"o":"m 175 0 l 25 969 l 93 969 l 204 247 l 228 74 l 263 247 l 419 969 l 494 969 l 647 247 l 679 74 l 700 247 l 811 969 l 878 969 l 728 0 l 635 0 l 485 711 l 457 865 l 428 711 l 272 0 l 175 0 z "},"Ẃ":{"ha":903,"x_min":25,"x_max":878,"o":"m 175 0 l 25 969 l 93 969 l 204 247 l 228 74 l 263 247 l 419 969 l 494 969 l 647 247 l 679 74 l 700 247 l 811 969 l 878 969 l 728 0 l 635 0 l 485 711 l 457 865 l 428 711 l 272 0 l 175 0 m 396 1068 l 517 1294 l 596 1294 l 456 1068 l 396 1068 z "},"Ŵ":{"ha":903,"x_min":25,"x_max":878,"o":"m 175 0 l 25 969 l 93 969 l 204 247 l 228 74 l 263 247 l 419 969 l 494 969 l 647 247 l 679 74 l 700 247 l 811 969 l 878 969 l 728 0 l 635 0 l 485 711 l 457 865 l 428 711 l 272 0 l 175 0 m 244 1068 l 417 1294 l 490 1294 l 663 1068 l 593 1068 l 454 1250 l 315 1068 l 244 1068 z "},"Ẅ":{"ha":903,"x_min":25,"x_max":878,"o":"m 175 0 l 25 969 l 93 969 l 204 247 l 228 74 l 263 247 l 419 969 l 494 969 l 647 247 l 679 74 l 700 247 l 811 969 l 878 969 l 728 0 l 635 0 l 485 711 l 457 865 l 428 711 l 272 0 l 175 0 m 519 1131 l 519 1231 l 597 1231 l 597 1131 l 519 1131 m 311 1131 l 311 1231 l 389 1231 l 389 1131 l 311 1131 z "},"Ẁ":{"ha":903,"x_min":25,"x_max":878,"o":"m 175 0 l 25 969 l 93 969 l 204 247 l 228 74 l 263 247 l 419 969 l 494 969 l 647 247 l 679 74 l 700 247 l 811 969 l 878 969 l 728 0 l 635 0 l 485 711 l 457 865 l 428 711 l 272 0 l 175 0 m 515 1069 l 456 1069 l 315 1296 l 394 1296 l 515 1069 z "},"X":{"ha":903,"x_min":78,"x_max":821,"o":"m 78 0 l 403 494 l 92 969 l 168 969 l 333 717 l 449 543 l 565 718 l 731 969 l 804 969 l 494 500 l 821 0 l 744 0 l 564 278 l 449 451 l 336 276 l 151 0 l 78 0 z "},"Y":{"ha":903,"x_min":81,"x_max":821,"o":"m 417 0 l 417 393 l 81 969 l 157 969 l 354 629 l 450 458 l 547 631 l 744 969 l 821 969 l 482 393 l 482 0 l 417 0 z "},"Ý":{"ha":903,"x_min":81,"x_max":821,"o":"m 417 0 l 417 393 l 81 969 l 157 969 l 354 629 l 450 458 l 547 631 l 744 969 l 821 969 l 482 393 l 482 0 l 417 0 m 393 1068 l 514 1294 l 593 1294 l 453 1068 l 393 1068 z "},"Ŷ":{"ha":903,"x_min":81,"x_max":821,"o":"m 417 0 l 417 393 l 81 969 l 157 969 l 354 629 l 450 458 l 547 631 l 744 969 l 821 969 l 482 393 l 482 0 l 417 0 m 242 1068 l 414 1294 l 488 1294 l 660 1068 l 590 1068 l 451 1250 l 313 1068 l 242 1068 z "},"Ÿ":{"ha":903,"x_min":81,"x_max":821,"o":"m 417 0 l 417 393 l 81 969 l 157 969 l 354 629 l 450 458 l 547 631 l 744 969 l 821 969 l 482 393 l 482 0 l 417 0 m 517 1131 l 517 1231 l 594 1231 l 594 1131 l 517 1131 m 308 1131 l 308 1231 l 386 1231 l 386 1131 l 308 1131 z "},"Ỳ":{"ha":903,"x_min":81,"x_max":821,"o":"m 417 0 l 417 393 l 81 969 l 157 969 l 354 629 l 450 458 l 547 631 l 744 969 l 821 969 l 482 393 l 482 0 l 417 0 m 513 1069 l 453 1069 l 313 1296 l 392 1296 l 513 1069 z "},"Z":{"ha":903,"x_min":88,"x_max":811,"o":"m 88 0 l 88 53 l 608 754 l 722 907 l 531 907 l 110 907 l 110 969 l 811 969 l 811 917 l 290 215 l 176 63 l 368 63 l 811 63 l 811 0 l 88 0 z "},"Ź":{"ha":903,"x_min":88,"x_max":811,"o":"m 88 0 l 88 53 l 608 754 l 722 907 l 531 907 l 110 907 l 110 969 l 811 969 l 811 917 l 290 215 l 176 63 l 368 63 l 811 63 l 811 0 l 88 0 m 392 1068 l 513 1294 l 592 1294 l 451 1068 l 392 1068 z "},"Ž":{"ha":903,"x_min":88,"x_max":811,"o":"m 88 0 l 88 53 l 608 754 l 722 907 l 531 907 l 110 907 l 110 969 l 811 969 l 811 917 l 290 215 l 176 63 l 368 63 l 811 63 l 811 0 l 88 0 m 242 1294 l 313 1294 l 451 1113 l 590 1294 l 660 1294 l 488 1068 l 414 1068 l 242 1294 z "},"Ż":{"ha":903,"x_min":88,"x_max":811,"o":"m 88 0 l 88 53 l 608 754 l 722 907 l 531 907 l 110 907 l 110 969 l 811 969 l 811 917 l 290 215 l 176 63 l 368 63 l 811 63 l 811 0 l 88 0 m 408 1128 l 408 1228 l 492 1228 l 492 1128 l 408 1128 z "},"a":{"ha":903,"x_min":124,"x_max":760,"o":"m 701 0 l 696 208 l 696 481 q 629 651 696 589 q 447 714 563 714 q 265 660 336 714 q 188 513 193 606 l 124 513 q 172 652 129 594 q 286 741 215 710 q 446 772 357 772 q 613 737 543 772 q 722 636 683 701 q 760 481 760 571 l 760 0 l 701 0 m 396 -17 q 266 8 322 -17 q 178 80 210 32 q 147 197 147 128 q 237 379 147 314 q 490 444 326 444 l 713 444 l 713 386 l 485 386 q 284 336 356 386 q 213 197 213 286 q 264 81 213 121 q 397 42 315 42 q 577 100 499 42 q 703 260 656 158 l 711 200 q 594 42 672 100 q 396 -17 515 -17 z "},"á":{"ha":903,"x_min":124,"x_max":760,"o":"m 701 0 l 696 208 l 696 481 q 629 651 696 589 q 447 714 563 714 q 265 660 336 714 q 188 513 193 606 l 124 513 q 172 652 129 594 q 286 741 215 710 q 446 772 357 772 q 613 737 543 772 q 722 636 683 701 q 760 481 760 571 l 760 0 l 701 0 m 396 -17 q 266 8 322 -17 q 178 80 210 32 q 147 197 147 128 q 237 379 147 314 q 490 444 326 444 l 713 444 l 713 386 l 485 386 q 284 336 356 386 q 213 197 213 286 q 264 81 213 121 q 397 42 315 42 q 577 100 499 42 q 703 260 656 158 l 711 200 q 594 42 672 100 q 396 -17 515 -17 m 396 854 l 517 1081 l 596 1081 l 456 854 l 396 854 z "},"ă":{"ha":903,"x_min":124,"x_max":760,"o":"m 701 0 l 696 208 l 696 481 q 629 651 696 589 q 447 714 563 714 q 265 660 336 714 q 188 513 193 606 l 124 513 q 172 652 129 594 q 286 741 215 710 q 446 772 357 772 q 613 737 543 772 q 722 636 683 701 q 760 481 760 571 l 760 0 l 701 0 m 396 -17 q 266 8 322 -17 q 178 80 210 32 q 147 197 147 128 q 237 379 147 314 q 490 444 326 444 l 713 444 l 713 386 l 485 386 q 284 336 356 386 q 213 197 213 286 q 264 81 213 121 q 397 42 315 42 q 577 100 499 42 q 703 260 656 158 l 711 200 q 594 42 672 100 q 396 -17 515 -17 m 453 854 q 337 882 386 854 q 260 960 288 910 q 233 1081 233 1011 l 290 1081 q 335 956 290 1001 q 453 910 381 910 q 572 956 526 910 q 617 1081 617 1001 l 674 1081 q 647 960 674 1011 q 570 882 619 910 q 453 854 521 854 z "},"â":{"ha":903,"x_min":124,"x_max":760,"o":"m 701 0 l 696 208 l 696 481 q 629 651 696 589 q 447 714 563 714 q 265 660 336 714 q 188 513 193 606 l 124 513 q 172 652 129 594 q 286 741 215 710 q 446 772 357 772 q 613 737 543 772 q 722 636 683 701 q 760 481 760 571 l 760 0 l 701 0 m 396 -17 q 266 8 322 -17 q 178 80 210 32 q 147 197 147 128 q 237 379 147 314 q 490 444 326 444 l 713 444 l 713 386 l 485 386 q 284 336 356 386 q 213 197 213 286 q 264 81 213 121 q 397 42 315 42 q 577 100 499 42 q 703 260 656 158 l 711 200 q 594 42 672 100 q 396 -17 515 -17 m 244 854 l 417 1081 l 490 1081 l 663 854 l 593 854 l 454 1036 l 315 854 l 244 854 z "},"ä":{"ha":903,"x_min":124,"x_max":760,"o":"m 701 0 l 696 208 l 696 481 q 629 651 696 589 q 447 714 563 714 q 265 660 336 714 q 188 513 193 606 l 124 513 q 172 652 129 594 q 286 741 215 710 q 446 772 357 772 q 613 737 543 772 q 722 636 683 701 q 760 481 760 571 l 760 0 l 701 0 m 396 -17 q 266 8 322 -17 q 178 80 210 32 q 147 197 147 128 q 237 379 147 314 q 490 444 326 444 l 713 444 l 713 386 l 485 386 q 284 336 356 386 q 213 197 213 286 q 264 81 213 121 q 397 42 315 42 q 577 100 499 42 q 703 260 656 158 l 711 200 q 594 42 672 100 q 396 -17 515 -17 m 519 917 l 519 1017 l 597 1017 l 597 917 l 519 917 m 311 917 l 311 1017 l 389 1017 l 389 917 l 311 917 z "},"à":{"ha":903,"x_min":124,"x_max":760,"o":"m 701 0 l 696 208 l 696 481 q 629 651 696 589 q 447 714 563 714 q 265 660 336 714 q 188 513 193 606 l 124 513 q 172 652 129 594 q 286 741 215 710 q 446 772 357 772 q 613 737 543 772 q 722 636 683 701 q 760 481 760 571 l 760 0 l 701 0 m 396 -17 q 266 8 322 -17 q 178 80 210 32 q 147 197 147 128 q 237 379 147 314 q 490 444 326 444 l 713 444 l 713 386 l 485 386 q 284 336 356 386 q 213 197 213 286 q 264 81 213 121 q 397 42 315 42 q 577 100 499 42 q 703 260 656 158 l 711 200 q 594 42 672 100 q 396 -17 515 -17 m 515 856 l 456 856 l 315 1082 l 394 1082 l 515 856 z "},"ā":{"ha":903,"x_min":124,"x_max":760,"o":"m 701 0 l 696 208 l 696 481 q 629 651 696 589 q 447 714 563 714 q 265 660 336 714 q 188 513 193 606 l 124 513 q 172 652 129 594 q 286 741 215 710 q 446 772 357 772 q 613 737 543 772 q 722 636 683 701 q 760 481 760 571 l 760 0 l 701 0 m 396 -17 q 266 8 322 -17 q 178 80 210 32 q 147 197 147 128 q 237 379 147 314 q 490 444 326 444 l 713 444 l 713 386 l 485 386 q 284 336 356 386 q 213 197 213 286 q 264 81 213 121 q 397 42 315 42 q 577 100 499 42 q 703 260 656 158 l 711 200 q 594 42 672 100 q 396 -17 515 -17 m 268 926 l 268 985 l 640 985 l 640 926 l 268 926 z "},"ą":{"ha":903,"x_min":124,"x_max":760,"o":"m 701 0 l 696 208 l 696 481 q 629 651 696 589 q 447 714 563 714 q 265 660 336 714 q 188 513 193 606 l 124 513 q 172 652 129 594 q 286 741 215 710 q 446 772 357 772 q 613 737 543 772 q 722 636 683 701 q 760 481 760 571 l 760 0 l 701 0 m 396 -17 q 266 8 322 -17 q 178 80 210 32 q 147 197 147 128 q 237 379 147 314 q 490 444 326 444 l 713 444 l 713 386 l 485 386 q 284 336 356 386 q 213 197 213 286 q 264 81 213 121 q 397 42 315 42 q 577 100 499 42 q 703 260 656 158 l 711 200 q 594 42 672 100 q 396 -17 515 -17 m 757 -281 q 736 -285 746 -283 q 711 -287 726 -287 q 626 -258 657 -287 q 594 -179 594 -229 q 610 -109 594 -146 q 655 -37 625 -72 q 726 25 685 -1 l 760 0 q 676 -83 704 -36 q 647 -171 647 -131 q 667 -220 647 -201 q 719 -239 686 -239 q 740 -237 732 -239 q 757 -233 749 -235 l 757 -281 z "},"å":{"ha":903,"x_min":124,"x_max":760,"o":"m 701 0 l 696 208 l 696 481 q 629 651 696 589 q 447 714 563 714 q 265 660 336 714 q 188 513 193 606 l 124 513 q 172 652 129 594 q 286 741 215 710 q 446 772 357 772 q 613 737 543 772 q 722 636 683 701 q 760 481 760 571 l 760 0 l 701 0 m 396 -17 q 266 8 322 -17 q 178 80 210 32 q 147 197 147 128 q 237 379 147 314 q 490 444 326 444 l 713 444 l 713 386 l 485 386 q 284 336 356 386 q 213 197 213 286 q 264 81 213 121 q 397 42 315 42 q 577 100 499 42 q 703 260 656 158 l 711 200 q 594 42 672 100 q 396 -17 515 -17 m 453 836 q 349 875 389 836 q 308 975 308 914 q 349 1075 308 1036 q 453 1114 389 1114 q 558 1075 518 1114 q 599 975 599 1036 q 558 875 599 914 q 453 836 518 836 m 453 885 q 517 910 493 885 q 542 975 542 936 q 517 1039 542 1014 q 453 1064 493 1064 q 390 1039 414 1064 q 365 975 365 1014 q 390 910 365 936 q 453 885 414 885 z "},"ǻ":{"ha":903,"x_min":124,"x_max":760,"o":"m 701 0 l 696 208 l 696 481 q 629 651 696 589 q 447 714 563 714 q 265 660 336 714 q 188 513 193 606 l 124 513 q 172 652 129 594 q 286 741 215 710 q 446 772 357 772 q 613 737 543 772 q 722 636 683 701 q 760 481 760 571 l 760 0 l 701 0 m 396 -17 q 266 8 322 -17 q 178 80 210 32 q 147 197 147 128 q 237 379 147 314 q 490 444 326 444 l 713 444 l 713 386 l 485 386 q 284 336 356 386 q 213 197 213 286 q 264 81 213 121 q 397 42 315 42 q 577 100 499 42 q 703 260 656 158 l 711 200 q 594 42 672 100 q 396 -17 515 -17 m 453 836 q 349 875 389 836 q 308 975 308 914 q 349 1075 308 1036 q 453 1114 389 1114 q 558 1075 518 1114 q 599 975 599 1036 q 558 875 599 914 q 453 836 518 836 m 453 885 q 517 910 493 885 q 542 975 542 936 q 517 1039 542 1014 q 453 1064 493 1064 q 390 1039 414 1064 q 365 975 365 1014 q 390 910 365 936 q 453 885 414 885 m 389 1088 l 510 1314 l 589 1314 l 449 1088 l 389 1088 z "},"ã":{"ha":903,"x_min":124,"x_max":760,"o":"m 701 0 l 696 208 l 696 481 q 629 651 696 589 q 447 714 563 714 q 265 660 336 714 q 188 513 193 606 l 124 513 q 172 652 129 594 q 286 741 215 710 q 446 772 357 772 q 613 737 543 772 q 722 636 683 701 q 760 481 760 571 l 760 0 l 701 0 m 396 -17 q 266 8 322 -17 q 178 80 210 32 q 147 197 147 128 q 237 379 147 314 q 490 444 326 444 l 713 444 l 713 386 l 485 386 q 284 336 356 386 q 213 197 213 286 q 264 81 213 121 q 397 42 315 42 q 577 100 499 42 q 703 260 656 158 l 711 200 q 594 42 672 100 q 396 -17 515 -17 m 272 899 l 214 907 q 266 1007 229 972 q 350 1042 303 1042 q 403 1029 375 1042 q 461 1001 432 1017 q 515 972 490 985 q 557 960 540 960 q 605 983 583 960 q 635 1044 626 1007 l 693 1036 q 639 936 675 971 q 557 901 603 901 q 484 922 522 901 q 410 963 446 943 q 350 983 375 983 q 301 960 324 983 q 272 899 279 936 z "},"æ":{"ha":903,"x_min":8,"x_max":889,"o":"m 393 161 l 393 507 q 350 667 393 618 q 236 715 307 715 q 159 691 196 715 q 97 622 122 667 q 69 511 72 576 l 8 511 q 46 651 14 593 q 128 741 78 710 q 235 772 178 772 q 395 709 336 772 q 454 507 454 646 l 454 161 l 393 161 m 222 -17 q 75 38 131 -17 q 19 190 19 92 q 55 319 19 267 q 154 401 90 372 q 300 429 218 429 l 406 429 l 406 372 l 299 372 q 143 326 204 372 q 82 193 82 281 q 121 81 82 124 q 224 39 160 39 q 338 89 292 39 q 406 215 383 139 l 433 158 q 356 32 411 81 q 222 -17 300 -17 m 639 -17 q 456 85 518 -17 q 393 379 393 186 q 467 667 393 561 q 663 772 540 772 q 831 684 774 772 q 882 439 888 596 l 449 439 l 449 497 l 819 496 q 775 658 815 600 q 663 715 735 715 q 510 626 567 715 q 454 381 454 536 q 476 192 454 268 q 539 77 497 115 q 639 39 581 39 q 763 94 710 39 q 828 243 817 149 l 889 243 q 808 53 875 122 q 639 -17 742 -17 z "},"ǽ":{"ha":903,"x_min":8,"x_max":889,"o":"m 393 161 l 393 507 q 350 667 393 618 q 236 715 307 715 q 159 691 196 715 q 97 622 122 667 q 69 511 72 576 l 8 511 q 46 651 14 593 q 128 741 78 710 q 235 772 178 772 q 395 709 336 772 q 454 507 454 646 l 454 161 l 393 161 m 222 -17 q 75 38 131 -17 q 19 190 19 92 q 55 319 19 267 q 154 401 90 372 q 300 429 218 429 l 406 429 l 406 372 l 299 372 q 143 326 204 372 q 82 193 82 281 q 121 81 82 124 q 224 39 160 39 q 338 89 292 39 q 406 215 383 139 l 433 158 q 356 32 411 81 q 222 -17 300 -17 m 639 -17 q 456 85 518 -17 q 393 379 393 186 q 467 667 393 561 q 663 772 540 772 q 831 684 774 772 q 882 439 888 596 l 449 439 l 449 497 l 819 496 q 775 658 815 600 q 663 715 735 715 q 510 626 567 715 q 454 381 454 536 q 476 192 454 268 q 539 77 497 115 q 639 39 581 39 q 763 94 710 39 q 828 243 817 149 l 889 243 q 808 53 875 122 q 639 -17 742 -17 m 503 853 l 624 1079 l 703 1079 l 563 853 l 503 853 z "},"b":{"ha":903,"x_min":139,"x_max":825,"o":"m 479 772 q 660 724 582 772 q 781 587 738 675 q 825 378 825 499 q 781 169 825 258 q 660 32 738 81 q 479 -17 582 -17 q 314 25 388 -17 q 200 135 240 67 l 196 0 l 139 0 l 139 1014 l 203 1014 l 203 626 q 317 733 244 694 q 479 772 389 772 m 474 42 q 625 83 561 42 q 724 201 689 125 q 760 378 760 276 q 724 556 760 481 q 625 673 689 632 q 474 714 561 714 q 312 667 385 714 q 203 535 239 621 l 203 222 q 312 90 239 138 q 474 42 385 42 z "},"c":{"ha":903,"x_min":104,"x_max":806,"o":"m 483 -17 q 284 33 369 -17 q 151 171 199 82 q 104 378 104 260 q 152 585 104 496 q 285 723 200 674 q 483 772 371 772 q 632 741 564 772 q 745 653 700 710 q 800 517 790 596 l 736 517 q 653 661 724 608 q 483 714 582 714 q 317 672 388 714 q 208 556 246 631 q 169 378 169 481 q 253 133 169 224 q 483 42 338 42 q 594 66 540 42 q 687 135 647 90 q 740 240 726 179 l 806 240 q 738 103 788 160 q 622 15 689 46 q 483 -17 556 -17 z "},"ć":{"ha":903,"x_min":104,"x_max":806,"o":"m 483 -17 q 284 33 369 -17 q 151 171 199 82 q 104 378 104 260 q 152 585 104 496 q 285 723 200 674 q 483 772 371 772 q 632 741 564 772 q 745 653 700 710 q 800 517 790 596 l 736 517 q 653 661 724 608 q 483 714 582 714 q 317 672 388 714 q 208 556 246 631 q 169 378 169 481 q 253 133 169 224 q 483 42 338 42 q 594 66 540 42 q 687 135 647 90 q 740 240 726 179 l 806 240 q 738 103 788 160 q 622 15 689 46 q 483 -17 556 -17 m 418 854 l 539 1081 l 618 1081 l 478 854 l 418 854 z "},"č":{"ha":903,"x_min":104,"x_max":806,"o":"m 483 -17 q 284 33 369 -17 q 151 171 199 82 q 104 378 104 260 q 152 585 104 496 q 285 723 200 674 q 483 772 371 772 q 632 741 564 772 q 745 653 700 710 q 800 517 790 596 l 736 517 q 653 661 724 608 q 483 714 582 714 q 317 672 388 714 q 208 556 246 631 q 169 378 169 481 q 253 133 169 224 q 483 42 338 42 q 594 66 540 42 q 687 135 647 90 q 740 240 726 179 l 806 240 q 738 103 788 160 q 622 15 689 46 q 483 -17 556 -17 m 268 1081 l 339 1081 l 478 899 l 617 1081 l 686 1081 l 514 854 l 440 854 l 268 1081 z "},"ç":{"ha":903,"x_min":104,"x_max":806,"o":"m 483 -17 q 284 33 369 -17 q 151 171 199 82 q 104 378 104 260 q 152 585 104 496 q 285 723 200 674 q 483 772 371 772 q 632 741 564 772 q 745 653 700 710 q 800 517 790 596 l 736 517 q 653 661 724 608 q 483 714 582 714 q 317 672 388 714 q 208 556 246 631 q 169 378 169 481 q 253 133 169 224 q 483 42 338 42 q 594 66 540 42 q 687 135 647 90 q 740 240 726 179 l 806 240 q 738 103 788 160 q 622 15 689 46 q 483 -17 556 -17 m 472 -306 q 401 -299 435 -306 q 343 -282 367 -292 l 343 -235 q 406 -252 378 -246 q 461 -258 433 -258 q 540 -240 510 -258 q 569 -194 569 -222 q 550 -149 569 -164 q 494 -133 531 -133 q 456 -136 476 -133 q 417 -144 436 -139 l 389 -119 l 476 26 l 518 1 l 456 -99 q 484 -92 474 -93 q 504 -92 494 -92 q 569 -103 543 -92 q 610 -138 596 -115 q 625 -194 625 -161 q 606 -253 625 -228 q 552 -292 586 -278 q 472 -306 518 -306 z "},"ĉ":{"ha":903,"x_min":104,"x_max":806,"o":"m 483 -17 q 284 33 369 -17 q 151 171 199 82 q 104 378 104 260 q 152 585 104 496 q 285 723 200 674 q 483 772 371 772 q 632 741 564 772 q 745 653 700 710 q 800 517 790 596 l 736 517 q 653 661 724 608 q 483 714 582 714 q 317 672 388 714 q 208 556 246 631 q 169 378 169 481 q 253 133 169 224 q 483 42 338 42 q 594 66 540 42 q 687 135 647 90 q 740 240 726 179 l 806 240 q 738 103 788 160 q 622 15 689 46 q 483 -17 556 -17 m 267 854 l 439 1081 l 513 1081 l 685 854 l 615 854 l 476 1036 l 338 854 l 267 854 z "},"ċ":{"ha":903,"x_min":104,"x_max":806,"o":"m 483 -17 q 284 33 369 -17 q 151 171 199 82 q 104 378 104 260 q 152 585 104 496 q 285 723 200 674 q 483 772 371 772 q 632 741 564 772 q 745 653 700 710 q 800 517 790 596 l 736 517 q 653 661 724 608 q 483 714 582 714 q 317 672 388 714 q 208 556 246 631 q 169 378 169 481 q 253 133 169 224 q 483 42 338 42 q 594 66 540 42 q 687 135 647 90 q 740 240 726 179 l 806 240 q 738 103 788 160 q 622 15 689 46 q 483 -17 556 -17 m 435 914 l 435 1014 l 518 1014 l 518 914 l 435 914 z "},"d":{"ha":903,"x_min":78,"x_max":764,"o":"m 424 772 q 586 733 514 772 q 700 626 658 694 l 700 1014 l 764 1014 l 764 0 l 707 0 l 703 135 q 589 25 663 67 q 424 -17 515 -17 q 243 32 321 -17 q 122 169 165 81 q 78 378 78 258 q 122 587 78 499 q 243 724 165 675 q 424 772 321 772 m 429 42 q 592 90 519 42 q 700 222 665 138 l 700 535 q 592 667 665 621 q 429 714 519 714 q 278 673 342 714 q 178 556 214 632 q 143 378 143 481 q 178 201 143 276 q 278 83 214 125 q 429 42 342 42 z "},"ð":{"ha":903,"x_min":97,"x_max":806,"o":"m 317 1014 l 429 1014 q 590 913 519 969 q 708 787 660 856 q 781 641 756 718 q 806 479 806 564 q 761 218 806 329 q 633 45 717 107 q 431 -17 549 -17 q 259 29 335 -17 q 140 158 183 75 q 97 349 97 240 q 139 533 97 454 q 256 657 181 613 q 432 701 332 701 q 579 670 513 701 q 692 581 646 639 q 758 444 739 524 l 744 325 q 697 488 738 415 q 590 601 657 560 q 431 643 522 643 q 291 606 351 643 q 196 502 231 568 q 161 349 161 436 q 197 189 161 258 q 293 81 232 119 q 431 42 354 42 q 601 96 531 42 q 709 248 672 150 q 746 479 746 346 q 717 645 746 568 q 632 789 688 722 q 497 911 576 856 q 317 1014 418 967 m 349 775 l 322 825 l 681 988 l 707 938 l 349 775 z "},"ď":{"ha":903,"x_min":78,"x_max":950,"o":"m 424 772 q 586 733 514 772 q 700 626 658 694 l 700 1014 l 764 1014 l 764 0 l 707 0 l 703 135 q 589 25 663 67 q 424 -17 515 -17 q 243 32 321 -17 q 122 169 165 81 q 78 378 78 258 q 122 587 78 499 q 243 724 165 675 q 424 772 321 772 m 429 42 q 592 90 519 42 q 700 222 665 138 l 700 535 q 592 667 665 621 q 429 714 519 714 q 278 673 342 714 q 178 556 214 632 q 143 378 143 481 q 178 201 143 276 q 278 83 214 125 q 429 42 342 42 m 861 732 l 879 1014 l 950 1014 l 911 732 l 861 732 z "},"đ":{"ha":903,"x_min":78,"x_max":893,"o":"m 700 611 l 700 1014 l 764 1014 l 764 0 l 707 0 l 700 128 q 587 22 658 61 q 424 -17 515 -17 q 243 31 321 -17 q 122 165 165 78 q 78 369 78 251 q 122 574 78 488 q 243 708 165 661 q 424 756 321 756 q 587 717 515 756 q 700 611 658 678 m 429 40 q 592 87 519 40 q 700 218 665 133 l 700 522 q 592 652 665 606 q 429 699 519 699 q 278 658 342 699 q 178 544 214 618 q 143 369 143 471 q 178 195 143 269 q 278 81 214 121 q 429 40 342 40 m 469 854 l 469 907 l 893 907 l 893 854 l 469 854 z "},"e":{"ha":903,"x_min":94,"x_max":807,"o":"m 458 -17 q 264 31 346 -17 q 138 168 182 79 q 94 379 94 257 q 138 587 94 499 q 264 724 182 675 q 458 772 346 772 q 710 684 621 772 q 793 439 800 596 l 146 439 l 146 499 l 726 496 q 649 656 721 599 q 458 714 578 714 q 240 624 319 714 q 160 381 160 535 q 196 200 160 276 q 299 83 232 124 q 458 42 365 42 q 649 96 572 42 q 743 243 725 150 l 807 243 q 690 53 783 122 q 458 -17 597 -17 z "},"é":{"ha":903,"x_min":94,"x_max":807,"o":"m 458 -17 q 264 31 346 -17 q 138 168 182 79 q 94 379 94 257 q 138 587 94 499 q 264 724 182 675 q 458 772 346 772 q 710 684 621 772 q 793 439 800 596 l 146 439 l 146 499 l 726 496 q 649 656 721 599 q 458 714 578 714 q 240 624 319 714 q 160 381 160 535 q 196 200 160 276 q 299 83 232 124 q 458 42 365 42 q 649 96 572 42 q 743 243 725 150 l 807 243 q 690 53 783 122 q 458 -17 597 -17 m 421 854 l 542 1081 l 621 1081 l 481 854 l 421 854 z "},"ĕ":{"ha":903,"x_min":94,"x_max":807,"o":"m 458 -17 q 264 31 346 -17 q 138 168 182 79 q 94 379 94 257 q 138 587 94 499 q 264 724 182 675 q 458 772 346 772 q 710 684 621 772 q 793 439 800 596 l 146 439 l 146 499 l 726 496 q 649 656 721 599 q 458 714 578 714 q 240 624 319 714 q 160 381 160 535 q 196 200 160 276 q 299 83 232 124 q 458 42 365 42 q 649 96 572 42 q 743 243 725 150 l 807 243 q 690 53 783 122 q 458 -17 597 -17 m 478 854 q 362 882 411 854 q 285 960 313 910 q 258 1081 258 1011 l 315 1081 q 360 956 315 1001 q 478 910 406 910 q 597 956 551 910 q 642 1081 642 1001 l 699 1081 q 672 960 699 1011 q 595 882 644 910 q 478 854 546 854 z "},"ě":{"ha":903,"x_min":94,"x_max":807,"o":"m 458 -17 q 264 31 346 -17 q 138 168 182 79 q 94 379 94 257 q 138 587 94 499 q 264 724 182 675 q 458 772 346 772 q 710 684 621 772 q 793 439 800 596 l 146 439 l 146 499 l 726 496 q 649 656 721 599 q 458 714 578 714 q 240 624 319 714 q 160 381 160 535 q 196 200 160 276 q 299 83 232 124 q 458 42 365 42 q 649 96 572 42 q 743 243 725 150 l 807 243 q 690 53 783 122 q 458 -17 597 -17 m 271 1081 l 342 1081 l 481 899 l 619 1081 l 689 1081 l 517 854 l 443 854 l 271 1081 z "},"ê":{"ha":903,"x_min":94,"x_max":807,"o":"m 458 -17 q 264 31 346 -17 q 138 168 182 79 q 94 379 94 257 q 138 587 94 499 q 264 724 182 675 q 458 772 346 772 q 710 684 621 772 q 793 439 800 596 l 146 439 l 146 499 l 726 496 q 649 656 721 599 q 458 714 578 714 q 240 624 319 714 q 160 381 160 535 q 196 200 160 276 q 299 83 232 124 q 458 42 365 42 q 649 96 572 42 q 743 243 725 150 l 807 243 q 690 53 783 122 q 458 -17 597 -17 m 269 854 l 442 1081 l 515 1081 l 688 854 l 618 854 l 479 1036 l 340 854 l 269 854 z "},"ë":{"ha":903,"x_min":94,"x_max":807,"o":"m 458 -17 q 264 31 346 -17 q 138 168 182 79 q 94 379 94 257 q 138 587 94 499 q 264 724 182 675 q 458 772 346 772 q 710 684 621 772 q 793 439 800 596 l 146 439 l 146 499 l 726 496 q 649 656 721 599 q 458 714 578 714 q 240 624 319 714 q 160 381 160 535 q 196 200 160 276 q 299 83 232 124 q 458 42 365 42 q 649 96 572 42 q 743 243 725 150 l 807 243 q 690 53 783 122 q 458 -17 597 -17 m 544 917 l 544 1017 l 622 1017 l 622 917 l 544 917 m 336 917 l 336 1017 l 414 1017 l 414 917 l 336 917 z "},"ė":{"ha":903,"x_min":94,"x_max":807,"o":"m 458 -17 q 264 31 346 -17 q 138 168 182 79 q 94 379 94 257 q 138 587 94 499 q 264 724 182 675 q 458 772 346 772 q 710 684 621 772 q 793 439 800 596 l 146 439 l 146 499 l 726 496 q 649 656 721 599 q 458 714 578 714 q 240 624 319 714 q 160 381 160 535 q 196 200 160 276 q 299 83 232 124 q 458 42 365 42 q 649 96 572 42 q 743 243 725 150 l 807 243 q 690 53 783 122 q 458 -17 597 -17 m 438 914 l 438 1014 l 521 1014 l 521 914 l 438 914 z "},"è":{"ha":903,"x_min":94,"x_max":807,"o":"m 458 -17 q 264 31 346 -17 q 138 168 182 79 q 94 379 94 257 q 138 587 94 499 q 264 724 182 675 q 458 772 346 772 q 710 684 621 772 q 793 439 800 596 l 146 439 l 146 499 l 726 496 q 649 656 721 599 q 458 714 578 714 q 240 624 319 714 q 160 381 160 535 q 196 200 160 276 q 299 83 232 124 q 458 42 365 42 q 649 96 572 42 q 743 243 725 150 l 807 243 q 690 53 783 122 q 458 -17 597 -17 m 540 856 l 481 856 l 340 1082 l 419 1082 l 540 856 z "},"ē":{"ha":903,"x_min":94,"x_max":807,"o":"m 458 -17 q 264 31 346 -17 q 138 168 182 79 q 94 379 94 257 q 138 587 94 499 q 264 724 182 675 q 458 772 346 772 q 710 684 621 772 q 793 439 800 596 l 146 439 l 146 499 l 726 496 q 649 656 721 599 q 458 714 578 714 q 240 624 319 714 q 160 381 160 535 q 196 200 160 276 q 299 83 232 124 q 458 42 365 42 q 649 96 572 42 q 743 243 725 150 l 807 243 q 690 53 783 122 q 458 -17 597 -17 m 293 926 l 293 985 l 665 985 l 665 926 l 293 926 z "},"ę":{"ha":903,"x_min":94,"x_max":807,"o":"m 458 -17 q 264 31 346 -17 q 138 168 182 79 q 94 379 94 257 q 138 587 94 499 q 264 724 182 675 q 458 772 346 772 q 710 684 621 772 q 793 439 800 596 l 146 439 l 146 499 l 726 496 q 649 656 721 599 q 458 714 578 714 q 240 624 319 714 q 160 381 160 535 q 196 200 160 276 q 299 83 232 124 q 458 42 365 42 q 649 96 572 42 q 743 243 725 150 l 807 243 q 690 53 783 122 q 458 -17 597 -17 m 544 -281 q 524 -285 533 -283 q 499 -287 514 -287 q 413 -258 444 -287 q 382 -179 382 -229 q 397 -109 382 -146 q 442 -37 413 -72 q 514 25 472 -1 l 547 0 q 463 -83 492 -36 q 435 -171 435 -131 q 454 -220 435 -201 q 507 -239 474 -239 q 528 -237 519 -239 q 544 -233 536 -235 l 544 -281 z "},"f":{"ha":903,"x_min":125,"x_max":797,"o":"m 390 0 l 390 851 q 407 954 390 910 q 465 1024 424 999 q 581 1049 507 1049 l 797 1049 l 797 996 l 579 996 q 513 983 542 996 q 469 942 485 971 q 454 860 454 913 l 454 0 l 390 0 m 182 703 l 182 756 l 746 756 l 746 703 l 182 703 m 125 0 l 125 53 l 783 53 l 783 0 l 125 0 z "},"g":{"ha":903,"x_min":82,"x_max":767,"o":"m 706 617 l 710 756 l 767 756 l 767 64 q 681 -180 767 -96 q 433 -264 594 -264 q 273 -236 342 -264 q 163 -153 204 -208 q 111 -17 122 -99 l 176 -17 q 247 -155 183 -104 q 433 -206 311 -206 q 633 -140 564 -206 q 703 51 703 -74 l 703 210 q 590 96 664 138 q 421 54 515 54 q 244 99 321 54 q 125 224 168 143 q 82 414 82 306 q 125 603 82 524 q 244 728 168 683 q 421 772 321 772 q 592 729 517 772 q 706 617 668 686 m 426 107 q 597 158 521 107 q 703 299 672 208 l 703 528 q 597 669 672 618 q 426 719 521 719 q 278 682 342 719 q 181 576 215 644 q 146 414 146 507 q 181 252 146 321 q 278 145 215 183 q 426 107 342 107 z "},"ğ":{"ha":903,"x_min":82,"x_max":767,"o":"m 706 617 l 710 756 l 767 756 l 767 64 q 681 -180 767 -96 q 433 -264 594 -264 q 273 -236 342 -264 q 163 -153 204 -208 q 111 -17 122 -99 l 176 -17 q 247 -155 183 -104 q 433 -206 311 -206 q 633 -140 564 -206 q 703 51 703 -74 l 703 210 q 590 96 664 138 q 421 54 515 54 q 244 99 321 54 q 125 224 168 143 q 82 414 82 306 q 125 603 82 524 q 244 728 168 683 q 421 772 321 772 q 592 729 517 772 q 706 617 668 686 m 426 107 q 597 158 521 107 q 703 299 672 208 l 703 528 q 597 669 672 618 q 426 719 521 719 q 278 682 342 719 q 181 576 215 644 q 146 414 146 507 q 181 252 146 321 q 278 145 215 183 q 426 107 342 107 m 438 854 q 322 882 371 854 q 245 960 272 910 q 218 1081 218 1011 l 275 1081 q 320 956 275 1001 q 438 910 365 910 q 556 956 511 910 q 601 1081 601 1001 l 658 1081 q 631 960 658 1011 q 555 882 604 910 q 438 854 506 854 z "},"ĝ":{"ha":903,"x_min":82,"x_max":767,"o":"m 706 617 l 710 756 l 767 756 l 767 64 q 681 -180 767 -96 q 433 -264 594 -264 q 273 -236 342 -264 q 163 -153 204 -208 q 111 -17 122 -99 l 176 -17 q 247 -155 183 -104 q 433 -206 311 -206 q 633 -140 564 -206 q 703 51 703 -74 l 703 210 q 590 96 664 138 q 421 54 515 54 q 244 99 321 54 q 125 224 168 143 q 82 414 82 306 q 125 603 82 524 q 244 728 168 683 q 421 772 321 772 q 592 729 517 772 q 706 617 668 686 m 426 107 q 597 158 521 107 q 703 299 672 208 l 703 528 q 597 669 672 618 q 426 719 521 719 q 278 682 342 719 q 181 576 215 644 q 146 414 146 507 q 181 252 146 321 q 278 145 215 183 q 426 107 342 107 m 229 854 l 401 1081 l 475 1081 l 647 854 l 578 854 l 439 1036 l 300 854 l 229 854 z "},"ģ":{"ha":903,"x_min":82,"x_max":767,"o":"m 706 617 l 710 756 l 767 756 l 767 64 q 681 -180 767 -96 q 433 -264 594 -264 q 273 -236 342 -264 q 163 -153 204 -208 q 111 -17 122 -99 l 176 -17 q 247 -155 183 -104 q 433 -206 311 -206 q 633 -140 564 -206 q 703 51 703 -74 l 703 210 q 590 96 664 138 q 421 54 515 54 q 244 99 321 54 q 125 224 168 143 q 82 414 82 306 q 125 603 82 524 q 244 728 168 683 q 421 772 321 772 q 592 729 517 772 q 706 617 668 686 m 426 107 q 597 158 521 107 q 703 299 672 208 l 703 528 q 597 669 672 618 q 426 719 521 719 q 278 682 342 719 q 181 576 215 644 q 146 414 146 507 q 181 252 146 321 q 278 145 215 183 q 426 107 342 107 m 482 1082 l 482 868 l 410 868 l 439 1082 l 482 1082 z "},"ġ":{"ha":903,"x_min":82,"x_max":767,"o":"m 706 617 l 710 756 l 767 756 l 767 64 q 681 -180 767 -96 q 433 -264 594 -264 q 273 -236 342 -264 q 163 -153 204 -208 q 111 -17 122 -99 l 176 -17 q 247 -155 183 -104 q 433 -206 311 -206 q 633 -140 564 -206 q 703 51 703 -74 l 703 210 q 590 96 664 138 q 421 54 515 54 q 244 99 321 54 q 125 224 168 143 q 82 414 82 306 q 125 603 82 524 q 244 728 168 683 q 421 772 321 772 q 592 729 517 772 q 706 617 668 686 m 426 107 q 597 158 521 107 q 703 299 672 208 l 703 528 q 597 669 672 618 q 426 719 521 719 q 278 682 342 719 q 181 576 215 644 q 146 414 146 507 q 181 252 146 321 q 278 145 215 183 q 426 107 342 107 m 397 914 l 397 1014 l 481 1014 l 481 914 l 397 914 z "},"h":{"ha":903,"x_min":136,"x_max":775,"o":"m 711 0 l 711 485 q 650 651 711 588 q 490 714 589 714 q 294 628 379 714 q 186 375 210 543 l 171 504 q 292 701 206 631 q 493 772 379 772 q 641 736 578 772 q 740 635 704 700 q 775 483 775 571 l 775 0 l 711 0 m 136 0 l 136 1015 l 200 1015 l 200 0 l 136 0 z "},"ħ":{"ha":903,"x_min":7,"x_max":775,"o":"m 711 0 l 711 468 q 650 634 711 571 q 490 697 589 697 q 294 611 378 697 q 186 358 210 525 l 171 488 q 292 684 206 613 q 493 756 379 756 q 641 719 578 756 q 740 619 704 683 q 775 467 775 554 l 775 0 l 711 0 m 136 0 l 136 1014 l 200 1014 l 200 0 l 136 0 m 7 854 l 7 907 l 431 907 l 431 854 l 7 854 z "},"ĥ":{"ha":903,"x_min":-43,"x_max":775,"o":"m 711 0 l 711 485 q 650 651 711 588 q 490 714 589 714 q 294 628 379 714 q 186 375 210 543 l 171 504 q 292 701 206 631 q 493 772 379 772 q 641 736 578 772 q 740 635 704 700 q 775 483 775 571 l 775 0 l 711 0 m 136 0 l 136 1015 l 200 1015 l 200 0 l 136 0 m -43 1067 l 129 1293 l 203 1293 l 375 1067 l 306 1067 l 167 1249 l 28 1067 l -43 1067 z "},"i":{"ha":903,"x_min":121,"x_max":771,"o":"m 433 0 l 433 756 l 497 756 l 497 0 l 433 0 m 121 0 l 121 53 l 771 53 l 771 0 l 121 0 m 225 703 l 225 756 l 465 756 l 465 703 l 225 703 m 422 914 l 422 1014 l 506 1014 l 506 914 l 422 914 z "},"ı":{"ha":903,"x_min":121,"x_max":771,"o":"m 433 0 l 433 756 l 497 756 l 497 0 l 433 0 m 121 0 l 121 53 l 771 53 l 771 0 l 121 0 m 225 703 l 225 756 l 465 756 l 465 703 l 225 703 z "},"í":{"ha":903,"x_min":121,"x_max":771,"o":"m 433 0 l 433 756 l 497 756 l 497 0 l 433 0 m 121 0 l 121 53 l 771 53 l 771 0 l 121 0 m 225 703 l 225 756 l 465 756 l 465 703 l 225 703 m 406 854 l 526 1081 l 606 1081 l 465 854 l 406 854 z "},"ĭ":{"ha":903,"x_min":121,"x_max":771,"o":"m 433 0 l 433 756 l 497 756 l 497 0 l 433 0 m 121 0 l 121 53 l 771 53 l 771 0 l 121 0 m 225 703 l 225 756 l 465 756 l 465 703 l 225 703 m 463 854 q 347 882 396 854 q 270 960 297 910 q 243 1081 243 1011 l 300 1081 q 345 956 300 1001 q 463 910 390 910 q 581 956 536 910 q 626 1081 626 1001 l 683 1081 q 656 960 683 1011 q 580 882 629 910 q 463 854 531 854 z "},"î":{"ha":903,"x_min":121,"x_max":771,"o":"m 433 0 l 433 756 l 497 756 l 497 0 l 433 0 m 121 0 l 121 53 l 771 53 l 771 0 l 121 0 m 225 703 l 225 756 l 465 756 l 465 703 l 225 703 m 254 854 l 426 1081 l 500 1081 l 672 854 l 603 854 l 464 1036 l 325 854 l 254 854 z "},"ï":{"ha":903,"x_min":121,"x_max":771,"o":"m 433 0 l 433 756 l 497 756 l 497 0 l 433 0 m 121 0 l 121 53 l 771 53 l 771 0 l 121 0 m 225 703 l 225 756 l 465 756 l 465 703 l 225 703 m 529 917 l 529 1017 l 607 1017 l 607 917 l 529 917 m 321 917 l 321 1017 l 399 1017 l 399 917 l 321 917 z "},"ì":{"ha":903,"x_min":121,"x_max":771,"o":"m 433 0 l 433 756 l 497 756 l 497 0 l 433 0 m 121 0 l 121 53 l 771 53 l 771 0 l 121 0 m 225 703 l 225 756 l 465 756 l 465 703 l 225 703 m 525 856 l 465 856 l 325 1082 l 404 1082 l 525 856 z "},"ĳ":{"ha":1806,"x_min":121,"x_max":1563,"o":"m 433 0 l 433 756 l 497 756 l 497 0 l 433 0 m 121 0 l 121 53 l 771 53 l 771 0 l 121 0 m 225 703 l 225 756 l 465 756 l 465 703 l 225 703 m 422 914 l 422 1014 l 506 1014 l 506 914 l 422 914 m 1553 756 l 1553 -50 q 1535 -156 1553 -111 q 1475 -224 1517 -200 q 1363 -247 1433 -247 l 1061 -247 l 1061 -194 l 1364 -194 q 1456 -165 1422 -194 q 1489 -58 1489 -135 l 1489 756 l 1553 756 m 1281 703 l 1281 756 l 1521 756 l 1521 703 l 1281 703 m 1479 914 l 1479 1014 l 1563 1014 l 1563 914 l 1479 914 z "},"ī":{"ha":903,"x_min":121,"x_max":771,"o":"m 433 0 l 433 756 l 497 756 l 497 0 l 433 0 m 121 0 l 121 53 l 771 53 l 771 0 l 121 0 m 225 703 l 225 756 l 465 756 l 465 703 l 225 703 m 278 926 l 278 985 l 650 985 l 650 926 l 278 926 z "},"į":{"ha":903,"x_min":121,"x_max":771,"o":"m 433 0 l 433 756 l 497 756 l 497 0 l 433 0 m 121 0 l 121 53 l 771 53 l 771 0 l 121 0 m 225 703 l 225 756 l 465 756 l 465 703 l 225 703 m 422 914 l 422 1014 l 506 1014 l 506 914 l 422 914 m 494 -281 q 474 -285 483 -283 q 449 -287 464 -287 q 363 -258 394 -287 q 332 -179 332 -229 q 347 -109 332 -146 q 392 -37 363 -72 q 464 25 422 -1 l 497 0 q 413 -83 442 -36 q 385 -171 385 -131 q 404 -220 385 -201 q 457 -239 424 -239 q 478 -237 469 -239 q 494 -233 486 -235 l 494 -281 z "},"ĩ":{"ha":903,"x_min":121,"x_max":771,"o":"m 433 0 l 433 756 l 497 756 l 497 0 l 433 0 m 121 0 l 121 53 l 771 53 l 771 0 l 121 0 m 225 703 l 225 756 l 465 756 l 465 703 l 225 703 m 282 899 l 224 907 q 276 1007 239 972 q 360 1042 313 1042 q 413 1029 385 1042 q 471 1001 442 1017 q 525 972 500 985 q 567 960 550 960 q 615 983 593 960 q 644 1044 636 1007 l 703 1036 q 649 936 685 971 q 567 901 613 901 q 494 922 532 901 q 420 963 456 943 q 360 983 385 983 q 311 960 333 983 q 282 899 289 936 z "},"j":{"ha":903,"x_min":158,"x_max":660,"o":"m 650 756 l 650 -50 q 632 -156 650 -111 q 572 -224 614 -200 q 460 -247 531 -247 l 158 -247 l 158 -194 l 461 -194 q 553 -165 519 -194 q 586 -58 586 -135 l 586 756 l 650 756 m 378 703 l 378 756 l 618 756 l 618 703 l 378 703 m 576 914 l 576 1014 l 660 1014 l 660 914 l 576 914 z "},"ȷ":{"ha":903,"x_min":158,"x_max":650,"o":"m 650 756 l 650 -50 q 632 -156 650 -111 q 572 -224 614 -200 q 460 -247 531 -247 l 158 -247 l 158 -194 l 461 -194 q 553 -165 519 -194 q 586 -58 586 -135 l 586 756 l 650 756 m 378 703 l 378 756 l 618 756 l 618 703 l 378 703 z "},"ĵ":{"ha":903,"x_min":158,"x_max":826,"o":"m 650 756 l 650 -50 q 632 -156 650 -111 q 572 -224 614 -200 q 460 -247 531 -247 l 158 -247 l 158 -194 l 461 -194 q 553 -165 519 -194 q 586 -58 586 -135 l 586 756 l 650 756 m 378 703 l 378 756 l 618 756 l 618 703 l 378 703 m 408 854 l 581 1081 l 654 1081 l 826 854 l 757 854 l 618 1036 l 479 854 l 408 854 z "},"k":{"ha":903,"x_min":128,"x_max":749,"o":"m 128 0 l 128 1014 l 192 1014 l 192 579 l 192 392 l 339 511 l 633 756 l 731 756 l 192 311 l 192 0 l 128 0 m 672 0 l 383 490 l 432 536 l 749 0 l 672 0 z "},"ķ":{"ha":903,"x_min":128,"x_max":749,"o":"m 128 0 l 128 1014 l 192 1014 l 192 579 l 192 392 l 339 511 l 633 756 l 731 756 l 192 311 l 192 0 l 128 0 m 672 0 l 383 490 l 432 536 l 749 0 l 672 0 m 400 -281 l 400 -67 l 472 -67 l 443 -281 l 400 -281 z "},"ĸ":{"ha":903,"x_min":128,"x_max":717,"o":"m 138 294 l 138 371 l 574 756 l 668 756 l 138 294 m 643 0 l 331 490 l 372 536 l 717 0 l 643 0 m 128 0 l 128 757 l 185 757 l 192 549 l 192 0 l 128 0 z "},"l":{"ha":903,"x_min":107,"x_max":799,"o":"m 419 0 l 419 1014 l 483 1014 l 483 0 l 419 0 m 107 0 l 107 53 l 799 53 l 799 0 l 107 0 m 211 961 l 211 1014 l 451 1014 l 451 961 l 211 961 z "},"ĺ":{"ha":903,"x_min":107,"x_max":799,"o":"m 419 0 l 419 1014 l 483 1014 l 483 0 l 419 0 m 107 0 l 107 53 l 799 53 l 799 0 l 107 0 m 211 961 l 211 1014 l 451 1014 l 451 961 l 211 961 m 393 1068 l 514 1294 l 593 1294 l 453 1068 l 393 1068 z "},"ľ":{"ha":903,"x_min":107,"x_max":799,"o":"m 419 0 l 419 1014 l 483 1014 l 483 0 l 419 0 m 107 0 l 107 53 l 799 53 l 799 0 l 107 0 m 211 961 l 211 1014 l 451 1014 l 451 961 l 211 961 m 575 732 l 593 1014 l 664 1014 l 625 732 l 575 732 z "},"ļ":{"ha":903,"x_min":107,"x_max":799,"o":"m 419 0 l 419 1014 l 483 1014 l 483 0 l 419 0 m 107 0 l 107 53 l 799 53 l 799 0 l 107 0 m 211 961 l 211 1014 l 451 1014 l 451 961 l 211 961 m 415 -281 l 415 -67 l 488 -67 l 458 -281 l 415 -281 z "},"ŀ":{"ha":903,"x_min":107,"x_max":949,"o":"m 419 0 l 419 1014 l 483 1014 l 483 0 l 419 0 m 107 0 l 107 53 l 799 53 l 799 0 l 107 0 m 211 961 l 211 1014 l 451 1014 l 451 961 l 211 961 m 854 449 l 854 551 l 949 551 l 949 449 l 854 449 z "},"ł":{"ha":903,"x_min":107,"x_max":799,"o":"m 268 478 l 268 536 l 625 667 l 625 608 l 268 478 m 419 0 l 419 1014 l 483 1014 l 483 0 l 419 0 m 107 0 l 107 53 l 799 53 l 799 0 l 107 0 m 211 961 l 211 1014 l 451 1014 l 451 961 l 211 961 z "},"m":{"ha":903,"x_min":79,"x_max":824,"o":"m 760 0 l 760 571 q 733 677 760 640 q 658 714 707 714 q 533 631 588 714 q 464 386 479 547 l 453 517 q 528 707 468 642 q 664 772 589 772 q 783 719 742 772 q 824 569 824 665 l 824 0 l 760 0 m 79 0 l 79 756 l 136 756 l 143 601 l 143 0 l 79 0 m 419 0 l 419 571 q 392 677 419 640 q 313 714 365 714 q 189 631 243 714 q 119 386 135 547 l 113 517 q 153 657 124 600 q 225 743 182 714 q 317 772 268 772 q 441 719 399 772 q 483 569 483 667 l 483 0 l 419 0 z "},"n":{"ha":903,"x_min":136,"x_max":775,"o":"m 711 0 l 711 486 q 650 651 711 589 q 490 714 589 714 q 294 628 379 714 q 186 375 210 543 l 171 506 q 292 701 206 631 q 493 772 379 772 q 641 736 578 772 q 740 635 704 700 q 775 485 775 571 l 775 0 l 711 0 m 136 0 l 136 756 l 193 756 l 200 549 l 200 0 l 136 0 z "},"ń":{"ha":903,"x_min":136,"x_max":775,"o":"m 711 0 l 711 486 q 650 651 711 589 q 490 714 589 714 q 294 628 379 714 q 186 375 210 543 l 171 506 q 292 701 206 631 q 493 772 379 772 q 641 736 578 772 q 740 635 704 700 q 775 485 775 571 l 775 0 l 711 0 m 136 0 l 136 756 l 193 756 l 200 549 l 200 0 l 136 0 m 396 854 l 517 1081 l 596 1081 l 456 854 l 396 854 z "},"ň":{"ha":903,"x_min":136,"x_max":775,"o":"m 711 0 l 711 486 q 650 651 711 589 q 490 714 589 714 q 294 628 379 714 q 186 375 210 543 l 171 506 q 292 701 206 631 q 493 772 379 772 q 641 736 578 772 q 740 635 704 700 q 775 485 775 571 l 775 0 l 711 0 m 136 0 l 136 756 l 193 756 l 200 549 l 200 0 l 136 0 m 246 1081 l 317 1081 l 456 899 l 594 1081 l 664 1081 l 492 854 l 418 854 l 246 1081 z "},"ņ":{"ha":903,"x_min":136,"x_max":775,"o":"m 711 0 l 711 486 q 650 651 711 589 q 490 714 589 714 q 294 628 379 714 q 186 375 210 543 l 171 506 q 292 701 206 631 q 493 772 379 772 q 641 736 578 772 q 740 635 704 700 q 775 485 775 571 l 775 0 l 711 0 m 136 0 l 136 756 l 193 756 l 200 549 l 200 0 l 136 0 m 425 -281 l 425 -67 l 497 -67 l 468 -281 l 425 -281 z "},"ñ":{"ha":903,"x_min":136,"x_max":775,"o":"m 711 0 l 711 486 q 650 651 711 589 q 490 714 589 714 q 294 628 379 714 q 186 375 210 543 l 171 506 q 292 701 206 631 q 493 772 379 772 q 641 736 578 772 q 740 635 704 700 q 775 485 775 571 l 775 0 l 711 0 m 136 0 l 136 756 l 193 756 l 200 549 l 200 0 l 136 0 m 272 899 l 214 907 q 266 1007 229 972 q 350 1042 303 1042 q 403 1029 375 1042 q 461 1001 432 1017 q 515 972 490 985 q 557 960 540 960 q 605 983 583 960 q 635 1044 626 1007 l 693 1036 q 639 936 675 971 q 557 901 603 901 q 484 922 522 901 q 410 963 446 943 q 350 983 375 983 q 301 960 324 983 q 272 899 279 936 z "},"ŋ":{"ha":903,"x_min":133,"x_max":772,"o":"m 490 774 q 638 738 575 774 q 737 636 701 701 q 772 485 772 571 l 772 -50 q 754 -156 772 -111 q 694 -224 736 -200 q 582 -247 653 -247 l 503 -247 l 503 -194 l 583 -194 q 675 -165 642 -194 q 708 -58 708 -135 l 708 486 q 647 652 708 589 q 488 715 586 715 q 310 647 389 715 q 197 447 231 579 l 197 0 l 133 0 l 133 757 l 190 757 l 196 581 q 318 723 240 672 q 490 774 396 774 z "},"o":{"ha":903,"x_min":85,"x_max":817,"o":"m 450 -17 q 254 31 336 -17 q 128 168 172 79 q 85 378 85 257 q 128 588 85 500 q 254 724 172 676 q 450 772 336 772 q 719 667 621 772 q 817 378 817 561 q 772 168 817 257 q 646 31 728 79 q 450 -17 564 -17 m 450 42 q 671 132 590 42 q 751 378 751 222 q 671 624 751 535 q 450 714 590 714 q 230 624 310 714 q 150 378 150 535 q 230 132 150 222 q 450 42 310 42 z "},"ó":{"ha":903,"x_min":85,"x_max":817,"o":"m 450 -17 q 254 31 336 -17 q 128 168 172 79 q 85 378 85 257 q 128 588 85 500 q 254 724 172 676 q 450 772 336 772 q 719 667 621 772 q 817 378 817 561 q 772 168 817 257 q 646 31 728 79 q 450 -17 564 -17 m 450 42 q 671 132 590 42 q 751 378 751 222 q 671 624 751 535 q 450 714 590 714 q 230 624 310 714 q 150 378 150 535 q 230 132 150 222 q 450 42 310 42 m 392 854 l 513 1081 l 592 1081 l 451 854 l 392 854 z "},"ŏ":{"ha":903,"x_min":85,"x_max":817,"o":"m 450 -17 q 254 31 336 -17 q 128 168 172 79 q 85 378 85 257 q 128 588 85 500 q 254 724 172 676 q 450 772 336 772 q 719 667 621 772 q 817 378 817 561 q 772 168 817 257 q 646 31 728 79 q 450 -17 564 -17 m 450 42 q 671 132 590 42 q 751 378 751 222 q 671 624 751 535 q 450 714 590 714 q 230 624 310 714 q 150 378 150 535 q 230 132 150 222 q 450 42 310 42 m 449 854 q 333 882 382 854 q 256 960 283 910 q 229 1081 229 1011 l 286 1081 q 331 956 286 1001 q 449 910 376 910 q 567 956 522 910 q 613 1081 613 1001 l 669 1081 q 642 960 669 1011 q 566 882 615 910 q 449 854 517 854 z "},"ô":{"ha":903,"x_min":85,"x_max":817,"o":"m 450 -17 q 254 31 336 -17 q 128 168 172 79 q 85 378 85 257 q 128 588 85 500 q 254 724 172 676 q 450 772 336 772 q 719 667 621 772 q 817 378 817 561 q 772 168 817 257 q 646 31 728 79 q 450 -17 564 -17 m 450 42 q 671 132 590 42 q 751 378 751 222 q 671 624 751 535 q 450 714 590 714 q 230 624 310 714 q 150 378 150 535 q 230 132 150 222 q 450 42 310 42 m 240 854 l 413 1081 l 486 1081 l 658 854 l 589 854 l 450 1036 l 311 854 l 240 854 z "},"ö":{"ha":903,"x_min":85,"x_max":817,"o":"m 450 -17 q 254 31 336 -17 q 128 168 172 79 q 85 378 85 257 q 128 588 85 500 q 254 724 172 676 q 450 772 336 772 q 719 667 621 772 q 817 378 817 561 q 772 168 817 257 q 646 31 728 79 q 450 -17 564 -17 m 450 42 q 671 132 590 42 q 751 378 751 222 q 671 624 751 535 q 450 714 590 714 q 230 624 310 714 q 150 378 150 535 q 230 132 150 222 q 450 42 310 42 m 515 917 l 515 1017 l 593 1017 l 593 917 l 515 917 m 307 917 l 307 1017 l 385 1017 l 385 917 l 307 917 z "},"ò":{"ha":903,"x_min":85,"x_max":817,"o":"m 450 -17 q 254 31 336 -17 q 128 168 172 79 q 85 378 85 257 q 128 588 85 500 q 254 724 172 676 q 450 772 336 772 q 719 667 621 772 q 817 378 817 561 q 772 168 817 257 q 646 31 728 79 q 450 -17 564 -17 m 450 42 q 671 132 590 42 q 751 378 751 222 q 671 624 751 535 q 450 714 590 714 q 230 624 310 714 q 150 378 150 535 q 230 132 150 222 q 450 42 310 42 m 511 856 l 451 856 l 311 1082 l 390 1082 l 511 856 z "},"ő":{"ha":903,"x_min":85,"x_max":817,"o":"m 450 -17 q 254 31 336 -17 q 128 168 172 79 q 85 378 85 257 q 128 588 85 500 q 254 724 172 676 q 450 772 336 772 q 719 667 621 772 q 817 378 817 561 q 772 168 817 257 q 646 31 728 79 q 450 -17 564 -17 m 450 42 q 671 132 590 42 q 751 378 751 222 q 671 624 751 535 q 450 714 590 714 q 230 624 310 714 q 150 378 150 535 q 230 132 150 222 q 450 42 310 42 m 324 854 l 444 1081 l 524 1081 l 383 854 l 324 854 m 496 854 l 617 1081 l 696 1081 l 556 854 l 496 854 z "},"ō":{"ha":903,"x_min":85,"x_max":817,"o":"m 450 -17 q 254 31 336 -17 q 128 168 172 79 q 85 378 85 257 q 128 588 85 500 q 254 724 172 676 q 450 772 336 772 q 719 667 621 772 q 817 378 817 561 q 772 168 817 257 q 646 31 728 79 q 450 -17 564 -17 m 450 42 q 671 132 590 42 q 751 378 751 222 q 671 624 751 535 q 450 714 590 714 q 230 624 310 714 q 150 378 150 535 q 230 132 150 222 q 450 42 310 42 m 264 926 l 264 985 l 636 985 l 636 926 l 264 926 z "},"ø":{"ha":903,"x_min":85,"x_max":817,"o":"m 225 -82 l 169 -56 l 678 839 l 733 811 l 225 -82 m 450 -17 q 254 31 336 -17 q 128 168 172 79 q 85 378 85 257 q 128 589 85 500 q 254 726 172 678 q 450 774 336 774 q 646 726 564 774 q 772 589 728 678 q 817 378 817 500 q 772 168 817 257 q 646 31 728 79 q 450 -17 564 -17 m 450 42 q 671 132 590 42 q 751 378 751 222 q 671 625 751 535 q 450 715 590 715 q 230 625 310 715 q 150 378 150 535 q 230 132 150 222 q 450 42 310 42 z "},"ǿ":{"ha":903,"x_min":85,"x_max":817,"o":"m 225 -82 l 169 -56 l 678 839 l 733 811 l 225 -82 m 450 -17 q 254 31 336 -17 q 128 168 172 79 q 85 378 85 257 q 128 589 85 500 q 254 726 172 678 q 450 774 336 774 q 646 726 564 774 q 772 589 728 678 q 817 378 817 500 q 772 168 817 257 q 646 31 728 79 q 450 -17 564 -17 m 450 42 q 671 132 590 42 q 751 378 751 222 q 671 625 751 535 q 450 715 590 715 q 230 625 310 715 q 150 378 150 535 q 230 132 150 222 q 450 42 310 42 m 392 854 l 513 1081 l 592 1081 l 451 854 l 392 854 z "},"õ":{"ha":903,"x_min":85,"x_max":817,"o":"m 450 -17 q 254 31 336 -17 q 128 168 172 79 q 85 378 85 257 q 128 588 85 500 q 254 724 172 676 q 450 772 336 772 q 719 667 621 772 q 817 378 817 561 q 772 168 817 257 q 646 31 728 79 q 450 -17 564 -17 m 450 42 q 671 132 590 42 q 751 378 751 222 q 671 624 751 535 q 450 714 590 714 q 230 624 310 714 q 150 378 150 535 q 230 132 150 222 q 450 42 310 42 m 268 899 l 210 907 q 262 1007 225 972 q 346 1042 299 1042 q 399 1029 371 1042 q 457 1001 428 1017 q 511 972 486 985 q 553 960 536 960 q 601 983 579 960 q 631 1044 622 1007 l 689 1036 q 635 936 671 971 q 553 901 599 901 q 480 922 518 901 q 406 963 442 943 q 346 983 371 983 q 297 960 319 983 q 268 899 275 936 z "},"œ":{"ha":903,"x_min":24,"x_max":889,"o":"m 261 -17 q 87 88 150 -17 q 24 378 24 192 q 87 668 24 564 q 261 772 150 772 q 432 668 371 772 q 493 378 493 564 q 432 88 493 192 q 261 -17 371 -17 m 261 42 q 383 131 339 42 q 428 378 428 219 q 383 625 428 536 q 261 714 339 714 q 135 625 181 714 q 89 378 89 536 q 135 131 89 219 q 261 42 181 42 m 663 -17 q 490 88 553 -17 q 428 379 428 193 q 490 669 428 565 q 664 772 553 772 q 788 733 738 772 q 864 619 839 693 q 885 439 889 544 l 483 439 l 483 499 l 818 496 q 774 656 814 599 q 664 714 733 714 q 538 626 583 714 q 493 381 493 538 q 513 199 493 275 q 572 82 533 122 q 663 42 610 42 q 772 95 728 42 q 825 243 815 149 l 889 243 q 817 52 876 121 q 663 -17 757 -17 z "},"p":{"ha":903,"x_min":136,"x_max":822,"o":"m 476 772 q 657 724 579 772 q 778 587 735 675 q 822 378 822 499 q 778 169 822 258 q 657 32 735 81 q 476 -17 579 -17 q 314 23 386 -17 q 200 131 242 63 l 200 -247 l 136 -247 l 136 756 l 193 756 l 197 622 q 312 731 239 690 q 476 772 385 772 m 471 42 q 622 83 558 42 q 722 201 686 125 q 757 378 757 276 q 722 556 757 481 q 622 673 686 632 q 471 714 558 714 q 309 667 382 714 q 200 535 236 619 l 200 222 q 309 90 236 138 q 471 42 382 42 z "},"þ":{"ha":903,"x_min":139,"x_max":825,"o":"m 479 774 q 660 725 582 774 q 781 588 738 676 q 825 378 825 499 q 781 169 825 258 q 660 32 738 81 q 479 -17 582 -17 q 315 24 388 -17 q 203 131 242 65 l 203 -247 l 139 -247 l 139 1015 l 203 1015 l 203 626 q 317 734 244 694 q 479 774 389 774 m 474 42 q 625 83 561 42 q 724 201 689 125 q 760 378 760 276 q 724 556 760 481 q 625 674 689 632 q 474 715 561 715 q 312 668 385 715 q 203 535 239 621 l 203 222 q 312 90 239 138 q 474 42 385 42 z "},"q":{"ha":903,"x_min":81,"x_max":767,"o":"m 426 772 q 591 731 518 772 q 706 622 664 690 l 710 756 l 767 756 l 767 -247 l 703 -247 l 703 131 q 589 23 661 63 q 426 -17 517 -17 q 246 32 324 -17 q 124 169 168 81 q 81 378 81 258 q 124 587 81 499 q 246 724 168 675 q 426 772 324 772 m 432 42 q 595 90 522 42 q 703 222 668 138 l 703 535 q 595 667 668 619 q 432 714 522 714 q 281 673 344 714 q 181 556 217 632 q 146 378 146 481 q 181 201 146 276 q 281 83 217 125 q 432 42 344 42 z "},"r":{"ha":903,"x_min":185,"x_max":767,"o":"m 703 485 l 703 564 q 658 673 703 632 q 532 714 613 714 q 342 626 422 714 q 232 378 263 539 l 214 479 q 284 640 239 575 q 392 739 329 706 q 532 772 456 772 q 703 715 639 772 q 767 564 767 658 l 767 485 l 703 485 m 185 0 l 185 756 l 239 756 l 249 547 l 249 0 l 185 0 z "},"ŕ":{"ha":903,"x_min":185,"x_max":767,"o":"m 703 485 l 703 564 q 658 673 703 632 q 532 714 613 714 q 342 626 422 714 q 232 378 263 539 l 214 479 q 284 640 239 575 q 392 739 329 706 q 532 772 456 772 q 703 715 639 772 q 767 564 767 658 l 767 485 l 703 485 m 185 0 l 185 756 l 239 756 l 249 547 l 249 0 l 185 0 m 417 854 l 538 1081 l 617 1081 l 476 854 l 417 854 z "},"ř":{"ha":903,"x_min":185,"x_max":767,"o":"m 703 485 l 703 564 q 658 673 703 632 q 532 714 613 714 q 342 626 422 714 q 232 378 263 539 l 214 479 q 284 640 239 575 q 392 739 329 706 q 532 772 456 772 q 703 715 639 772 q 767 564 767 658 l 767 485 l 703 485 m 185 0 l 185 756 l 239 756 l 249 547 l 249 0 l 185 0 m 267 1081 l 338 1081 l 476 899 l 615 1081 l 685 1081 l 513 854 l 439 854 l 267 1081 z "},"ŗ":{"ha":903,"x_min":182,"x_max":767,"o":"m 703 485 l 703 564 q 658 673 703 632 q 532 714 613 714 q 342 626 422 714 q 232 378 263 539 l 214 479 q 284 640 239 575 q 392 739 329 706 q 532 772 456 772 q 703 715 639 772 q 767 564 767 658 l 767 485 l 703 485 m 185 0 l 185 756 l 239 756 l 249 547 l 249 0 l 185 0 m 182 -281 l 182 -67 l 254 -67 l 225 -281 l 182 -281 z "},"s":{"ha":903,"x_min":156,"x_max":764,"o":"m 472 -17 q 306 18 378 -17 q 196 117 235 53 q 156 269 157 181 l 219 269 q 292 103 222 164 q 472 42 361 42 q 637 83 575 42 q 699 193 699 124 q 669 276 699 244 q 593 324 640 307 q 489 353 546 342 q 376 377 432 364 q 272 410 319 390 q 196 467 225 431 q 167 563 167 503 q 199 668 167 621 q 296 744 232 715 q 451 772 360 772 q 669 708 589 772 q 754 538 750 644 l 690 538 q 622 667 685 621 q 450 714 560 714 q 286 668 340 714 q 232 563 232 622 q 261 489 232 515 q 338 448 290 463 q 442 424 385 433 q 555 401 499 414 q 658 364 611 388 q 735 299 706 340 q 764 190 764 258 q 684 39 764 94 q 472 -17 604 -17 z "},"ś":{"ha":903,"x_min":156,"x_max":764,"o":"m 472 -17 q 306 18 378 -17 q 196 117 235 53 q 156 269 157 181 l 219 269 q 292 103 222 164 q 472 42 361 42 q 637 83 575 42 q 699 193 699 124 q 669 276 699 244 q 593 324 640 307 q 489 353 546 342 q 376 377 432 364 q 272 410 319 390 q 196 467 225 431 q 167 563 167 503 q 199 668 167 621 q 296 744 232 715 q 451 772 360 772 q 669 708 589 772 q 754 538 750 644 l 690 538 q 622 667 685 621 q 450 714 560 714 q 286 668 340 714 q 232 563 232 622 q 261 489 232 515 q 338 448 290 463 q 442 424 385 433 q 555 401 499 414 q 658 364 611 388 q 735 299 706 340 q 764 190 764 258 q 684 39 764 94 q 472 -17 604 -17 m 400 854 l 521 1081 l 600 1081 l 460 854 l 400 854 z "},"š":{"ha":903,"x_min":156,"x_max":764,"o":"m 472 -17 q 306 18 378 -17 q 196 117 235 53 q 156 269 157 181 l 219 269 q 292 103 222 164 q 472 42 361 42 q 637 83 575 42 q 699 193 699 124 q 669 276 699 244 q 593 324 640 307 q 489 353 546 342 q 376 377 432 364 q 272 410 319 390 q 196 467 225 431 q 167 563 167 503 q 199 668 167 621 q 296 744 232 715 q 451 772 360 772 q 669 708 589 772 q 754 538 750 644 l 690 538 q 622 667 685 621 q 450 714 560 714 q 286 668 340 714 q 232 563 232 622 q 261 489 232 515 q 338 448 290 463 q 442 424 385 433 q 555 401 499 414 q 658 364 611 388 q 735 299 706 340 q 764 190 764 258 q 684 39 764 94 q 472 -17 604 -17 m 250 1081 l 321 1081 l 460 899 l 599 1081 l 668 1081 l 496 854 l 422 854 l 250 1081 z "},"ş":{"ha":903,"x_min":156,"x_max":764,"o":"m 472 -17 q 306 18 378 -17 q 196 117 235 53 q 156 269 157 181 l 219 269 q 292 103 222 164 q 472 42 361 42 q 637 83 575 42 q 699 193 699 124 q 669 276 699 244 q 593 324 640 307 q 489 353 546 342 q 376 377 432 364 q 272 410 319 390 q 196 467 225 431 q 167 563 167 503 q 199 668 167 621 q 296 744 232 715 q 451 772 360 772 q 669 708 589 772 q 754 538 750 644 l 690 538 q 622 667 685 621 q 450 714 560 714 q 286 668 340 714 q 232 563 232 622 q 261 489 232 515 q 338 448 290 463 q 442 424 385 433 q 555 401 499 414 q 658 364 611 388 q 735 299 706 340 q 764 190 764 258 q 684 39 764 94 q 472 -17 604 -17 m 454 -306 q 383 -299 417 -306 q 325 -282 349 -292 l 325 -235 q 388 -252 360 -246 q 443 -258 415 -258 q 522 -240 492 -258 q 551 -194 551 -222 q 532 -149 551 -164 q 476 -133 513 -133 q 438 -136 458 -133 q 399 -144 418 -139 l 371 -119 l 458 26 l 500 1 l 438 -99 q 466 -92 456 -93 q 486 -92 476 -92 q 551 -103 525 -92 q 592 -138 578 -115 q 607 -194 607 -161 q 588 -253 607 -228 q 534 -292 568 -278 q 454 -306 500 -306 z "},"ŝ":{"ha":903,"x_min":156,"x_max":764,"o":"m 472 -17 q 306 18 378 -17 q 196 117 235 53 q 156 269 157 181 l 219 269 q 292 103 222 164 q 472 42 361 42 q 637 83 575 42 q 699 193 699 124 q 669 276 699 244 q 593 324 640 307 q 489 353 546 342 q 376 377 432 364 q 272 410 319 390 q 196 467 225 431 q 167 563 167 503 q 199 668 167 621 q 296 744 232 715 q 451 772 360 772 q 669 708 589 772 q 754 538 750 644 l 690 538 q 622 667 685 621 q 450 714 560 714 q 286 668 340 714 q 232 563 232 622 q 261 489 232 515 q 338 448 290 463 q 442 424 385 433 q 555 401 499 414 q 658 364 611 388 q 735 299 706 340 q 764 190 764 258 q 684 39 764 94 q 472 -17 604 -17 m 249 854 l 421 1081 l 494 1081 l 667 854 l 597 854 l 458 1036 l 319 854 l 249 854 z "},"ș":{"ha":903,"x_min":156,"x_max":764,"o":"m 472 -17 q 306 18 378 -17 q 196 117 235 53 q 156 269 157 181 l 219 269 q 292 103 222 164 q 472 42 361 42 q 637 83 575 42 q 699 193 699 124 q 669 276 699 244 q 593 324 640 307 q 489 353 546 342 q 376 377 432 364 q 272 410 319 390 q 196 467 225 431 q 167 563 167 503 q 199 668 167 621 q 296 744 232 715 q 451 772 360 772 q 669 708 589 772 q 754 538 750 644 l 690 538 q 622 667 685 621 q 450 714 560 714 q 286 668 340 714 q 232 563 232 622 q 261 489 232 515 q 338 448 290 463 q 442 424 385 433 q 555 401 499 414 q 658 364 611 388 q 735 299 706 340 q 764 190 764 258 q 684 39 764 94 q 472 -17 604 -17 m 428 -281 l 428 -67 l 500 -67 l 471 -281 l 428 -281 z "},"ß":{"ha":903,"x_min":140,"x_max":822,"o":"m 481 -19 q 394 -13 438 -19 q 319 4 351 -7 l 319 63 q 395 45 351 51 q 478 39 439 39 q 617 64 554 39 q 719 140 681 89 q 757 269 757 192 q 677 444 757 383 q 469 504 597 504 l 319 504 l 319 563 l 469 563 q 574 589 528 563 q 646 660 619 615 q 672 761 672 706 q 647 855 672 810 q 574 928 622 900 q 454 957 526 957 q 274 884 343 957 q 204 692 204 811 l 204 0 l 140 0 l 140 692 q 180 864 140 792 q 290 976 219 936 q 453 1015 360 1015 q 609 979 546 1015 q 705 886 672 943 q 738 765 738 829 q 685 615 738 676 q 558 528 633 553 l 539 553 q 688 510 625 547 q 787 410 751 472 q 822 267 822 347 q 776 110 822 174 q 653 13 731 46 q 481 -19 576 -19 z "},"t":{"ha":903,"x_min":122,"x_max":792,"o":"m 514 0 q 408 22 449 0 q 349 85 368 43 q 331 189 331 128 l 331 915 l 394 971 l 394 189 q 403 125 394 157 q 442 73 413 93 q 529 53 471 53 l 792 53 l 792 0 l 514 0 m 122 703 l 122 756 l 686 756 l 686 703 l 122 703 z "},"ŧ":{"ha":903,"x_min":122,"x_max":792,"o":"m 124 386 l 124 436 l 690 436 l 690 386 l 124 386 m 514 0 q 408 22 449 0 q 349 85 368 43 q 331 189 331 128 l 331 915 l 394 971 l 394 189 q 403 125 394 157 q 442 73 413 93 q 529 53 471 53 l 792 53 l 792 0 l 514 0 m 122 703 l 122 756 l 686 756 l 686 703 l 122 703 z "},"ť":{"ha":903,"x_min":122,"x_max":792,"o":"m 514 0 q 408 22 449 0 q 349 85 368 43 q 331 189 331 128 l 331 915 l 394 971 l 394 189 q 403 125 394 157 q 442 73 413 93 q 529 53 471 53 l 792 53 l 792 0 l 514 0 m 122 703 l 122 756 l 686 756 l 686 703 l 122 703 m 489 842 l 507 1124 l 578 1124 l 539 842 l 489 842 z "},"ţ":{"ha":903,"x_min":122,"x_max":792,"o":"m 514 0 q 408 22 449 0 q 349 85 368 43 q 331 189 331 128 l 331 915 l 394 971 l 394 189 q 403 125 394 157 q 442 73 413 93 q 529 53 471 53 l 792 53 l 792 0 l 514 0 m 122 703 l 122 756 l 686 756 l 686 703 l 122 703 m 535 -306 q 463 -299 497 -306 q 406 -282 429 -292 l 406 -235 q 468 -252 440 -246 q 524 -258 496 -258 q 602 -240 572 -258 q 632 -194 632 -222 q 613 -149 632 -164 q 557 -133 593 -133 q 519 -136 539 -133 q 479 -144 499 -139 l 451 -119 l 539 26 l 581 1 l 518 -99 q 547 -92 536 -93 q 567 -92 557 -92 q 632 -103 606 -92 q 673 -138 658 -115 q 688 -194 688 -161 q 668 -253 688 -228 q 615 -292 649 -278 q 535 -306 581 -306 z "},"ț":{"ha":903,"x_min":122,"x_max":792,"o":"m 514 0 q 408 22 449 0 q 349 85 368 43 q 331 189 331 128 l 331 915 l 394 971 l 394 189 q 403 125 394 157 q 442 73 413 93 q 529 53 471 53 l 792 53 l 792 0 l 514 0 m 122 703 l 122 756 l 686 756 l 686 703 l 122 703 m 508 -281 l 508 -67 l 581 -67 l 551 -281 l 508 -281 z "},"u":{"ha":903,"x_min":125,"x_max":764,"o":"m 189 756 l 189 269 q 250 104 189 167 q 410 42 311 42 q 606 127 521 42 q 714 381 690 213 l 729 250 q 608 54 694 125 q 407 -17 521 -17 q 259 19 322 -17 q 160 120 196 56 q 125 271 125 185 l 125 756 l 189 756 m 764 756 l 764 0 l 707 0 l 700 207 l 700 756 l 764 756 z "},"ú":{"ha":903,"x_min":125,"x_max":764,"o":"m 189 756 l 189 269 q 250 104 189 167 q 410 42 311 42 q 606 127 521 42 q 714 381 690 213 l 729 250 q 608 54 694 125 q 407 -17 521 -17 q 259 19 322 -17 q 160 120 196 56 q 125 271 125 185 l 125 756 l 189 756 m 764 756 l 764 0 l 707 0 l 700 207 l 700 756 l 764 756 m 389 853 l 510 1079 l 589 1079 l 449 853 l 389 853 z "},"ŭ":{"ha":903,"x_min":125,"x_max":764,"o":"m 189 756 l 189 269 q 250 104 189 167 q 410 42 311 42 q 606 127 521 42 q 714 381 690 213 l 729 250 q 608 54 694 125 q 407 -17 521 -17 q 259 19 322 -17 q 160 120 196 56 q 125 271 125 185 l 125 756 l 189 756 m 764 756 l 764 0 l 707 0 l 700 207 l 700 756 l 764 756 m 446 853 q 330 881 379 853 q 253 959 281 908 q 226 1079 226 1010 l 283 1079 q 328 954 283 1000 q 446 908 374 908 q 565 954 519 908 q 610 1079 610 1000 l 667 1079 q 640 959 667 1010 q 563 881 613 908 q 446 853 514 853 z "},"û":{"ha":903,"x_min":125,"x_max":764,"o":"m 189 756 l 189 269 q 250 104 189 167 q 410 42 311 42 q 606 127 521 42 q 714 381 690 213 l 729 250 q 608 54 694 125 q 407 -17 521 -17 q 259 19 322 -17 q 160 120 196 56 q 125 271 125 185 l 125 756 l 189 756 m 764 756 l 764 0 l 707 0 l 700 207 l 700 756 l 764 756 m 238 853 l 410 1079 l 483 1079 l 656 853 l 586 853 l 447 1035 l 308 853 l 238 853 z "},"ü":{"ha":903,"x_min":125,"x_max":764,"o":"m 189 756 l 189 269 q 250 104 189 167 q 410 42 311 42 q 606 127 521 42 q 714 381 690 213 l 729 250 q 608 54 694 125 q 407 -17 521 -17 q 259 19 322 -17 q 160 120 196 56 q 125 271 125 185 l 125 756 l 189 756 m 764 756 l 764 0 l 707 0 l 700 207 l 700 756 l 764 756 m 513 915 l 513 1015 l 590 1015 l 590 915 l 513 915 m 304 915 l 304 1015 l 382 1015 l 382 915 l 304 915 z "},"ù":{"ha":903,"x_min":125,"x_max":764,"o":"m 189 756 l 189 269 q 250 104 189 167 q 410 42 311 42 q 606 127 521 42 q 714 381 690 213 l 729 250 q 608 54 694 125 q 407 -17 521 -17 q 259 19 322 -17 q 160 120 196 56 q 125 271 125 185 l 125 756 l 189 756 m 764 756 l 764 0 l 707 0 l 700 207 l 700 756 l 764 756 m 508 854 l 449 854 l 308 1081 l 388 1081 l 508 854 z "},"ű":{"ha":903,"x_min":125,"x_max":764,"o":"m 189 756 l 189 269 q 250 104 189 167 q 410 42 311 42 q 606 127 521 42 q 714 381 690 213 l 729 250 q 608 54 694 125 q 407 -17 521 -17 q 259 19 322 -17 q 160 120 196 56 q 125 271 125 185 l 125 756 l 189 756 m 764 756 l 764 0 l 707 0 l 700 207 l 700 756 l 764 756 m 321 853 l 442 1079 l 521 1079 l 381 853 l 321 853 m 493 853 l 614 1079 l 693 1079 l 553 853 l 493 853 z "},"ū":{"ha":903,"x_min":125,"x_max":764,"o":"m 189 756 l 189 269 q 250 104 189 167 q 410 42 311 42 q 606 127 521 42 q 714 381 690 213 l 729 250 q 608 54 694 125 q 407 -17 521 -17 q 259 19 322 -17 q 160 120 196 56 q 125 271 125 185 l 125 756 l 189 756 m 764 756 l 764 0 l 707 0 l 700 207 l 700 756 l 764 756 m 261 925 l 261 983 l 633 983 l 633 925 l 261 925 z "},"ų":{"ha":903,"x_min":125,"x_max":764,"o":"m 189 756 l 189 269 q 250 104 189 167 q 410 42 311 42 q 606 127 521 42 q 714 381 690 213 l 729 250 q 608 54 694 125 q 407 -17 521 -17 q 259 19 322 -17 q 160 120 196 56 q 125 271 125 185 l 125 756 l 189 756 m 764 756 l 764 0 l 707 0 l 700 207 l 700 756 l 764 756 m 761 -281 q 740 -285 750 -283 q 715 -287 731 -287 q 630 -258 661 -287 q 599 -179 599 -229 q 614 -109 599 -146 q 659 -37 629 -72 q 731 25 689 -1 l 764 0 q 680 -83 708 -36 q 651 -171 651 -131 q 671 -220 651 -201 q 724 -239 690 -239 q 744 -237 736 -239 q 761 -233 753 -235 l 761 -281 z "},"ů":{"ha":903,"x_min":125,"x_max":764,"o":"m 189 756 l 189 269 q 250 104 189 167 q 410 42 311 42 q 606 127 521 42 q 714 381 690 213 l 729 250 q 608 54 694 125 q 407 -17 521 -17 q 259 19 322 -17 q 160 120 196 56 q 125 271 125 185 l 125 756 l 189 756 m 764 756 l 764 0 l 707 0 l 700 207 l 700 756 l 764 756 m 446 835 q 342 874 382 835 q 301 974 301 913 q 342 1074 301 1035 q 446 1113 382 1113 q 551 1074 511 1113 q 592 974 592 1035 q 551 874 592 913 q 446 835 511 835 m 446 883 q 510 909 486 883 q 535 974 535 935 q 510 1038 535 1013 q 446 1063 486 1063 q 383 1038 407 1063 q 358 974 358 1013 q 383 909 358 935 q 446 883 407 883 z "},"ũ":{"ha":903,"x_min":125,"x_max":764,"o":"m 189 756 l 189 269 q 250 104 189 167 q 410 42 311 42 q 606 127 521 42 q 714 381 690 213 l 729 250 q 608 54 694 125 q 407 -17 521 -17 q 259 19 322 -17 q 160 120 196 56 q 125 271 125 185 l 125 756 l 189 756 m 764 756 l 764 0 l 707 0 l 700 207 l 700 756 l 764 756 m 265 897 l 207 906 q 259 1006 222 971 q 343 1040 296 1040 q 397 1028 368 1040 q 454 999 425 1015 q 508 971 483 983 q 550 958 533 958 q 598 982 576 958 q 628 1043 619 1006 l 686 1035 q 632 935 668 969 q 550 900 596 900 q 477 921 515 900 q 403 962 439 942 q 343 982 368 982 q 294 958 317 982 q 265 897 272 935 z "},"v":{"ha":903,"x_min":96,"x_max":806,"o":"m 417 0 l 96 756 l 165 756 l 390 226 l 451 68 l 513 226 l 738 756 l 806 756 l 485 0 l 417 0 z "},"w":{"ha":903,"x_min":35,"x_max":869,"o":"m 182 0 l 35 757 l 96 757 l 189 283 l 231 74 l 288 283 l 425 757 l 482 757 l 622 283 l 678 74 l 717 283 l 810 757 l 869 757 l 721 0 l 639 0 l 504 475 l 454 669 l 403 475 l 267 0 l 182 0 z "},"ẃ":{"ha":903,"x_min":35,"x_max":869,"o":"m 182 0 l 35 757 l 96 757 l 189 283 l 231 74 l 288 283 l 425 757 l 482 757 l 622 283 l 678 74 l 717 283 l 810 757 l 869 757 l 721 0 l 639 0 l 504 475 l 454 669 l 403 475 l 267 0 l 182 0 m 394 854 l 515 1081 l 594 1081 l 454 854 l 394 854 z "},"ŵ":{"ha":903,"x_min":35,"x_max":869,"o":"m 182 0 l 35 757 l 96 757 l 189 283 l 231 74 l 288 283 l 425 757 l 482 757 l 622 283 l 678 74 l 717 283 l 810 757 l 869 757 l 721 0 l 639 0 l 504 475 l 454 669 l 403 475 l 267 0 l 182 0 m 243 854 l 415 1081 l 489 1081 l 661 854 l 592 854 l 453 1036 l 314 854 l 243 854 z "},"ẅ":{"ha":903,"x_min":35,"x_max":869,"o":"m 182 0 l 35 757 l 96 757 l 189 283 l 231 74 l 288 283 l 425 757 l 482 757 l 622 283 l 678 74 l 717 283 l 810 757 l 869 757 l 721 0 l 639 0 l 504 475 l 454 669 l 403 475 l 267 0 l 182 0 m 518 917 l 518 1017 l 596 1017 l 596 917 l 518 917 m 310 917 l 310 1017 l 388 1017 l 388 917 l 310 917 z "},"ẁ":{"ha":903,"x_min":35,"x_max":869,"o":"m 182 0 l 35 757 l 96 757 l 189 283 l 231 74 l 288 283 l 425 757 l 482 757 l 622 283 l 678 74 l 717 283 l 810 757 l 869 757 l 721 0 l 639 0 l 504 475 l 454 669 l 403 475 l 267 0 l 182 0 m 514 856 l 454 856 l 314 1082 l 393 1082 l 514 856 z "},"x":{"ha":903,"x_min":119,"x_max":785,"o":"m 489 394 l 785 0 l 706 0 l 565 189 l 451 347 l 336 188 l 196 0 l 119 0 l 413 393 l 136 756 l 214 756 l 333 597 l 449 440 l 564 599 l 683 756 l 760 756 l 489 394 z "},"y":{"ha":903,"x_min":100,"x_max":806,"o":"m 379 268 l 454 86 l 529 269 l 736 756 l 806 756 l 439 -104 q 383 -204 411 -169 q 319 -251 354 -239 q 235 -264 283 -264 l 107 -264 l 107 -211 l 239 -211 q 297 -198 272 -211 q 342 -151 321 -185 q 389 -57 364 -118 l 418 13 l 100 756 l 171 756 l 379 268 z "},"ý":{"ha":903,"x_min":100,"x_max":806,"o":"m 379 268 l 454 86 l 529 269 l 736 756 l 806 756 l 439 -104 q 383 -204 411 -169 q 319 -251 354 -239 q 235 -264 283 -264 l 107 -264 l 107 -211 l 239 -211 q 297 -198 272 -211 q 342 -151 321 -185 q 389 -57 364 -118 l 418 13 l 100 756 l 171 756 l 379 268 m 390 854 l 511 1081 l 590 1081 l 450 854 l 390 854 z "},"ŷ":{"ha":903,"x_min":100,"x_max":806,"o":"m 379 268 l 454 86 l 529 269 l 736 756 l 806 756 l 439 -104 q 383 -204 411 -169 q 319 -251 354 -239 q 235 -264 283 -264 l 107 -264 l 107 -211 l 239 -211 q 297 -198 272 -211 q 342 -151 321 -185 q 389 -57 364 -118 l 418 13 l 100 756 l 171 756 l 379 268 m 239 854 l 411 1081 l 485 1081 l 657 854 l 588 854 l 449 1036 l 310 854 l 239 854 z "},"ÿ":{"ha":903,"x_min":100,"x_max":806,"o":"m 379 268 l 454 86 l 529 269 l 736 756 l 806 756 l 439 -104 q 383 -204 411 -169 q 319 -251 354 -239 q 235 -264 283 -264 l 107 -264 l 107 -211 l 239 -211 q 297 -198 272 -211 q 342 -151 321 -185 q 389 -57 364 -118 l 418 13 l 100 756 l 171 756 l 379 268 m 514 917 l 514 1017 l 592 1017 l 592 917 l 514 917 m 306 917 l 306 1017 l 383 1017 l 383 917 l 306 917 z "},"ỳ":{"ha":903,"x_min":100,"x_max":806,"o":"m 379 268 l 454 86 l 529 269 l 736 756 l 806 756 l 439 -104 q 383 -204 411 -169 q 319 -251 354 -239 q 235 -264 283 -264 l 107 -264 l 107 -211 l 239 -211 q 297 -198 272 -211 q 342 -151 321 -185 q 389 -57 364 -118 l 418 13 l 100 756 l 171 756 l 379 268 m 510 856 l 450 856 l 310 1082 l 389 1082 l 510 856 z "},"z":{"ha":903,"x_min":133,"x_max":775,"o":"m 133 0 l 133 47 l 571 558 l 694 704 l 504 703 l 157 703 l 157 756 l 775 756 l 775 708 l 340 199 l 213 51 l 404 53 l 775 53 l 775 0 l 133 0 z "},"ź":{"ha":903,"x_min":133,"x_max":775,"o":"m 133 0 l 133 47 l 571 558 l 694 704 l 504 703 l 157 703 l 157 756 l 775 756 l 775 708 l 340 199 l 213 51 l 404 53 l 775 53 l 775 0 l 133 0 m 390 854 l 511 1081 l 590 1081 l 450 854 l 390 854 z "},"ž":{"ha":903,"x_min":133,"x_max":775,"o":"m 133 0 l 133 47 l 571 558 l 694 704 l 504 703 l 157 703 l 157 756 l 775 756 l 775 708 l 340 199 l 213 51 l 404 53 l 775 53 l 775 0 l 133 0 m 240 1081 l 311 1081 l 450 899 l 589 1081 l 658 1081 l 486 854 l 413 854 l 240 1081 z "},"ż":{"ha":903,"x_min":133,"x_max":775,"o":"m 133 0 l 133 47 l 571 558 l 694 704 l 504 703 l 157 703 l 157 756 l 775 756 l 775 708 l 340 199 l 213 51 l 404 53 l 775 53 l 775 0 l 133 0 m 407 914 l 407 1014 l 490 1014 l 490 914 l 407 914 z "},"ﬁ":{"ha":1806,"x_min":150,"x_max":1656,"o":"m 756 703 l 756 756 l 1193 756 l 1193 703 l 756 703 m 1318 0 l 1318 756 l 1382 756 l 1382 0 l 1318 0 m 1053 0 l 1053 53 l 1656 53 l 1656 0 l 1053 0 m 1110 703 l 1110 756 l 1350 756 l 1350 703 l 1110 703 m 415 0 l 415 851 q 432 954 415 910 q 490 1024 449 999 q 606 1049 532 1049 l 822 1049 l 822 996 l 604 996 q 538 983 567 996 q 494 942 510 971 q 479 860 479 913 l 479 0 l 415 0 m 207 703 l 207 756 l 771 756 l 771 703 l 207 703 m 150 0 l 150 53 l 808 53 l 808 0 l 150 0 z "},"ﬂ":{"ha":1806,"x_min":122,"x_max":1683,"o":"m 401 0 l 401 817 q 418 919 401 875 q 476 989 435 964 q 592 1014 518 1014 l 808 1014 l 808 961 l 590 961 q 500 932 535 961 q 465 825 465 903 l 465 0 l 401 0 m 122 703 l 122 756 l 808 756 l 808 703 l 122 703 m 136 0 l 136 53 l 794 53 l 794 0 l 136 0 m 1304 0 l 1304 1014 l 1368 1014 l 1368 0 l 1304 0 m 1039 0 l 1039 53 l 1683 53 l 1683 0 l 1039 0 m 1096 961 l 1096 1014 l 1336 1014 l 1336 961 l 1096 961 z "},"ª":{"ha":903,"x_min":235,"x_max":633,"o":"m 583 485 l 579 625 l 579 786 q 542 897 579 856 q 435 938 504 938 q 333 902 374 938 q 289 807 292 867 l 235 807 q 292 933 240 882 q 432 985 344 985 q 578 931 522 985 q 633 790 633 878 l 633 485 l 583 485 m 403 472 q 321 491 356 472 q 267 542 286 510 q 249 615 249 574 q 306 733 249 689 q 456 778 363 778 l 590 778 l 590 731 l 453 731 q 345 698 386 731 q 304 615 304 665 q 331 549 304 576 q 410 522 358 522 q 510 554 463 522 q 585 649 558 586 l 604 611 q 558 538 589 569 q 488 490 528 507 q 403 472 449 472 z "},"º":{"ha":903,"x_min":221,"x_max":682,"o":"m 451 467 q 284 536 347 467 q 221 726 221 606 q 284 915 221 846 q 451 985 347 985 q 619 915 556 985 q 682 726 682 846 q 619 536 682 606 q 451 467 556 467 m 451 515 q 579 572 531 515 q 628 726 628 628 q 579 881 628 825 q 451 936 531 936 q 324 881 372 936 q 276 726 276 825 q 324 572 276 628 q 451 515 372 515 z "},"Δ":{"ha":903,"x_min":33,"x_max":871,"o":"m 33 0 l 33 61 l 413 969 l 492 969 l 871 61 l 871 0 l 33 0 m 103 61 l 800 61 l 451 903 l 103 61 z "},"Ω":{"ha":903,"x_min":19,"x_max":885,"o":"m 32 0 l 32 63 l 161 63 l 281 53 q 85 258 150 132 q 19 524 19 385 q 74 760 19 656 q 226 926 128 865 q 453 986 324 986 q 680 926 583 986 q 831 760 776 865 q 885 522 885 656 q 821 258 885 383 q 628 53 757 132 l 751 63 l 882 63 l 882 0 l 524 0 l 524 51 q 738 256 664 131 q 813 524 813 382 q 767 728 813 638 q 641 871 722 818 q 453 924 560 924 q 263 871 344 924 q 137 728 182 818 q 92 525 92 638 q 168 256 92 382 q 389 50 244 129 l 389 0 l 32 0 z "},"μ":{"ha":903,"x_min":125,"x_max":764,"o":"m 125 -264 l 125 353 l 189 353 l 189 158 l 189 118 l 189 -264 l 125 -264 m 189 756 l 189 269 q 250 105 189 168 q 410 42 311 42 q 606 127 521 42 q 714 381 692 213 l 729 250 q 608 54 694 125 q 407 -17 521 -17 q 259 19 322 -17 q 160 120 196 56 q 125 271 125 185 l 125 756 l 189 756 m 764 756 l 764 0 l 707 0 l 700 207 l 700 756 l 764 756 z "},"π":{"ha":903,"x_min":29,"x_max":846,"o":"m 735 0 q 633 24 669 0 q 581 90 596 49 q 565 183 565 132 l 565 756 l 629 756 l 629 183 q 638 122 629 153 q 672 72 646 92 q 750 53 699 53 l 846 53 l 846 0 l 735 0 m 232 0 l 232 756 l 296 756 l 296 0 l 232 0 m 29 700 l 29 756 l 832 756 l 832 700 l 29 700 z "},"⁰":{"ha":903,"x_min":218,"x_max":685,"o":"m 451 396 q 324 436 376 396 q 245 549 272 476 q 218 717 218 621 q 245 888 218 815 q 324 999 272 960 q 451 1039 376 1039 q 578 999 526 1039 q 658 888 631 960 q 685 717 685 815 q 658 547 685 619 q 578 435 631 475 q 451 396 526 396 m 451 450 q 578 522 536 450 q 621 717 621 594 q 578 913 621 842 q 451 985 536 985 q 325 913 368 985 q 282 717 282 842 q 325 522 282 594 q 451 450 368 450 z "},"¹":{"ha":903,"x_min":196,"x_max":704,"o":"m 444 417 l 444 965 l 229 792 l 229 864 l 453 1039 l 506 1039 l 506 417 l 444 417 m 196 471 l 704 471 l 704 417 l 196 417 l 196 471 z "},"²":{"ha":903,"x_min":236,"x_max":656,"o":"m 236 418 l 236 464 q 442 637 364 563 q 555 768 519 711 q 590 871 590 825 q 553 961 590 926 q 451 996 517 996 q 349 960 392 996 q 301 849 307 924 l 239 849 q 305 999 247 947 q 451 1050 363 1050 q 599 1000 546 1050 q 653 871 653 950 q 620 756 653 815 q 515 628 588 697 q 322 472 443 558 l 656 472 l 656 418 l 236 418 z "},"³":{"ha":903,"x_min":246,"x_max":676,"o":"m 461 407 q 354 431 403 407 q 276 501 306 456 q 246 608 247 546 l 307 608 q 353 502 308 542 q 461 463 399 463 q 569 497 526 463 q 613 588 613 532 q 561 685 613 653 q 439 718 510 718 l 406 718 l 406 771 l 442 771 q 545 808 508 771 q 582 892 582 844 q 549 967 582 939 q 461 996 517 996 q 360 960 401 996 q 315 851 319 924 l 253 851 q 289 965 258 921 q 365 1029 319 1008 q 461 1050 411 1050 q 597 1007 546 1050 q 647 890 647 964 q 613 798 647 839 q 528 749 579 757 q 635 697 593 739 q 676 589 676 654 q 617 458 676 508 q 461 407 557 407 z "},"⁴":{"ha":903,"x_min":194,"x_max":715,"o":"m 525 417 l 525 574 l 194 574 l 194 618 l 501 1039 l 585 1039 l 585 626 l 715 626 l 715 574 l 585 574 l 585 417 l 525 417 m 263 626 l 525 626 l 525 983 l 263 626 z "},"⁵":{"ha":903,"x_min":253,"x_max":672,"o":"m 457 406 q 315 454 372 406 q 253 581 257 503 l 311 581 q 356 494 318 528 q 457 460 393 460 q 567 507 526 460 q 608 629 608 554 q 567 736 608 694 q 461 778 526 778 q 381 756 421 778 q 317 697 342 735 l 260 697 l 311 1039 l 644 1039 l 644 985 l 360 985 l 325 760 q 390 812 349 790 q 474 833 432 833 q 578 808 533 833 q 647 736 622 782 q 672 629 672 690 q 613 468 672 531 q 457 406 554 406 z "},"⁶":{"ha":903,"x_min":238,"x_max":676,"o":"m 474 826 q 576 801 531 826 q 649 733 622 776 q 676 629 676 689 q 650 513 676 563 q 576 435 624 463 q 461 407 528 407 q 344 444 394 407 q 265 547 293 481 q 238 699 238 613 q 267 879 238 800 q 349 1004 296 958 q 472 1050 401 1050 q 545 1039 513 1050 q 602 1007 578 1028 q 642 958 626 986 q 661 899 657 931 l 600 899 q 556 971 592 946 q 471 996 519 996 q 349 922 394 996 q 300 724 304 847 q 370 799 325 772 q 474 826 415 826 m 461 461 q 571 506 528 461 q 614 618 614 550 q 573 730 614 688 q 467 772 532 772 q 361 737 404 772 q 301 646 318 701 q 356 511 313 561 q 461 461 399 461 z "},"⁷":{"ha":903,"x_min":225,"x_max":667,"o":"m 346 417 q 396 641 363 536 q 479 833 429 746 q 594 985 529 921 l 225 985 l 225 1039 l 667 1039 l 667 993 q 558 855 603 922 q 485 718 514 788 q 440 574 457 649 q 410 417 422 500 l 346 417 m 225 1039 l 285 1039 l 285 903 l 225 903 l 225 1039 z "},"⁸":{"ha":903,"x_min":242,"x_max":661,"o":"m 451 408 q 343 431 390 408 q 269 495 296 454 q 242 589 242 536 q 281 691 242 647 q 375 749 319 735 l 528 749 q 623 690 585 735 q 661 589 661 646 q 634 495 661 536 q 560 431 607 454 q 451 408 513 408 m 451 463 q 554 498 513 463 q 596 590 596 533 q 552 679 596 647 q 451 717 508 711 q 348 678 389 711 q 307 589 307 644 q 349 498 307 533 q 451 463 392 463 m 451 764 q 546 798 506 768 q 586 882 586 828 q 547 967 586 935 q 451 999 508 999 q 356 967 396 999 q 317 882 317 935 q 356 798 317 828 q 451 764 396 768 m 379 735 q 290 788 326 746 q 254 882 254 829 q 310 1003 254 956 q 451 1051 367 1051 q 553 1030 508 1051 q 623 970 597 1008 q 649 882 649 932 q 613 787 649 828 q 522 735 576 746 l 379 735 z "},"⁹":{"ha":903,"x_min":226,"x_max":665,"o":"m 429 621 q 326 646 372 621 q 253 715 281 671 q 226 818 226 758 q 253 935 226 885 q 327 1013 279 985 q 442 1040 375 1040 q 559 1003 508 1040 q 638 901 610 967 q 665 749 665 835 q 636 568 665 647 q 554 443 607 489 q 431 397 501 397 q 358 408 390 397 q 301 440 325 419 q 261 489 276 461 q 242 549 246 517 l 303 549 q 347 476 311 501 q 432 451 383 451 q 553 526 508 451 q 603 724 599 600 q 533 648 578 675 q 429 621 488 621 m 442 986 q 332 942 375 986 q 289 829 289 897 q 330 717 289 760 q 436 675 371 675 q 542 710 499 675 q 601 801 585 746 q 547 936 590 886 q 442 986 504 986 z "},"⁄":{"ha":903,"x_min":110,"x_max":793,"o":"m 110 0 l 724 969 l 793 969 l 181 0 l 110 0 z "},"½":{"ha":1806,"x_min":140,"x_max":1583,"o":"m 389 347 l 389 896 l 174 722 l 174 794 l 397 969 l 450 969 l 450 347 l 389 347 m 140 401 l 649 401 l 649 347 l 140 347 l 140 401 m 574 0 l 1188 969 l 1257 969 l 644 0 l 574 0 m 1164 0 l 1164 46 q 1369 219 1292 144 q 1483 350 1447 293 q 1518 453 1518 407 q 1481 543 1518 508 q 1379 578 1444 578 q 1277 542 1319 578 q 1229 431 1235 506 l 1167 431 q 1233 581 1175 529 q 1379 632 1290 632 q 1527 582 1474 632 q 1581 453 1581 532 q 1548 338 1581 397 q 1443 210 1515 279 q 1250 54 1371 140 l 1583 54 l 1583 0 l 1164 0 z "},"⅓":{"ha":1806,"x_min":140,"x_max":1592,"o":"m 389 347 l 389 896 l 174 722 l 174 794 l 397 969 l 450 969 l 450 347 l 389 347 m 140 401 l 649 401 l 649 347 l 140 347 l 140 401 m 574 0 l 1188 969 l 1257 969 l 644 0 l 574 0 m 1376 -11 q 1269 13 1318 -11 q 1192 83 1221 38 q 1161 190 1163 128 l 1222 190 q 1269 84 1224 124 q 1376 44 1314 44 q 1485 79 1442 44 q 1528 169 1528 114 q 1476 267 1528 235 q 1354 300 1425 300 l 1321 300 l 1321 353 l 1357 353 q 1460 390 1424 353 q 1497 474 1497 426 q 1465 549 1497 521 q 1376 578 1432 578 q 1276 542 1317 578 q 1231 433 1235 506 l 1168 433 q 1204 547 1174 503 q 1281 611 1235 590 q 1376 632 1326 632 q 1512 589 1461 632 q 1563 472 1563 546 q 1528 380 1563 421 q 1443 331 1494 339 q 1550 278 1508 321 q 1592 171 1592 236 q 1532 40 1592 90 q 1376 -11 1472 -11 z "},"⅔":{"ha":1806,"x_min":214,"x_max":1592,"o":"m 214 349 l 214 394 q 419 567 342 493 q 533 699 497 642 q 568 801 568 756 q 531 892 568 857 q 429 926 494 926 q 327 890 369 926 q 279 779 285 854 l 217 779 q 283 929 225 878 q 429 981 340 981 q 577 931 524 981 q 631 801 631 881 q 598 687 631 746 q 493 558 565 628 q 300 403 421 489 l 633 403 l 633 349 l 214 349 m 560 0 l 1174 969 l 1243 969 l 631 0 l 560 0 m 1376 -11 q 1269 13 1318 -11 q 1192 83 1221 38 q 1161 190 1163 128 l 1222 190 q 1269 84 1224 124 q 1376 44 1314 44 q 1485 79 1442 44 q 1528 169 1528 114 q 1476 267 1528 235 q 1354 300 1425 300 l 1321 300 l 1321 353 l 1357 353 q 1460 390 1424 353 q 1497 474 1497 426 q 1465 549 1497 521 q 1376 578 1432 578 q 1276 542 1317 578 q 1231 433 1235 506 l 1168 433 q 1204 547 1174 503 q 1281 611 1235 590 q 1376 632 1326 632 q 1512 589 1461 632 q 1563 472 1563 546 q 1528 380 1563 421 q 1443 331 1494 339 q 1550 278 1508 321 q 1592 171 1592 236 q 1532 40 1592 90 q 1376 -11 1472 -11 z "},"¼":{"ha":1806,"x_min":140,"x_max":1592,"o":"m 389 347 l 389 896 l 174 722 l 174 794 l 397 969 l 450 969 l 450 347 l 389 347 m 140 401 l 649 401 l 649 347 l 140 347 l 140 401 m 588 0 l 1201 969 l 1271 969 l 658 0 l 588 0 m 1401 0 l 1401 157 l 1071 157 l 1071 201 l 1378 622 l 1461 622 l 1461 210 l 1592 210 l 1592 157 l 1461 157 l 1461 0 l 1401 0 m 1139 210 l 1401 210 l 1401 567 l 1139 210 z "},"¾":{"ha":1806,"x_min":246,"x_max":1592,"o":"m 461 338 q 354 362 403 338 q 276 431 306 386 q 246 539 247 476 l 307 539 q 353 433 308 472 q 461 393 399 393 q 569 428 526 393 q 613 518 613 463 q 561 616 613 583 q 439 649 510 649 l 406 649 l 406 701 l 442 701 q 545 738 508 701 q 582 822 582 775 q 549 898 582 869 q 461 926 517 926 q 360 890 401 926 q 315 782 319 854 l 253 782 q 289 895 258 851 q 365 960 319 939 q 461 981 411 981 q 597 938 546 981 q 647 821 647 894 q 613 728 647 769 q 528 679 579 688 q 635 627 593 669 q 676 519 676 585 q 617 388 676 439 q 461 338 557 338 m 588 0 l 1201 969 l 1271 969 l 658 0 l 588 0 m 1401 0 l 1401 157 l 1071 157 l 1071 201 l 1378 622 l 1461 622 l 1461 210 l 1592 210 l 1592 157 l 1461 157 l 1461 0 l 1401 0 m 1139 210 l 1401 210 l 1401 567 l 1139 210 z "},"⅛":{"ha":1806,"x_min":140,"x_max":1554,"o":"m 389 347 l 389 896 l 174 722 l 174 794 l 397 969 l 450 969 l 450 347 l 389 347 m 140 401 l 649 401 l 649 347 l 140 347 l 140 401 m 560 0 l 1174 969 l 1243 969 l 631 0 l 560 0 m 1344 -11 q 1236 12 1283 -11 q 1162 76 1189 35 q 1135 169 1135 117 q 1174 272 1135 228 q 1268 329 1213 315 l 1421 329 q 1516 271 1478 315 q 1554 169 1554 226 q 1527 76 1554 117 q 1453 12 1500 35 q 1344 -11 1406 -11 m 1344 43 q 1447 78 1406 43 q 1489 171 1489 114 q 1445 260 1489 228 q 1344 297 1401 292 q 1241 258 1282 292 q 1200 169 1200 225 q 1242 78 1200 114 q 1344 43 1285 43 m 1344 344 q 1439 378 1399 349 q 1479 463 1479 408 q 1440 547 1479 515 q 1344 579 1401 579 q 1249 547 1289 579 q 1210 463 1210 515 q 1249 378 1210 408 q 1344 344 1289 349 m 1272 315 q 1183 368 1219 326 q 1147 463 1147 410 q 1203 584 1147 536 q 1344 632 1260 632 q 1446 610 1401 632 q 1516 551 1490 589 q 1542 463 1542 513 q 1506 367 1542 408 q 1415 315 1469 326 l 1272 315 z "},"⅜":{"ha":1806,"x_min":246,"x_max":1554,"o":"m 461 338 q 354 362 403 338 q 276 431 306 386 q 246 539 247 476 l 307 539 q 353 433 308 472 q 461 393 399 393 q 569 428 526 393 q 613 518 613 463 q 561 616 613 583 q 439 649 510 649 l 406 649 l 406 701 l 442 701 q 545 738 508 701 q 582 822 582 775 q 549 898 582 869 q 461 926 517 926 q 360 890 401 926 q 315 782 319 854 l 253 782 q 289 895 258 851 q 365 960 319 939 q 461 981 411 981 q 597 938 546 981 q 647 821 647 894 q 613 728 647 769 q 528 679 579 688 q 635 627 593 669 q 676 519 676 585 q 617 388 676 439 q 461 338 557 338 m 560 0 l 1174 969 l 1243 969 l 631 0 l 560 0 m 1344 -11 q 1236 12 1283 -11 q 1162 76 1189 35 q 1135 169 1135 117 q 1174 272 1135 228 q 1268 329 1213 315 l 1421 329 q 1516 271 1478 315 q 1554 169 1554 226 q 1527 76 1554 117 q 1453 12 1500 35 q 1344 -11 1406 -11 m 1344 43 q 1447 78 1406 43 q 1489 171 1489 114 q 1445 260 1489 228 q 1344 297 1401 292 q 1241 258 1282 292 q 1200 169 1200 225 q 1242 78 1200 114 q 1344 43 1285 43 m 1344 344 q 1439 378 1399 349 q 1479 463 1479 408 q 1440 547 1479 515 q 1344 579 1401 579 q 1249 547 1289 579 q 1210 463 1210 515 q 1249 378 1210 408 q 1344 344 1289 349 m 1272 315 q 1183 368 1219 326 q 1147 463 1147 410 q 1203 584 1147 536 q 1344 632 1260 632 q 1446 610 1401 632 q 1516 551 1490 589 q 1542 463 1542 513 q 1506 367 1542 408 q 1415 315 1469 326 l 1272 315 z "},"⅝":{"ha":1806,"x_min":250,"x_max":1554,"o":"m 454 336 q 312 385 369 336 q 250 511 254 433 l 308 511 q 353 424 315 458 q 454 390 390 390 q 565 438 524 390 q 606 560 606 485 q 565 667 606 625 q 458 708 524 708 q 378 687 418 708 q 314 628 339 665 l 257 628 l 308 969 l 642 969 l 642 915 l 357 915 l 322 690 q 388 742 346 721 q 471 764 429 764 q 575 738 531 764 q 644 667 619 713 q 669 560 669 621 q 610 399 669 461 q 454 336 551 336 m 568 0 l 1182 969 l 1251 969 l 639 0 l 568 0 m 1344 -11 q 1236 12 1283 -11 q 1162 76 1189 35 q 1135 169 1135 117 q 1174 272 1135 228 q 1268 329 1213 315 l 1421 329 q 1516 271 1478 315 q 1554 169 1554 226 q 1527 76 1554 117 q 1453 12 1500 35 q 1344 -11 1406 -11 m 1344 43 q 1447 78 1406 43 q 1489 171 1489 114 q 1445 260 1489 228 q 1344 297 1401 292 q 1241 258 1282 292 q 1200 169 1200 225 q 1242 78 1200 114 q 1344 43 1285 43 m 1344 344 q 1439 378 1399 349 q 1479 463 1479 408 q 1440 547 1479 515 q 1344 579 1401 579 q 1249 547 1289 579 q 1210 463 1210 515 q 1249 378 1210 408 q 1344 344 1289 349 m 1272 315 q 1183 368 1219 326 q 1147 463 1147 410 q 1203 584 1147 536 q 1344 632 1260 632 q 1446 610 1401 632 q 1516 551 1490 589 q 1542 463 1542 513 q 1506 367 1542 408 q 1415 315 1469 326 l 1272 315 z "},"⅞":{"ha":1806,"x_min":244,"x_max":1560,"o":"m 365 353 q 415 577 382 472 q 499 769 449 682 q 614 921 549 857 l 244 921 l 244 975 l 686 975 l 686 929 q 578 791 622 858 q 505 654 533 724 q 459 510 476 585 q 429 353 442 436 l 365 353 m 244 975 l 304 975 l 304 839 l 244 839 l 244 975 m 496 0 l 1110 969 l 1179 969 l 567 0 l 496 0 m 1350 -11 q 1242 12 1289 -11 q 1167 76 1194 35 q 1140 169 1140 117 q 1179 272 1140 228 q 1274 329 1218 315 l 1426 329 q 1522 271 1483 315 q 1560 169 1560 226 q 1533 76 1560 117 q 1458 12 1506 35 q 1350 -11 1411 -11 m 1350 43 q 1453 78 1411 43 q 1494 171 1494 114 q 1451 260 1494 228 q 1350 297 1407 292 q 1247 258 1288 292 q 1206 169 1206 225 q 1248 78 1206 114 q 1350 43 1290 43 m 1350 344 q 1444 378 1404 349 q 1485 463 1485 408 q 1446 547 1485 515 q 1350 579 1407 579 q 1255 547 1294 579 q 1215 463 1215 515 q 1255 378 1215 408 q 1350 344 1294 349 m 1278 315 q 1189 368 1225 326 q 1153 463 1153 410 q 1209 584 1153 536 q 1350 632 1265 632 q 1451 610 1407 632 q 1522 551 1496 589 q 1547 463 1547 513 q 1511 367 1547 408 q 1421 315 1475 326 l 1278 315 z "},"\r":{"ha":903,"x_min":0,"x_max":0,"o":""},"﻿":{"ha":0,"x_min":0,"x_max":0,"o":""},"\u0000":{"ha":0,"x_min":0,"x_max":0,"o":""}," ":{"ha":903,"x_min":0,"x_max":0,"o":""}," ":{"ha":903,"x_min":0,"x_max":0,"o":""}," ":{"ha":903,"x_min":0,"x_max":0,"o":""},".":{"ha":903,"x_min":404,"x_max":499,"o":"m 404 0 l 404 103 l 499 103 l 499 0 l 404 0 z "},",":{"ha":903,"x_min":382,"x_max":497,"o":"m 403 0 l 403 101 l 497 101 l 497 0 l 433 -228 l 382 -228 l 396 -182 l 465 0 l 403 0 z "},":":{"ha":903,"x_min":404,"x_max":499,"o":"m 404 557 l 404 660 l 499 660 l 499 557 l 404 557 m 404 0 l 404 103 l 499 103 l 499 0 l 404 0 z "},";":{"ha":903,"x_min":369,"x_max":499,"o":"m 401 0 l 401 113 l 499 113 l 499 0 l 432 -247 l 369 -247 l 450 0 l 401 0 m 403 556 l 403 658 l 497 658 l 497 556 l 403 556 z "},"…":{"ha":903,"x_min":119,"x_max":783,"o":"m 119 0 l 119 113 l 217 113 l 217 0 l 119 0 m 403 0 l 403 113 l 500 113 l 500 0 l 403 0 m 686 0 l 686 113 l 783 113 l 783 0 l 686 0 z "},"!":{"ha":903,"x_min":404,"x_max":499,"o":"m 428 233 l 413 800 l 413 969 l 492 969 l 492 800 l 476 233 l 428 233 m 404 0 l 404 103 l 499 103 l 499 0 l 404 0 z "},"¡":{"ha":903,"x_min":403,"x_max":500,"o":"m 403 757 l 500 757 l 500 644 l 403 644 l 403 757 m 476 524 l 492 -43 l 492 -212 l 413 -212 l 413 -43 l 428 524 l 476 524 z "},"?":{"ha":903,"x_min":156,"x_max":746,"o":"m 421 215 l 421 267 q 440 374 421 331 q 487 447 458 417 q 549 503 515 478 q 610 558 582 529 q 658 628 639 588 q 676 728 676 668 q 649 828 676 785 q 575 898 622 872 q 467 924 528 924 q 294 857 361 924 q 225 679 226 790 l 156 679 q 201 841 160 772 q 311 948 242 910 q 468 986 381 986 q 613 953 550 986 q 710 861 675 919 q 746 729 746 803 q 727 616 746 663 q 678 536 708 569 q 615 476 649 503 q 551 420 581 449 q 502 356 521 392 q 483 267 483 319 l 483 215 l 421 215 m 404 0 l 404 103 l 499 103 l 499 0 l 404 0 z "},"¿":{"ha":903,"x_min":157,"x_max":747,"o":"m 482 540 l 482 489 q 463 382 482 425 q 416 308 444 339 q 354 252 388 278 q 292 197 321 226 q 245 128 264 168 q 226 28 226 88 q 253 -73 226 -29 q 328 -142 281 -117 q 436 -168 375 -168 q 609 -101 542 -168 q 678 76 676 -35 l 747 76 q 702 -85 743 -17 q 592 -192 661 -154 q 435 -231 522 -231 q 290 -197 353 -231 q 192 -106 228 -164 q 157 26 157 -47 q 176 140 157 93 q 224 219 194 186 q 288 280 254 253 q 352 335 322 307 q 401 400 382 364 q 419 489 419 436 l 419 540 l 482 540 m 499 756 l 499 653 l 404 653 l 404 756 l 499 756 z "},"·":{"ha":903,"x_min":404,"x_max":499,"o":"m 404 353 l 404 456 l 499 456 l 499 353 l 404 353 z "},"•":{"ha":903,"x_min":338,"x_max":564,"o":"m 338 303 l 338 518 l 564 518 l 564 303 l 338 303 z "},"*":{"ha":903,"x_min":207,"x_max":696,"o":"m 329 546 l 279 582 l 403 738 l 207 796 l 225 853 l 419 792 l 419 986 l 481 986 l 481 792 l 678 853 l 696 796 l 497 738 l 629 581 l 579 544 l 450 703 l 329 546 z "},"#":{"ha":903,"x_min":14,"x_max":889,"o":"m 456 0 l 721 969 l 783 969 l 518 0 l 456 0 m 14 313 l 29 372 l 804 372 l 789 313 l 14 313 m 114 0 l 379 969 l 442 969 l 176 0 l 114 0 m 97 618 l 114 678 l 889 678 l 872 618 l 97 618 z "},"/":{"ha":903,"x_min":150,"x_max":753,"o":"m 150 -133 l 685 969 l 753 969 l 218 -133 l 150 -133 z "},"\\":{"ha":903,"x_min":150,"x_max":753,"o":"m 753 -133 l 685 -133 l 150 969 l 218 969 l 753 -133 z "},"-":{"ha":903,"x_min":260,"x_max":643,"o":"m 260 403 l 260 461 l 643 461 l 643 403 l 260 403 z "},"­":{"ha":903,"x_min":260,"x_max":643,"o":"m 260 403 l 260 461 l 643 461 l 643 403 l 260 403 z "},"–":{"ha":903,"x_min":97,"x_max":806,"o":"m 97 403 l 97 461 l 806 461 l 806 403 l 97 403 z "},"—":{"ha":1806,"x_min":219,"x_max":1588,"o":"m 219 401 l 219 460 l 1588 460 l 1588 401 l 219 401 z "},"‑":{"ha":903,"x_min":260,"x_max":643,"o":"m 260 403 l 260 461 l 643 461 l 643 403 l 260 403 z "},"_":{"ha":903,"x_min":149,"x_max":756,"o":"m 149 -58 l 149 0 l 756 0 l 756 -58 l 149 -58 z "},"(":{"ha":903,"x_min":364,"x_max":585,"o":"m 517 -133 q 401 146 439 11 q 364 418 364 281 q 401 692 364 558 q 517 969 439 826 l 585 969 q 466 697 504 831 q 428 418 428 563 q 466 140 428 275 q 585 -133 504 6 l 517 -133 z "},")":{"ha":903,"x_min":318,"x_max":539,"o":"m 386 -133 l 318 -133 q 438 140 400 6 q 475 418 475 275 q 438 697 475 563 q 318 969 400 831 l 386 969 q 501 692 464 826 q 539 418 539 558 q 501 146 539 281 q 386 -133 464 11 z "},"{":{"ha":903,"x_min":258,"x_max":640,"o":"m 596 -133 q 485 -106 533 -133 q 411 -31 438 -79 q 385 83 385 18 l 385 254 q 350 345 385 307 q 258 394 315 383 l 258 436 q 350 488 315 447 q 385 579 385 529 l 385 753 q 411 865 385 817 q 485 942 438 914 q 596 969 533 969 l 640 969 l 640 913 l 594 913 q 488 867 528 913 q 447 753 447 822 l 447 597 q 415 473 447 521 q 325 410 382 425 l 325 421 q 415 359 382 407 q 447 236 447 311 l 447 83 q 488 -33 447 11 q 594 -76 528 -76 l 640 -76 l 640 -133 l 596 -133 z "},"}":{"ha":903,"x_min":263,"x_max":644,"o":"m 307 -133 l 263 -133 l 263 -76 l 308 -76 q 415 -33 375 -76 q 456 83 456 11 l 456 236 q 489 359 456 311 q 578 421 522 407 l 578 410 q 489 473 522 425 q 456 597 456 521 l 456 753 q 415 867 456 822 q 308 913 375 913 l 263 913 l 263 969 l 307 969 q 418 942 371 969 q 492 865 465 914 q 518 753 518 817 l 518 579 q 553 488 518 529 q 644 436 589 447 l 644 394 q 553 345 589 383 q 518 254 518 307 l 518 83 q 492 -31 518 18 q 418 -106 465 -79 q 307 -133 371 -133 z "},"[":{"ha":903,"x_min":363,"x_max":636,"o":"m 363 -133 l 363 969 l 425 969 l 425 -133 l 363 -133 m 378 -133 l 378 -76 l 636 -76 l 636 -133 l 378 -133 m 378 913 l 378 969 l 636 969 l 636 913 l 378 913 z "},"]":{"ha":903,"x_min":267,"x_max":540,"o":"m 540 -133 l 478 -133 l 478 969 l 540 969 l 540 -133 m 525 -133 l 267 -133 l 267 -76 l 525 -76 l 525 -133 m 525 913 l 267 913 l 267 969 l 525 969 l 525 913 z "},"‚":{"ha":903,"x_min":379,"x_max":500,"o":"m 406 0 l 406 103 l 500 103 l 500 0 l 431 -206 l 379 -206 l 400 -150 l 468 0 l 406 0 z "},"„":{"ha":903,"x_min":303,"x_max":597,"o":"m 503 0 l 503 103 l 597 103 l 597 0 l 528 -206 l 476 -206 l 497 -150 l 565 0 l 503 0 m 329 0 l 329 103 l 424 103 l 424 0 l 354 -206 l 303 -206 l 324 -150 l 392 0 l 329 0 z "},"“":{"ha":903,"x_min":306,"x_max":600,"o":"m 400 814 l 400 711 l 306 711 l 306 814 l 375 1019 l 426 1019 l 406 964 l 338 814 l 400 814 m 574 814 l 574 711 l 479 711 l 479 814 l 549 1019 l 600 1019 l 579 964 l 511 814 l 574 814 z "},"”":{"ha":903,"x_min":303,"x_max":597,"o":"m 503 918 l 503 1021 l 597 1021 l 597 918 l 528 713 l 476 713 l 497 768 l 565 918 l 503 918 m 329 918 l 329 1021 l 424 1021 l 424 918 l 354 713 l 303 713 l 324 768 l 392 918 l 329 918 z "},"‘":{"ha":903,"x_min":382,"x_max":503,"o":"m 476 814 l 476 711 l 382 711 l 382 814 l 451 1019 l 503 1019 l 482 964 l 414 814 l 476 814 z "},"’":{"ha":903,"x_min":400,"x_max":521,"o":"m 426 917 l 426 1019 l 521 1019 l 521 917 l 451 711 l 400 711 l 421 767 l 489 917 l 426 917 z "},"«":{"ha":903,"x_min":194,"x_max":696,"o":"m 383 92 l 194 375 l 383 658 l 456 658 l 267 375 l 456 92 l 383 92 m 624 92 l 435 375 l 624 658 l 696 658 l 507 375 l 696 92 l 624 92 z "},"»":{"ha":903,"x_min":207,"x_max":708,"o":"m 519 92 l 447 92 l 636 375 l 447 658 l 519 658 l 708 375 l 519 92 m 279 92 l 207 92 l 396 375 l 207 658 l 279 658 l 468 375 l 279 92 z "},"‹":{"ha":903,"x_min":319,"x_max":581,"o":"m 508 92 l 319 375 l 508 658 l 581 658 l 392 375 l 581 92 l 508 92 z "},"›":{"ha":903,"x_min":322,"x_max":583,"o":"m 394 92 l 322 92 l 511 375 l 322 658 l 394 658 l 583 375 l 394 92 z "},"\"":{"ha":903,"x_min":315,"x_max":589,"o":"m 525 738 l 513 1022 l 589 1022 l 575 738 l 525 738 m 328 738 l 315 1022 l 392 1022 l 378 738 l 328 738 z "},"'":{"ha":903,"x_min":413,"x_max":489,"o":"m 425 735 l 413 1019 l 489 1019 l 475 735 l 425 735 z "},"ƒ":{"ha":903,"x_min":132,"x_max":769,"o":"m 151 0 l 132 49 l 267 49 q 358 80 329 49 q 392 175 386 111 l 454 789 q 506 926 464 882 q 644 971 547 971 l 750 971 l 769 922 l 643 922 q 553 892 581 922 q 518 796 525 861 l 456 182 q 433 88 450 129 q 378 24 417 47 q 265 0 339 0 l 151 0 m 225 471 l 225 526 l 697 526 l 697 471 l 225 471 z "},"฿":{"ha":903,"x_min":143,"x_max":803,"o":"m 401 944 l 401 1107 l 467 1107 l 467 944 l 401 944 m 401 -135 l 401 28 l 467 28 l 467 -135 l 401 -135 m 600 508 q 697 468 651 499 q 773 386 743 438 q 803 263 803 335 q 765 126 803 185 q 658 33 728 67 q 492 0 588 0 l 143 0 l 143 969 l 476 969 q 697 906 615 969 q 778 736 778 843 q 758 636 778 685 q 698 553 738 588 q 600 508 658 519 m 478 907 l 208 907 l 208 535 l 478 535 q 645 587 585 535 q 706 726 706 639 q 644 860 706 814 q 478 907 583 907 m 208 63 l 492 63 q 667 118 603 63 q 731 267 731 174 q 660 419 731 365 q 467 472 590 472 l 208 472 l 208 63 z "},"@":{"ha":903,"x_min":36,"x_max":867,"o":"m 492 -218 q 251 -144 354 -218 q 92 65 149 -69 q 36 381 36 200 q 90 694 36 561 q 240 901 143 828 q 465 975 336 975 q 677 910 588 975 q 817 728 767 846 q 867 451 867 610 q 855 308 867 372 q 821 197 843 243 q 767 125 799 150 q 693 100 735 100 l 579 100 l 574 217 q 517 119 551 153 q 429 86 482 86 q 331 124 374 86 q 265 228 289 161 q 240 386 240 296 q 265 545 240 478 q 331 649 289 613 q 429 686 374 686 q 517 653 482 686 q 574 557 551 621 l 579 672 l 638 672 l 638 156 l 694 156 q 774 237 747 156 q 801 451 801 318 q 760 697 801 593 q 643 859 718 801 q 465 917 568 917 q 274 851 356 917 q 147 664 192 785 q 101 381 101 543 q 150 95 101 217 q 287 -93 199 -26 q 493 -160 375 -160 l 714 -160 l 671 -218 l 492 -218 m 438 143 q 525 188 490 143 q 574 321 560 233 l 574 451 q 525 585 560 540 q 438 629 490 629 q 340 561 374 629 q 306 386 306 493 q 340 212 306 281 q 438 143 374 143 z "},"&":{"ha":903,"x_min":64,"x_max":856,"o":"m 353 -17 q 197 18 261 -17 q 98 113 132 53 q 64 247 64 172 q 85 354 64 304 q 156 450 106 404 q 297 539 207 496 q 209 655 242 601 q 176 775 176 708 q 208 888 176 840 q 291 960 239 935 q 406 986 343 986 q 524 960 475 986 q 601 889 574 935 q 628 783 628 843 q 609 697 628 740 q 540 610 590 653 q 399 522 490 567 l 656 229 q 713 334 688 278 q 757 446 738 390 l 821 446 q 767 305 797 372 q 699 181 736 238 l 856 0 l 769 0 l 658 128 q 524 22 603 61 q 353 -17 446 -17 m 357 46 q 503 82 438 46 q 617 175 569 118 l 336 496 q 233 434 281 467 q 158 357 186 401 q 129 247 129 313 q 189 105 129 164 q 357 46 249 46 m 360 568 q 517 673 472 622 q 563 783 563 724 q 520 885 563 846 q 404 924 478 924 q 290 883 338 924 q 242 775 242 842 q 279 663 242 711 q 360 568 317 614 z "},"¶":{"ha":903,"x_min":94,"x_max":726,"o":"m 444 -264 l 444 419 q 253 452 332 419 q 135 547 175 485 q 94 696 94 608 q 135 846 94 785 q 254 939 176 907 q 444 971 332 971 l 511 971 l 511 -264 l 444 -264 m 660 -264 l 660 971 l 726 971 l 726 -264 l 660 -264 z "},"§":{"ha":903,"x_min":124,"x_max":778,"o":"m 457 -264 q 281 -228 356 -264 q 165 -120 206 -192 q 124 57 124 -49 l 192 57 q 260 -137 192 -69 q 456 -206 328 -206 q 585 -184 528 -206 q 676 -122 643 -162 q 710 -22 710 -81 q 679 72 710 36 q 598 131 649 108 q 487 170 547 154 q 365 203 426 186 q 253 245 304 219 q 172 313 203 271 q 142 419 142 354 q 169 521 142 475 q 244 596 196 567 q 170 662 199 622 q 142 764 142 701 q 180 881 142 832 q 286 958 218 931 q 444 986 354 986 q 611 954 539 986 q 724 865 683 922 q 767 731 765 807 l 699 731 q 668 833 699 789 q 581 903 638 878 q 444 928 524 928 q 275 883 340 928 q 210 764 210 838 q 240 677 210 710 q 322 624 271 644 q 433 588 372 603 q 555 554 494 572 q 666 509 615 536 q 747 438 717 482 q 778 324 778 393 q 755 224 778 268 q 692 149 732 179 q 754 81 731 121 q 778 -19 778 40 q 735 -153 778 -99 q 619 -235 692 -207 q 457 -264 546 -264 m 640 178 q 691 244 672 210 q 710 321 710 279 q 684 408 710 374 q 616 466 658 443 q 520 504 574 489 q 411 534 467 519 q 306 568 356 549 q 235 503 261 540 q 210 421 210 465 q 238 338 210 371 q 313 285 265 306 q 417 249 360 265 q 532 217 474 233 q 640 178 590 201 z "},"©":{"ha":903,"x_min":28,"x_max":879,"o":"m 460 211 q 335 247 388 211 q 253 344 282 282 q 224 486 224 406 q 253 631 224 568 q 335 731 282 694 q 460 767 389 767 q 601 719 544 767 q 668 590 658 671 l 601 590 q 556 678 594 643 q 460 713 517 713 q 334 648 379 713 q 289 485 289 583 q 330 331 289 394 q 456 268 371 268 q 559 304 521 268 q 607 396 597 340 l 671 396 q 605 263 661 315 q 460 211 549 211 m 454 -15 q 233 49 329 -15 q 83 227 138 114 q 28 486 28 340 q 83 745 28 632 q 233 922 138 858 q 454 986 329 986 q 674 922 578 986 q 824 745 769 858 q 879 486 879 632 q 824 227 879 340 q 674 49 769 114 q 454 -15 578 -15 m 454 39 q 642 97 561 39 q 769 255 724 154 q 814 486 814 356 q 769 717 814 617 q 642 874 724 817 q 454 932 561 932 q 266 874 347 932 q 139 717 185 817 q 93 486 93 617 q 139 255 93 356 q 266 97 185 154 q 454 39 347 39 z "},"®":{"ha":903,"x_min":154,"x_max":747,"o":"m 383 685 l 383 732 l 474 732 q 516 747 500 732 q 532 785 532 763 q 516 819 532 806 q 476 833 500 833 l 383 833 l 383 882 l 469 882 q 553 854 522 882 q 585 785 585 826 q 552 713 585 740 q 463 685 519 685 l 383 685 m 343 564 l 343 882 l 396 882 l 396 564 l 343 564 m 532 564 q 513 615 525 590 q 477 663 501 639 q 408 708 453 686 l 464 721 q 546 650 519 690 q 583 564 572 610 l 532 564 m 453 421 q 299 460 367 421 q 193 568 232 500 q 154 721 154 636 q 193 870 154 804 q 299 975 232 936 q 453 1014 367 1014 q 603 976 536 1014 q 708 872 669 938 q 747 721 747 806 q 709 568 747 636 q 604 460 671 500 q 453 421 538 421 m 451 469 q 575 503 519 469 q 664 593 631 536 q 697 721 697 650 q 664 849 697 793 q 575 937 631 904 q 451 969 519 969 q 328 937 385 969 q 239 849 272 904 q 206 721 206 793 q 238 593 206 650 q 326 503 271 536 q 451 469 382 469 z "},"℗":{"ha":903,"x_min":28,"x_max":879,"o":"m 351 444 l 351 499 l 492 499 q 579 527 546 499 q 613 601 613 556 q 582 674 613 646 q 500 701 551 701 l 351 701 l 351 756 l 500 756 q 629 713 581 756 q 678 601 678 671 q 629 488 678 531 q 500 444 581 444 l 351 444 m 297 226 l 297 756 l 363 756 l 363 226 l 297 226 m 454 -15 q 233 49 329 -15 q 83 227 138 114 q 28 486 28 340 q 83 745 28 632 q 233 922 138 858 q 454 986 329 986 q 674 922 578 986 q 824 745 769 858 q 879 486 879 632 q 824 227 879 340 q 674 49 769 114 q 454 -15 578 -15 m 454 39 q 642 97 561 39 q 769 255 724 154 q 814 486 814 356 q 769 717 814 617 q 642 874 724 817 q 454 932 561 932 q 266 874 347 932 q 139 717 185 817 q 93 486 93 617 q 139 255 93 356 q 266 97 185 154 q 454 39 347 39 z "},"™":{"ha":903,"x_min":29,"x_max":828,"o":"m 160 601 l 160 926 l 29 926 l 29 974 l 344 974 l 344 926 l 213 926 l 213 601 l 160 601 m 367 601 l 421 974 l 479 974 l 585 726 l 597 686 l 611 726 l 715 974 l 772 974 l 828 601 l 774 601 l 739 856 l 733 903 l 719 856 l 611 601 l 583 601 l 474 856 l 458 906 l 454 856 l 418 601 l 367 601 z "},"°":{"ha":903,"x_min":246,"x_max":656,"o":"m 450 565 q 343 592 389 565 q 272 666 297 618 q 246 778 246 714 q 272 888 246 840 q 343 961 297 935 q 450 988 389 988 q 558 961 513 988 q 630 888 604 935 q 656 778 656 840 q 630 666 656 714 q 558 592 604 618 q 450 565 513 565 m 450 617 q 555 661 515 617 q 594 778 594 706 q 555 892 594 847 q 450 936 515 936 q 346 892 386 936 q 306 778 306 847 q 346 661 306 706 q 450 617 386 617 z "},"|":{"ha":903,"x_min":419,"x_max":483,"o":"m 419 -264 l 419 1015 l 483 1015 l 483 -264 l 419 -264 z "},"¦":{"ha":903,"x_min":419,"x_max":483,"o":"m 419 500 l 419 1015 l 483 1015 l 483 500 l 419 500 m 419 -264 l 419 250 l 483 250 l 483 -264 l 419 -264 z "},"ℓ":{"ha":903,"x_min":154,"x_max":744,"o":"m 519 0 q 422 17 467 0 q 351 80 378 33 q 325 214 325 126 l 325 625 q 354 826 325 746 q 435 947 383 907 q 556 988 488 988 q 692 933 640 988 q 744 781 744 879 q 724 628 744 703 q 658 487 703 553 q 544 371 614 421 q 378 292 475 321 q 154 264 281 264 l 154 317 q 357 342 269 317 q 506 410 444 367 q 606 513 567 454 q 662 640 644 572 q 679 781 679 708 q 645 891 679 853 q 556 929 611 929 q 435 855 481 929 q 389 625 389 781 l 389 214 q 419 94 389 136 q 519 53 449 53 l 744 53 l 706 0 l 519 0 z "},"†":{"ha":903,"x_min":204,"x_max":699,"o":"m 421 201 l 421 971 l 482 971 l 482 201 l 421 201 m 204 707 l 204 765 l 699 765 l 699 707 l 204 707 z "},"‡":{"ha":903,"x_min":204,"x_max":699,"o":"m 421 201 l 421 971 l 482 971 l 482 201 l 421 201 m 204 707 l 204 765 l 699 765 l 699 707 l 204 707 m 204 407 l 204 465 l 699 465 l 699 407 l 204 407 z "},"℮":{"ha":903,"x_min":19,"x_max":883,"o":"m 451 -17 q 224 45 321 -17 q 73 220 126 107 q 19 485 19 333 q 73 750 19 638 q 224 924 126 863 q 451 986 321 986 q 679 924 582 986 q 830 750 776 863 q 883 485 883 638 l 196 485 l 196 128 q 314 51 244 78 q 451 25 383 25 q 632 77 546 25 q 769 217 718 129 l 806 190 q 652 40 749 97 q 451 -17 556 -17 m 196 526 l 707 526 l 707 838 q 451 944 606 944 q 196 838 293 944 l 196 526 z "},"№":{"ha":1806,"x_min":257,"x_max":1549,"o":"m 1343 565 q 1236 592 1282 565 q 1165 666 1190 618 q 1139 778 1139 714 q 1165 888 1139 840 q 1236 961 1190 935 q 1343 988 1282 988 q 1451 961 1406 988 q 1523 888 1497 935 q 1549 778 1549 840 q 1523 666 1549 714 q 1451 592 1497 618 q 1343 565 1406 565 m 1343 617 q 1448 661 1408 617 q 1488 778 1488 706 q 1448 892 1488 847 q 1343 936 1408 936 q 1239 892 1279 936 q 1199 778 1199 847 q 1239 661 1199 706 q 1343 617 1279 617 m 257 0 l 257 969 l 332 969 l 869 100 l 863 346 l 863 969 l 931 969 l 931 0 l 857 0 l 318 865 l 325 625 l 325 0 l 257 0 m 1150 404 l 1150 457 l 1536 457 l 1536 404 l 1150 404 z "},"₿":{"ha":903,"x_min":143,"x_max":803,"o":"m 278 944 l 278 1107 l 343 1107 l 343 944 l 278 944 m 278 -135 l 278 28 l 343 28 l 343 -135 l 278 -135 m 481 944 l 481 1107 l 546 1107 l 546 944 l 481 944 m 481 -135 l 481 28 l 546 28 l 546 -135 l 481 -135 m 600 508 q 697 468 651 499 q 773 386 743 438 q 803 263 803 335 q 765 126 803 185 q 658 33 728 67 q 492 0 588 0 l 143 0 l 143 969 l 476 969 q 697 906 615 969 q 778 736 778 843 q 758 636 778 685 q 698 553 738 588 q 600 508 658 519 m 478 907 l 208 907 l 208 535 l 478 535 q 645 587 585 535 q 706 726 706 639 q 644 860 706 814 q 478 907 583 907 m 208 63 l 492 63 q 667 118 603 63 q 731 267 731 174 q 660 419 731 365 q 467 472 590 472 l 208 472 l 208 63 z "},"¢":{"ha":903,"x_min":124,"x_max":825,"o":"m 464 744 l 464 910 l 528 910 l 528 744 l 464 744 m 464 -135 l 464 14 l 528 14 l 528 -135 l 464 -135 m 503 -17 q 303 33 389 -17 q 171 171 218 82 q 124 378 124 260 q 172 585 124 496 q 305 723 219 674 q 503 772 390 772 q 651 741 583 772 q 765 653 719 710 q 819 517 810 596 l 756 517 q 672 661 743 608 q 503 714 601 714 q 336 672 407 714 q 227 556 265 631 q 189 378 189 481 q 273 133 189 224 q 503 42 357 42 q 613 66 560 42 q 706 135 667 90 q 760 240 746 179 l 825 240 q 758 103 807 160 q 642 15 708 46 q 503 -17 575 -17 z "},"¤":{"ha":903,"x_min":19,"x_max":885,"o":"m 192 679 l 19 850 l 64 894 l 242 718 l 192 679 m 65 28 l 21 72 l 186 238 l 231 193 l 65 28 m 840 29 l 665 204 l 707 250 l 885 74 l 840 29 m 713 678 l 661 717 l 839 894 l 883 850 l 713 678 m 476 97 q 286 145 367 97 q 161 276 206 193 q 117 461 117 358 q 161 646 117 564 q 286 776 206 728 q 476 824 367 824 q 666 776 586 824 q 790 646 746 728 q 833 461 833 564 q 790 276 833 358 q 666 145 746 193 q 476 97 586 97 m 475 157 q 624 196 558 157 q 729 303 690 235 q 768 461 768 372 q 729 618 768 550 q 624 725 690 686 q 475 764 558 764 q 327 725 393 764 q 223 618 261 686 q 185 461 185 550 q 223 303 185 372 q 327 196 261 235 q 475 157 393 157 z "},"$":{"ha":903,"x_min":113,"x_max":800,"o":"m 417 944 l 417 1107 l 482 1107 l 482 944 l 417 944 m 417 -149 l 417 28 l 482 28 l 482 -149 l 417 -149 m 472 -17 q 285 24 367 -17 q 158 143 204 64 q 113 339 113 222 l 179 339 q 260 122 179 199 q 471 46 340 46 q 656 100 585 46 q 728 251 728 154 q 695 355 728 315 q 609 418 663 394 q 492 459 556 442 q 365 494 429 476 q 248 540 301 513 q 162 612 194 567 q 129 728 129 657 q 168 864 129 806 q 278 954 207 922 q 447 986 350 986 q 622 951 547 986 q 738 853 696 915 q 782 706 781 790 l 715 706 q 681 819 715 769 q 585 896 646 868 q 447 924 525 924 q 268 870 335 924 q 201 729 201 817 q 234 638 201 672 q 320 581 267 603 q 438 543 374 560 q 565 508 501 526 q 681 459 628 489 q 767 380 735 429 q 800 254 800 331 q 756 106 800 167 q 638 15 713 46 q 472 -17 564 -17 z "},"€":{"ha":903,"x_min":19,"x_max":839,"o":"m 19 543 l 19 601 l 556 601 l 546 543 l 19 543 m 19 363 l 19 421 l 519 421 l 510 363 l 19 363 m 499 -17 q 290 47 376 -17 q 160 223 204 110 q 115 486 115 336 q 165 758 115 646 q 303 928 214 869 q 513 986 392 986 q 670 947 601 986 q 782 836 739 907 q 835 668 825 765 l 763 668 q 681 853 750 783 q 510 924 613 924 q 272 806 357 924 q 188 485 188 688 q 226 247 188 346 q 335 97 265 149 q 499 46 406 46 q 685 120 613 46 q 767 317 757 194 l 839 317 q 788 142 832 217 q 669 25 743 67 q 499 -17 596 -17 z "},"£":{"ha":903,"x_min":147,"x_max":764,"o":"m 150 0 l 150 63 q 272 208 228 128 q 317 363 317 289 q 301 456 317 413 q 266 543 286 500 q 231 631 246 586 q 215 731 215 676 q 251 865 215 807 q 351 956 288 924 q 492 989 414 989 q 675 926 600 989 q 764 751 750 863 l 699 751 q 632 878 689 829 q 493 926 575 926 q 388 901 435 926 q 313 831 340 876 q 285 725 285 786 q 300 632 285 676 q 335 544 315 588 q 369 456 354 501 q 385 361 385 411 q 363 250 385 308 q 306 140 342 192 q 222 50 269 88 l 192 63 l 760 63 l 760 0 l 150 0 m 147 439 l 147 494 l 679 494 l 679 439 l 147 439 z "},"¥":{"ha":903,"x_min":81,"x_max":821,"o":"m 132 394 l 132 450 l 769 450 l 769 394 l 132 394 m 417 0 l 417 393 l 81 969 l 157 969 l 354 629 l 450 458 l 547 631 l 744 969 l 821 969 l 482 393 l 482 0 l 417 0 z "},"∕":{"ha":903,"x_min":110,"x_max":793,"o":"m 110 0 l 724 969 l 793 969 l 181 0 l 110 0 z "},"+":{"ha":903,"x_min":107,"x_max":796,"o":"m 107 401 l 107 460 l 796 460 l 796 401 l 107 401 m 422 82 l 422 772 l 481 772 l 481 82 l 422 82 z "},"−":{"ha":903,"x_min":93,"x_max":810,"o":"m 93 401 l 93 460 l 810 460 l 810 401 l 93 401 z "},"×":{"ha":903,"x_min":168,"x_max":735,"o":"m 208 143 l 168 183 l 694 711 l 735 671 l 208 143 m 694 143 l 168 671 l 208 711 l 735 183 l 694 143 z "},"÷":{"ha":903,"x_min":93,"x_max":810,"o":"m 93 401 l 93 460 l 810 460 l 810 401 l 93 401 m 404 131 l 404 233 l 499 233 l 499 131 l 404 131 m 404 628 l 404 731 l 499 731 l 499 628 l 404 628 z "},"=":{"ha":903,"x_min":93,"x_max":810,"o":"m 93 532 l 93 590 l 810 590 l 810 532 l 93 532 m 93 269 l 93 328 l 810 328 l 810 269 l 93 269 z "},"≠":{"ha":903,"x_min":93,"x_max":810,"o":"m 243 33 l 594 810 l 660 810 l 308 33 l 243 33 m 93 532 l 93 590 l 810 590 l 810 532 l 93 532 m 93 269 l 93 328 l 810 328 l 810 269 l 93 269 z "},">":{"ha":903,"x_min":88,"x_max":804,"o":"m 88 117 l 88 179 l 728 431 l 88 681 l 88 743 l 804 457 l 804 404 l 88 117 z "},"<":{"ha":903,"x_min":99,"x_max":815,"o":"m 815 117 l 99 404 l 99 457 l 815 743 l 815 681 l 175 431 l 815 179 l 815 117 z "},"≥":{"ha":903,"x_min":88,"x_max":804,"o":"m 88 143 l 88 206 l 728 457 l 88 707 l 88 769 l 804 483 l 804 431 l 88 143 m 88 0 l 88 58 l 804 58 l 804 0 l 88 0 z "},"≤":{"ha":903,"x_min":92,"x_max":808,"o":"m 808 143 l 92 431 l 92 483 l 808 769 l 808 707 l 168 457 l 808 206 l 808 143 m 808 0 l 92 0 l 92 58 l 808 58 l 808 0 z "},"±":{"ha":903,"x_min":93,"x_max":810,"o":"m 106 444 l 106 503 l 797 503 l 797 444 l 106 444 m 422 138 l 422 801 l 481 801 l 481 138 l 422 138 m 93 0 l 93 58 l 810 58 l 810 0 l 93 0 z "},"≈":{"ha":903,"x_min":119,"x_max":783,"o":"m 615 217 q 526 235 568 217 q 444 279 483 254 q 367 323 406 304 q 288 342 328 342 q 209 310 240 342 q 178 221 178 278 l 119 221 q 146 320 122 281 q 206 380 169 360 q 288 400 243 400 q 378 381 336 400 q 458 338 419 363 q 536 294 497 313 q 615 275 575 275 q 694 307 664 275 q 725 396 725 339 l 783 396 q 758 297 781 336 q 698 237 735 257 q 615 217 661 217 m 615 463 q 526 481 568 463 q 444 525 483 500 q 367 569 406 550 q 288 588 328 588 q 209 556 240 588 q 178 467 178 524 l 119 467 q 146 566 122 526 q 206 626 169 606 q 288 646 243 646 q 378 627 336 646 q 458 583 419 608 q 536 540 497 558 q 615 521 575 521 q 694 553 664 521 q 725 642 725 585 l 783 642 q 758 542 781 582 q 698 483 735 503 q 615 463 661 463 z "},"~":{"ha":903,"x_min":119,"x_max":783,"o":"m 615 339 q 526 358 568 339 q 444 401 483 376 q 367 445 406 426 q 288 464 328 464 q 209 432 240 464 q 178 343 178 400 l 119 343 q 146 442 122 403 q 206 502 169 482 q 288 522 243 522 q 378 503 336 522 q 458 460 419 485 q 536 416 497 435 q 615 397 575 397 q 694 429 664 397 q 725 518 725 461 l 783 518 q 758 419 781 458 q 698 359 735 379 q 615 339 661 339 z "},"¬":{"ha":903,"x_min":93,"x_max":810,"o":"m 746 174 l 746 460 l 810 460 l 810 174 l 746 174 m 93 401 l 93 460 l 810 460 l 810 401 l 93 401 z "},"^":{"ha":903,"x_min":203,"x_max":699,"o":"m 203 531 l 425 969 l 475 969 l 699 531 l 632 531 l 450 894 l 269 531 l 203 531 z "},"∅":{"ha":903,"x_min":106,"x_max":797,"o":"m 150 115 l 106 160 l 753 806 l 797 761 l 150 115 m 453 133 q 281 176 354 133 q 168 294 208 219 q 128 460 128 368 q 168 626 128 551 q 281 743 208 700 q 453 786 354 786 q 622 743 550 786 q 735 626 694 700 q 775 460 775 553 q 735 294 775 368 q 622 176 694 219 q 453 133 550 133 m 450 192 q 583 226 524 192 q 676 321 642 260 q 710 460 710 382 q 676 599 710 539 q 583 694 642 660 q 450 728 524 728 q 318 693 376 728 q 226 598 260 658 q 193 460 193 538 q 227 320 193 381 q 319 226 261 260 q 450 192 378 192 z "},"∫":{"ha":903,"x_min":225,"x_max":678,"o":"m 225 -264 l 233 -211 l 299 -211 q 390 -181 357 -211 q 424 -75 424 -151 l 424 818 q 465 962 424 908 q 614 1015 507 1015 l 678 1015 l 669 963 l 613 963 q 522 933 557 963 q 488 826 488 904 l 488 -67 q 446 -211 488 -158 q 297 -264 404 -264 l 225 -264 z "},"∆":{"ha":903,"x_min":33,"x_max":871,"o":"m 33 0 l 33 61 l 413 969 l 492 969 l 871 61 l 871 0 l 33 0 m 103 61 l 800 61 l 451 903 l 103 61 z "},"∏":{"ha":903,"x_min":81,"x_max":822,"o":"m 757 0 l 757 971 l 822 971 l 822 0 l 757 0 m 81 0 l 81 971 l 146 971 l 146 0 l 81 0 m 129 908 l 129 971 l 774 971 l 774 908 l 129 908 z "},"∑":{"ha":903,"x_min":149,"x_max":754,"o":"m 149 0 l 149 47 l 503 488 l 149 924 l 149 971 l 754 971 l 754 908 l 242 908 l 565 508 l 565 465 l 242 63 l 754 63 l 754 0 l 149 0 z "},"√":{"ha":903,"x_min":18,"x_max":872,"o":"m 403 263 l 471 65 l 538 264 l 803 969 l 872 969 l 504 1 l 440 1 l 171 703 l 18 703 l 18 756 l 217 756 l 403 263 z "},"µ":{"ha":903,"x_min":125,"x_max":764,"o":"m 125 -264 l 125 353 l 189 353 l 189 158 l 189 118 l 189 -264 l 125 -264 m 189 756 l 189 269 q 250 105 189 168 q 410 42 311 42 q 606 127 521 42 q 714 381 692 213 l 729 250 q 608 54 694 125 q 407 -17 521 -17 q 259 19 322 -17 q 160 120 196 56 q 125 271 125 185 l 125 756 l 189 756 m 764 756 l 764 0 l 707 0 l 700 207 l 700 756 l 764 756 z "},"∂":{"ha":903,"x_min":104,"x_max":776,"o":"m 433 -17 q 258 26 332 -17 q 144 147 185 68 q 104 333 104 226 q 146 491 104 422 q 258 599 188 560 q 418 639 329 639 q 560 610 497 639 q 667 529 624 581 q 728 408 710 478 l 714 294 q 669 441 707 378 q 567 540 631 504 q 422 576 504 576 q 292 543 349 576 q 205 450 236 510 q 174 313 174 390 q 207 174 174 235 q 299 80 240 114 q 435 46 358 46 q 579 95 517 46 q 676 232 642 144 q 711 432 711 319 q 677 690 711 579 q 578 863 643 800 q 422 925 514 925 q 276 882 339 925 q 199 758 213 839 l 135 758 q 158 839 142 803 q 200 903 175 875 q 258 949 225 931 q 333 978 292 968 q 422 988 374 988 q 608 917 529 988 q 732 723 688 847 q 776 436 776 599 q 733 201 776 303 q 612 41 689 99 q 433 -17 535 -17 z "},"%":{"ha":903,"x_min":38,"x_max":865,"o":"m 110 0 l 724 969 l 793 969 l 181 0 l 110 0 m 660 -17 q 553 10 599 -17 q 481 84 507 36 q 456 196 456 132 q 481 306 456 258 q 553 379 507 353 q 660 406 599 406 q 768 379 722 406 q 840 306 814 353 q 865 196 865 258 q 840 84 865 132 q 768 10 814 36 q 660 -17 722 -17 m 660 35 q 765 79 725 35 q 804 196 804 124 q 765 310 804 265 q 660 354 725 354 q 556 310 596 354 q 515 196 515 265 q 556 79 515 124 q 660 35 596 35 m 242 565 q 135 592 181 565 q 63 666 89 618 q 38 778 38 714 q 63 888 38 840 q 135 961 89 935 q 242 988 181 988 q 350 961 304 988 q 422 888 396 935 q 447 778 447 840 q 422 666 447 714 q 350 592 396 618 q 242 565 304 565 m 242 617 q 347 661 307 617 q 386 778 386 706 q 347 892 386 847 q 242 936 307 936 q 138 892 178 936 q 97 778 97 847 q 138 661 97 706 q 242 617 178 617 z "},"‰":{"ha":903,"x_min":10,"x_max":893,"o":"m 729 -17 q 611 41 656 -17 q 567 196 567 99 q 611 348 567 290 q 729 406 656 406 q 848 348 803 406 q 893 196 893 290 q 848 41 893 99 q 729 -17 803 -17 m 729 35 q 805 79 776 35 q 833 196 833 124 q 805 311 833 268 q 729 354 776 354 q 654 311 682 354 q 626 196 626 268 q 654 79 626 124 q 729 35 682 35 m 13 0 l 553 969 l 622 969 l 83 0 l 13 0 m 463 -17 q 344 41 389 -17 q 300 196 300 99 q 344 348 300 290 q 463 406 389 406 q 581 348 536 406 q 626 196 626 290 q 581 41 626 99 q 463 -17 536 -17 m 463 35 q 538 79 510 35 q 567 196 567 124 q 538 311 567 268 q 463 354 510 354 q 388 311 415 354 q 360 196 360 268 q 388 79 360 124 q 463 35 415 35 m 172 565 q 54 623 99 565 q 10 778 10 681 q 54 930 10 872 q 172 988 99 988 q 291 930 246 988 q 336 778 336 872 q 291 623 336 681 q 172 565 246 565 m 172 617 q 248 661 219 617 q 276 778 276 706 q 248 893 276 850 q 172 936 219 936 q 97 893 125 936 q 69 778 69 850 q 97 661 69 706 q 172 617 125 617 z "},"↑":{"ha":903,"x_min":138,"x_max":765,"o":"m 138 438 l 138 521 l 450 833 l 765 521 l 765 438 l 614 588 l 472 739 l 479 529 l 479 0 l 421 0 l 421 531 l 428 739 l 285 585 l 138 438 z "},"↗":{"ha":903,"x_min":143,"x_max":754,"o":"m 251 706 l 311 765 l 753 765 l 754 321 l 696 263 l 694 475 l 701 683 l 558 529 l 185 156 l 143 197 l 518 572 l 671 714 l 461 706 l 251 706 z "},"→":{"ha":903,"x_min":35,"x_max":868,"o":"m 472 758 l 556 758 l 868 446 l 556 131 l 472 131 l 622 282 l 774 424 l 564 417 l 35 417 l 35 475 l 565 475 l 774 468 l 619 611 l 472 758 z "},"↘":{"ha":903,"x_min":175,"x_max":786,"o":"m 283 49 l 493 49 l 703 40 l 550 182 l 175 557 l 217 599 l 590 225 l 733 71 l 726 279 l 728 492 l 786 433 l 785 -11 l 343 -11 l 283 49 z "},"↓":{"ha":903,"x_min":138,"x_max":765,"o":"m 765 378 l 765 294 l 453 -18 l 138 294 l 138 378 l 289 228 l 431 76 l 424 286 l 424 815 l 482 815 l 482 285 l 475 76 l 618 231 l 765 378 z "},"↙":{"ha":903,"x_min":149,"x_max":760,"o":"m 651 49 l 592 -11 l 150 -11 l 149 433 l 207 492 l 208 279 l 201 71 l 344 225 l 718 599 l 760 557 l 385 182 l 232 40 l 442 49 l 651 49 z "},"←":{"ha":903,"x_min":35,"x_max":868,"o":"m 431 758 l 283 611 l 129 468 l 338 475 l 868 475 l 868 417 l 339 417 l 129 424 l 281 282 l 431 131 l 347 131 l 35 446 l 347 758 l 431 758 z "},"↖":{"ha":903,"x_min":149,"x_max":760,"o":"m 651 706 l 442 706 l 232 714 l 385 572 l 760 197 l 718 156 l 344 529 l 201 683 l 208 475 l 207 263 l 149 321 l 150 765 l 592 765 l 651 706 z "},"●":{"ha":903,"x_min":131,"x_max":774,"o":"m 453 160 q 287 201 360 160 q 172 317 214 243 q 131 486 131 392 q 172 656 131 582 q 287 771 214 729 q 453 813 360 813 q 619 771 547 813 q 733 656 692 729 q 774 486 774 582 q 733 317 774 392 q 619 201 692 243 q 453 160 547 160 z "},"○":{"ha":903,"x_min":128,"x_max":775,"o":"m 453 160 q 281 203 354 160 q 168 320 208 246 q 128 486 128 394 q 168 652 128 578 q 281 769 208 726 q 453 813 354 813 q 622 769 550 813 q 735 653 694 726 q 775 486 775 579 q 735 320 775 394 q 622 203 694 246 q 453 160 550 160 m 450 218 q 583 252 524 218 q 676 347 642 286 q 710 486 710 408 q 676 626 710 565 q 583 720 642 686 q 450 754 524 754 q 318 719 376 754 q 226 624 260 685 q 193 486 193 564 q 227 347 193 407 q 319 252 261 286 q 450 218 378 218 z "},"◊":{"ha":903,"x_min":113,"x_max":790,"o":"m 426 0 l 113 486 l 426 971 l 479 971 l 790 486 l 479 0 l 426 0 m 453 72 l 715 486 l 453 899 l 188 486 l 453 72 z "},"̈":{"ha":0,"x_min":308,"x_max":594,"o":"m 517 917 l 517 1017 l 594 1017 l 594 917 l 517 917 m 308 917 l 308 1017 l 386 1017 l 386 917 l 308 917 z "},"̇":{"ha":0,"x_min":410,"x_max":493,"o":"m 410 914 l 410 1014 l 493 1014 l 493 914 l 410 914 z "},"̀":{"ha":0,"x_min":79,"x_max":279,"o":"m 279 854 l 219 854 l 79 1081 l 158 1081 l 279 854 z "},"́":{"ha":0,"x_min":350,"x_max":550,"o":"m 350 854 l 471 1081 l 550 1081 l 410 854 l 350 854 z "},"̋":{"ha":0,"x_min":264,"x_max":636,"o":"m 264 854 l 385 1081 l 464 1081 l 324 854 l 264 854 m 436 854 l 557 1081 l 636 1081 l 496 854 l 436 854 z "},"̂":{"ha":0,"x_min":242,"x_max":660,"o":"m 242 854 l 414 1081 l 488 1081 l 660 854 l 590 854 l 451 1036 l 313 854 l 242 854 z "},"̌":{"ha":0,"x_min":242,"x_max":660,"o":"m 242 1081 l 313 1081 l 451 899 l 590 1081 l 660 1081 l 488 854 l 414 854 l 242 1081 z "},"̆":{"ha":0,"x_min":231,"x_max":671,"o":"m 450 854 q 334 882 383 854 q 258 960 285 910 q 231 1081 231 1011 l 288 1081 q 333 956 288 1001 q 450 910 378 910 q 569 956 524 910 q 614 1081 614 1001 l 671 1081 q 644 960 671 1011 q 567 882 617 910 q 450 854 518 854 z "},"̊":{"ha":0,"x_min":306,"x_max":596,"o":"m 450 836 q 346 875 386 836 q 306 975 306 914 q 346 1075 306 1036 q 450 1114 386 1114 q 556 1075 515 1114 q 596 975 596 1036 q 556 875 596 914 q 450 836 515 836 m 450 885 q 515 910 490 885 q 539 975 539 936 q 515 1039 539 1014 q 450 1064 490 1064 q 387 1039 411 1064 q 363 975 363 1014 q 387 910 363 936 q 450 885 411 885 z "},"̃":{"ha":0,"x_min":211,"x_max":690,"o":"m 269 899 l 211 907 q 263 1007 226 972 q 347 1042 300 1042 q 401 1029 372 1042 q 458 1001 429 1017 q 513 972 488 985 q 554 960 538 960 q 602 983 581 960 q 632 1044 624 1007 l 690 1036 q 636 936 672 971 q 554 901 600 901 q 481 922 519 901 q 408 963 443 943 q 347 983 372 983 q 299 960 321 983 q 269 899 276 936 z "},"̄":{"ha":0,"x_min":265,"x_max":638,"o":"m 265 926 l 265 985 l 638 985 l 638 926 l 265 926 z "},"̦":{"ha":0,"x_min":415,"x_max":488,"o":"m 415 -281 l 415 -67 l 488 -67 l 458 -281 l 415 -281 z "},"̧":{"ha":0,"x_min":310,"x_max":592,"o":"m 439 -306 q 367 -299 401 -306 q 310 -282 333 -292 l 310 -235 q 372 -252 344 -246 q 428 -258 400 -258 q 506 -240 476 -258 q 536 -194 536 -222 q 517 -149 536 -164 q 461 -133 497 -133 q 423 -136 443 -133 q 383 -144 403 -139 l 356 -119 l 443 26 l 485 1 l 422 -99 q 451 -92 440 -93 q 471 -92 461 -92 q 536 -103 510 -92 q 577 -138 563 -115 q 592 -194 592 -161 q 572 -253 592 -228 q 519 -292 553 -278 q 439 -306 485 -306 z "},"̨":{"ha":0,"x_min":369,"x_max":535,"o":"m 532 -281 q 511 -285 521 -283 q 486 -287 501 -287 q 401 -258 432 -287 q 369 -179 369 -229 q 385 -109 369 -146 q 430 -37 400 -72 q 501 25 460 -1 l 535 0 q 451 -83 479 -36 q 422 -171 422 -131 q 442 -220 422 -201 q 494 -239 461 -239 q 515 -237 507 -239 q 532 -233 524 -235 l 532 -281 z "},"̸":{"ha":0,"x_min":164,"x_max":739,"o":"m 224 -82 l 164 -56 l 679 1018 l 739 992 l 224 -82 z "},"¨":{"ha":903,"x_min":547,"x_max":833,"o":"m 756 917 l 756 1017 l 833 1017 l 833 917 l 756 917 m 547 917 l 547 1017 l 625 1017 l 625 917 l 547 917 z "},"˙":{"ha":903,"x_min":753,"x_max":836,"o":"m 753 914 l 753 1014 l 836 1014 l 836 914 l 753 914 z "},"`":{"ha":903,"x_min":361,"x_max":561,"o":"m 561 854 l 501 854 l 361 1081 l 440 1081 l 561 854 z "},"´":{"ha":903,"x_min":632,"x_max":832,"o":"m 632 854 l 753 1081 l 832 1081 l 692 854 l 632 854 z "},"˝":{"ha":903,"x_min":460,"x_max":832,"o":"m 460 854 l 581 1081 l 660 1081 l 519 854 l 460 854 m 632 854 l 753 1081 l 832 1081 l 692 854 l 632 854 z "},"ˆ":{"ha":903,"x_min":414,"x_max":832,"o":"m 414 854 l 586 1081 l 660 1081 l 832 854 l 763 854 l 624 1036 l 485 854 l 414 854 z "},"ˇ":{"ha":903,"x_min":414,"x_max":832,"o":"m 414 1081 l 485 1081 l 624 899 l 763 1081 l 832 1081 l 660 854 l 586 854 l 414 1081 z "},"˘":{"ha":903,"x_min":392,"x_max":832,"o":"m 611 854 q 495 882 544 854 q 419 960 446 910 q 392 1081 392 1011 l 449 1081 q 494 956 449 1001 q 611 910 539 910 q 730 956 685 910 q 775 1081 775 1001 l 832 1081 q 805 960 832 1011 q 728 882 778 910 q 611 854 679 854 z "},"˚":{"ha":903,"x_min":542,"x_max":832,"o":"m 686 836 q 582 875 622 836 q 542 975 542 914 q 582 1075 542 1036 q 686 1114 622 1114 q 792 1075 751 1114 q 832 975 832 1036 q 792 875 832 914 q 686 836 751 836 m 686 885 q 751 910 726 885 q 775 975 775 936 q 751 1039 775 1014 q 686 1064 726 1064 q 623 1039 647 1064 q 599 975 599 1014 q 623 910 599 936 q 686 885 647 885 z "},"˜":{"ha":903,"x_min":353,"x_max":832,"o":"m 411 899 l 353 907 q 405 1007 368 972 q 489 1042 442 1042 q 542 1029 514 1042 q 600 1001 571 1017 q 654 972 629 985 q 696 960 679 960 q 744 983 722 960 q 774 1044 765 1007 l 832 1036 q 778 936 814 971 q 696 901 742 901 q 623 922 661 901 q 549 963 585 943 q 489 983 514 983 q 440 960 463 983 q 411 899 418 936 z "},"¯":{"ha":903,"x_min":461,"x_max":833,"o":"m 461 926 l 461 985 l 833 985 l 833 926 l 461 926 z "},"¸":{"ha":903,"x_min":550,"x_max":832,"o":"m 679 -306 q 608 -299 642 -306 q 550 -282 574 -292 l 550 -235 q 613 -252 585 -246 q 668 -258 640 -258 q 747 -240 717 -258 q 776 -194 776 -222 q 757 -149 776 -164 q 701 -133 738 -133 q 663 -136 683 -133 q 624 -144 643 -139 l 596 -119 l 683 26 l 725 1 l 663 -99 q 691 -92 681 -93 q 711 -92 701 -92 q 776 -103 750 -92 q 817 -138 803 -115 q 832 -194 832 -161 q 813 -253 832 -228 q 759 -292 793 -278 q 679 -306 725 -306 z "},"˛":{"ha":903,"x_min":654,"x_max":819,"o":"m 817 -281 q 796 -285 806 -283 q 771 -287 786 -287 q 685 -258 717 -287 q 654 -179 654 -229 q 669 -109 654 -146 q 715 -37 685 -72 q 786 25 744 -1 l 819 0 q 735 -83 764 -36 q 707 -171 707 -131 q 726 -220 707 -201 q 779 -239 746 -239 q 800 -237 792 -239 q 817 -233 808 -235 l 817 -281 z "}}}
